<?xml version="1.0" encoding="iso-8859-1"?>
<!-- Generator: Adobe Illustrator 19.0.0, SVG Export Plug-In . SVG Version: 6.00 Build 0)  -->
<svg version="1.1" id="Capa_1" xmlns="http://www.w3.org/2000/svg" xmlns:xlink="http://www.w3.org/1999/xlink" x="0px" y="0px"
	 viewBox="0 0 512 512" style="enable-background:new 0 0 512 512;" xml:space="preserve">
<g>
	<path style="fill:#1D1D1F;" d="M184.169,461.615c-7.366,25.338-27.827,43.31-51.885,48.695
		c-11.135,2.499-23.032,2.306-34.756-1.107c-37.072-10.789-58.377-49.579-47.587-86.651c10.363-35.619,46.602-56.69,82.313-48.695
		c1.443,0.315,2.885,0.691,4.328,1.107C173.654,385.753,194.959,424.542,184.169,461.615z"/>
	<path style="fill:#1D1D1F;" d="M489.037,442.078c0,33.384-23.397,61.303-54.689,68.242c-4.897,1.097-9.997,1.666-15.219,1.666
		c-38.596,0-69.898-31.302-69.898-69.908c0-38.596,31.302-69.898,69.898-69.898c5.222,0,10.322,0.569,15.219,1.666
		C465.64,380.785,489.037,408.704,489.037,442.078z"/>
</g>
<g>
	<path style="fill:#2D2D30;" d="M184.169,461.615c-7.366,25.338-27.827,43.31-51.885,48.695c-1.443-0.315-2.885-0.691-4.328-1.107
		c-37.062-10.789-58.367-49.579-47.587-86.651c7.376-25.328,27.827-43.31,51.885-48.695c1.443,0.315,2.885,0.691,4.328,1.107
		C173.654,385.753,194.959,424.542,184.169,461.615z"/>
	<path style="fill:#2D2D30;" d="M489.037,442.078c0,33.384-23.397,61.303-54.689,68.242c-31.291-6.939-54.679-34.857-54.679-68.242
		c0-33.374,23.387-61.293,54.679-68.232C465.64,380.785,489.037,408.704,489.037,442.078z"/>
</g>
<g>
	<path style="fill:#787680;" d="M151.689,442.078c0,13.959-8.25,25.988-20.146,31.474c-4.409,2.032-9.316,3.17-14.488,3.17
		c-19.13,0-34.634-15.514-34.634-34.644c0-19.12,15.503-34.634,34.634-34.634c5.171,0,10.078,1.138,14.488,3.17
		C143.44,416.1,151.689,428.129,151.689,442.078z"/>
	<path style="fill:#787680;" d="M453.763,442.078c0,13.959-8.25,25.988-20.146,31.474c-4.399,2.032-9.316,3.17-14.488,3.17
		c-19.12,0-34.634-15.514-34.634-34.644c0-19.12,15.514-34.634,34.634-34.634c5.171,0,10.088,1.138,14.488,3.17
		C445.514,416.1,453.763,428.129,453.763,442.078z"/>
</g>
<g>
	<path style="fill:#ACABB1;" d="M151.689,442.078c0,13.959-8.25,25.988-20.146,31.474c-11.897-5.476-20.157-17.515-20.157-31.474
		c0-13.949,8.26-25.988,20.157-31.464C143.44,416.1,151.689,428.129,151.689,442.078z"/>
	<path style="fill:#ACABB1;" d="M453.763,442.078c0,13.959-8.25,25.988-20.146,31.474c-11.897-5.486-20.146-17.515-20.146-31.474
		c0-13.949,8.25-25.978,20.146-31.464C445.514,416.1,453.763,428.129,453.763,442.078z"/>
</g>
<path style="fill:#FF9811;" d="M441.237,169.538c0,8.036-3.546,15.239-9.154,20.136c-3.078,2.702-6.787,4.704-10.861,5.76
	c-4.013,1.036-6.736,4.775-6.736,8.92v145.109c0,8.036-2.794,15.818-7.914,22.016l-49.762,55.735l-4.907,5.496
	c-11.013,10.2-25.46,15.859-40.466,15.859H38.299c-16.621,0-30.265-13.39-30.306-30.021c-0.03-10.525,1.331-21.03,4.176-31.169
	c9.743-34.776,25.846-53.927,57.442-87.616c0.518,0.142,1.057,0.224,1.636,0.224h146.328l16.255,74.713
	c4.044,18.582,20.512,31.81,39.521,31.759l17.068-0.061c11.165,0,21.03-7.223,24.403-17.86l58.671-185.117
	c1.351-4.277,2.042-8.737,2.042-13.228v-20.654c0-14.782,11.978-26.76,26.76-26.76h12.191c5.953,0,11.45,1.951,15.89,5.232
	c1.077,0.792,2.083,1.666,3.028,2.601C438.24,155.456,441.237,162.152,441.237,169.538z"/>
<path style="fill:#FFA733;" d="M441.237,169.538c0,8.036-3.546,15.239-9.154,20.136c-3.078,2.702-6.787,4.704-10.861,5.76
	c-4.013,1.036-6.736,4.775-6.736,8.92v145.109c0,8.036-2.794,15.818-7.914,22.016l-49.762,55.735
	c-3.475,0.63-7.03,0.955-10.607,0.955H73.065c-16.621,0-30.265-13.38-30.306-30.021c-0.03-10.525,1.331-21.03,4.176-31.17
	c7.579-27.055,19.009-44.661,38.586-66.992h132.054l16.255,74.713c4.044,18.582,20.512,31.81,39.521,31.759l17.068-0.061
	c11.165,0,21.03-7.223,24.403-17.86l58.671-185.117c1.351-4.277,2.042-8.737,2.042-13.228v-20.654
	c0-14.782,11.978-26.76,26.76-26.76h12.191c5.953,0,11.45,1.951,15.89,5.232c1.077,0.792,2.083,1.666,3.028,2.601
	C438.24,155.456,441.237,162.152,441.237,169.538z"/>
<path style="fill:#5EAC24;" d="M183.184,379.16c0,22.859-15.117,42.182-35.904,48.522c-4.684,1.422-9.662,2.194-14.813,2.194
	c-28.01,0-50.717-22.707-50.717-50.716s22.707-50.716,50.717-50.716c5.151,0,10.129,0.772,14.813,2.194
	C168.067,336.977,183.184,356.301,183.184,379.16z"/>
<path style="fill:#6DC82A;" d="M183.184,379.16c0,22.859-15.117,42.182-35.904,48.522c-20.776-6.34-35.894-25.663-35.894-48.522
	s15.117-42.182,35.894-48.522C168.067,336.977,183.184,356.301,183.184,379.16z"/>
<path style="fill:#B3D8F4;" d="M422.513,126.697c-4.209,0-7.62-3.411-7.62-7.62c0-19.136-15.568-34.704-34.705-34.704
	c-4.209,0-7.62-3.411-7.62-7.62c0-4.209,3.411-7.62,7.62-7.62c27.54,0,49.944,22.405,49.944,49.943
	C430.132,123.286,426.722,126.697,422.513,126.697z"/>
<path style="fill:#3D9AE2;" d="M491.646,126.697c-4.209,0-7.62-3.411-7.62-7.62c0-57.256-46.582-103.838-103.839-103.838
	c-4.209,0-7.62-3.411-7.62-7.62S375.979,0,380.188,0c65.66,0,119.078,53.418,119.078,119.077
	C499.266,123.286,495.856,126.697,491.646,126.697z"/>
<path style="fill:#78B9EB;" d="M458.381,126.697c-4.209,0-7.62-3.411-7.62-7.62c0-38.914-31.659-70.572-70.573-70.572
	c-4.209,0-7.62-3.411-7.62-7.62s3.411-7.62,7.62-7.62c47.317,0,85.813,38.496,85.813,85.812
	C466.001,123.286,462.59,126.697,458.381,126.697z"/>
<path style="fill:#47821C;" d="M132.47,320.827c-32.165,0-58.334,26.169-58.334,58.334s26.169,58.334,58.334,58.334
	s58.334-26.169,58.334-58.334S164.635,320.827,132.47,320.827z M89.375,379.161c0-23.763,19.332-43.095,43.095-43.095
	c5.099,0,9.991,0.895,14.534,2.529l-35.253,35.645c-2.162,2.186-2.799,5.457-1.614,8.294c1.184,2.837,3.957,4.684,7.031,4.684
	h17.203l-25.611,27.904C97.091,407.402,89.375,394.168,89.375,379.161z M132.47,422.256c-2.998,0-5.925-0.31-8.752-0.895
	l33.603-36.611c2.044-2.226,2.578-5.451,1.362-8.218c-1.216-2.767-3.953-4.553-6.976-4.553h-16.286l25.16-25.44
	c9.165,7.909,14.983,19.596,14.983,32.622C175.564,402.924,156.233,422.256,132.47,422.256z"/>
<path style="fill:#FFCD00;" d="M276.652,295.851c0,4.186-1.717,8.006-4.48,10.759c-2.753,2.763-6.573,4.48-10.759,4.48H43.998
	c-8.382,0-15.239-6.858-15.239-15.239V278.58c0-8.382,6.858-15.239,15.239-15.239h200.143c14.894,0,27.532,10.149,31.332,23.875
	C276.246,289.969,276.652,292.864,276.652,295.851z"/>
<path style="fill:#FFDA44;" d="M275.473,287.216H69.397c-8.382,0-15.239-6.858-15.239-15.239v-8.636h189.984
	C259.035,263.341,271.674,273.49,275.473,287.216z"/>
<g>
	<path style="fill:#FFCD00;" d="M477.812,173.427h-9.139c-4.209,0-7.62-3.411-7.62-7.62s3.411-7.62,7.62-7.62h9.139
		c4.209,0,7.62,3.411,7.62,7.62S482.021,173.427,477.812,173.427z"/>
	<path style="fill:#FFCD00;" d="M461.592,154.066c-2.402,0-4.766-1.133-6.248-3.25c-2.414-3.447-1.577-8.198,1.871-10.612
		l7.486-5.241c3.448-2.414,8.199-1.577,10.612,1.871c2.414,3.447,1.577,8.198-1.871,10.612l-7.486,5.241
		C464.626,153.619,463.102,154.066,461.592,154.066z"/>
	<path style="fill:#FFCD00;" d="M469.065,197.752c-1.509,0-3.033-0.447-4.364-1.379l-7.486-5.241
		c-3.448-2.414-4.285-7.166-1.871-10.612c2.414-3.448,7.166-4.284,10.612-1.871l7.486,5.241c3.448,2.414,4.285,7.166,1.871,10.612
		C473.831,196.619,471.467,197.752,469.065,197.752z"/>
</g>
<path style="fill:#AA6100;" d="M397.215,173.358v2.509c0,5.649-4.623,10.261-10.261,10.261h-61.435
	c-5.649,0-10.261-4.612-10.261-10.261v-2.509c0-5.639,4.612-10.261,10.261-10.261h61.435
	C392.593,163.096,397.215,167.719,397.215,173.358z"/>
<path style="fill:#CC7400;" d="M397.215,173.358v0.071h-53.663c-5.649,0-10.261-4.623-10.261-10.261v-0.071h53.663
	C392.593,163.096,397.215,167.719,397.215,173.358z"/>
<path style="fill:#EE8700;" d="M498.547,412.625l-161.781,41.654c-3.983,1.026-6.858,3.302-6.553-17.586
	c0.488-32.826,18.846-61.536,45.728-76.766c12.608-7.152,27.096-11.328,42.487-11.572c32.602-0.508,61.293,16.367,77.396,41.959
	c2.469,3.911,4.643,8.026,6.482,12.313C503.921,406.387,506.441,410.593,498.547,412.625z"/>
<path style="fill:#FF9811;" d="M495.824,390.315l-126.547,32.582c-3.983,1.026-6.858,3.302-6.553-17.586
	c0.244-16.58,5.059-32.114,13.218-45.383c12.608-7.152,27.096-11.328,42.487-11.572
	C451.031,347.848,479.721,364.723,495.824,390.315z"/>
<path style="fill:#FFCD00;" d="M441.237,169.538c0,4.927-1.331,9.53-3.657,13.492c-1.463,2.499-3.322,4.745-5.496,6.644
	c-6.472-4.958-10.637-12.76-10.637-21.538c0-7.985,3.444-15.158,8.93-20.126c1.077,0.792,2.083,1.666,3.028,2.601
	c1.229,1.229,2.337,2.581,3.312,4.033C439.571,158.901,441.237,164.031,441.237,169.538z"/>
<path style="fill:#FFDE55;" d="M441.237,169.538c0,4.927-1.331,9.53-3.657,13.492c-2.814-4.277-4.45-9.398-4.45-14.894
	c0-4.917,1.3-9.519,3.586-13.492C439.571,158.901,441.237,164.031,441.237,169.538z"/>
<g>
</g>
<g>
</g>
<g>
</g>
<g>
</g>
<g>
</g>
<g>
</g>
<g>
</g>
<g>
</g>
<g>
</g>
<g>
</g>
<g>
</g>
<g>
</g>
<g>
</g>
<g>
</g>
<g>
</g>
</svg>
