<?xml version="1.0" encoding="iso-8859-1"?>
<!-- Generator: Adobe Illustrator 19.0.0, SVG Export Plug-In . SVG Version: 6.00 Build 0)  -->
<svg version="1.1" id="Capa_1" xmlns="http://www.w3.org/2000/svg" xmlns:xlink="http://www.w3.org/1999/xlink" x="0px" y="0px"
	 viewBox="0 0 512.001 512.001" style="enable-background:new 0 0 512.001 512.001;" xml:space="preserve">
<path style="fill:#EEBF00;" d="M142.496,164.583L142.496,164.583c-7.612,0-13.84-6.228-13.84-13.84V37.991
	c0-7.612,6.228-13.84,13.84-13.84l0,0c7.612,0,13.84,6.228,13.84,13.84v112.751C156.336,158.355,150.108,164.583,142.496,164.583z"
	/>
<path style="fill:#D9CCBC;" d="M333.093,136.705H27.83c-15.37,0-27.83,12.46-27.83,27.83s12.46,27.83,27.83,27.83h305.263
	c17.709,0,32.117,14.408,32.117,32.119v103.544c0,15.37,12.46,27.83,27.83,27.83c15.37,0,27.83-12.46,27.83-27.83V224.484
	C420.869,176.082,381.492,136.705,333.093,136.705z"/>
<path style="fill:#B39A7C;" d="M468.982,323.26v30.397c0,11.716-9.585,21.291-21.291,21.291H333.738
	c-11.706,0-21.291-9.575-21.291-21.291V323.26c0-11.716,9.585-21.291,21.291-21.291H447.69
	C459.397,301.969,468.982,311.544,468.982,323.26z"/>
<path style="fill:#C0AB91;" d="M468.982,323.26v18.712H363.891c-11.706,0-21.291-9.585-21.291-21.291v-18.712H447.69
	C459.397,301.969,468.982,311.544,468.982,323.26z"/>
<path style="fill:#78B9EB;" d="M430.743,471.566c-0.041,8.82-3.069,16.917-8.117,23.341c-6.954,8.82-17.743,14.47-29.857,14.47
	c-20.975,0-37.974-16.999-37.974-37.974c0-7.576,2.223-14.633,6.047-20.557h-0.071l27.145-47.947
	c1.071-1.886,2.957-2.835,4.854-2.835c1.897,0,3.783,0.948,4.854,2.835l6.21,10.972l20.935,36.975h-0.071
	C428.55,456.811,430.773,463.929,430.743,471.566z"/>
<path style="fill:#B3D8F4;" d="M430.743,471.566c-0.041,8.82-3.069,16.917-8.117,23.341c-20.761-0.255-37.505-17.151-37.505-37.974
	c0-7.576,2.223-14.633,6.047-20.557h-0.071l12.736-22.505l20.935,36.975h-0.071C428.55,456.811,430.773,463.929,430.743,471.566z"/>
<path style="fill:#FF9811;" d="M201.962,124.601v79.965c0,8.464-6.924,15.377-15.377,15.377H98.411
	c-8.453,0-15.377-6.914-15.377-15.377v-79.965c0-8.464,6.924-15.377,15.377-15.377h88.174
	C195.038,109.224,201.962,116.138,201.962,124.601z"/>
<path style="fill:#FFA733;" d="M201.962,124.601v67.311h-76.529c-8.453,0-15.377-6.924-15.377-15.387v-67.301h76.529
	C195.038,109.224,201.962,116.138,201.962,124.601z"/>
<path style="fill:#FFCD00;" d="M201.442,18.002v9.228c0,8.453-6.914,15.377-15.377,15.377H98.921
	c-8.453,0-15.377-6.924-15.377-15.377v-9.228c0-8.464,6.924-15.377,15.377-15.377h87.144
	C194.528,2.624,201.442,9.538,201.442,18.002z"/>
<path style="fill:#FFDA44;" d="M201.442,18.002v1.152h-83.147c-8.453,0-15.377-6.924-15.377-15.377V2.624h83.147
	C194.528,2.624,201.442,9.538,201.442,18.002z"/>
<path style="fill:#78B9EB;" d="M476.226,158.036c-4.505,0-8.158-3.653-8.158-8.158c0-34.457-28.032-62.489-62.488-62.489
	c-4.505,0-8.158-3.653-8.158-8.158c0-4.505,3.653-8.158,8.158-8.158c43.452,0,78.803,35.351,78.803,78.804
	C484.383,154.383,480.731,158.036,476.226,158.036z"/>
<path style="fill:#B3D8F4;" d="M444.25,161.678c-4.505,0-8.158-3.653-8.158-8.158c0-18.833-15.321-34.154-34.155-34.154
	c-4.505,0-8.158-3.653-8.158-8.158s3.653-8.158,8.158-8.158c27.83,0,50.47,22.641,50.47,50.469
	C452.407,158.025,448.755,161.678,444.25,161.678z"/>
<path style="fill:#3D9AE2;" d="M503.644,157.964c-0.17,0-0.341-0.005-0.513-0.016c-4.497-0.278-7.916-4.149-7.637-8.646
	c1.559-25.156-6.499-48.497-22.69-65.723c-16.281-17.322-38.97-26.861-63.888-26.861c-4.505,0-8.158-3.653-8.158-8.158
	s3.653-8.158,8.158-8.158c29.467,0,56.379,11.366,75.776,32.002c19.308,20.542,28.927,48.21,27.086,77.906
	C511.51,154.636,507.917,157.964,503.644,157.964z"/>
<g>
</g>
<g>
</g>
<g>
</g>
<g>
</g>
<g>
</g>
<g>
</g>
<g>
</g>
<g>
</g>
<g>
</g>
<g>
</g>
<g>
</g>
<g>
</g>
<g>
</g>
<g>
</g>
<g>
</g>
</svg>
