<?xml version="1.0" encoding="iso-8859-1"?>
<!-- Generator: Adobe Illustrator 19.0.0, SVG Export Plug-In . SVG Version: 6.00 Build 0)  -->
<svg version="1.1" id="Capa_1" xmlns="http://www.w3.org/2000/svg" xmlns:xlink="http://www.w3.org/1999/xlink" x="0px" y="0px"
	 viewBox="0 0 512 512" style="enable-background:new 0 0 512 512;" xml:space="preserve">
<path style="fill:#57565C;" d="M471.73,391.689c0,3.625-1.477,6.91-3.873,9.296c-2.386,2.386-5.681,3.873-9.296,3.873h-83.66
	c-7.24,0-13.169-5.928-13.169-13.169c0-3.625,1.477-6.91,3.873-9.296c2.386-2.386,5.681-3.873,9.296-3.873h83.66
	C465.801,378.521,471.73,384.449,471.73,391.689z"/>
<g>
	<path style="fill:#787680;" d="M512,391.689c0,6.3-1.931,12.157-5.237,17.001c-5.433,7.974-14.584,13.21-24.964,13.21
		c-16.691,0-30.211-13.53-30.211-30.211c0-16.185,12.725-29.395,28.713-30.169c0.496-0.031,1.002-0.041,1.498-0.041
		C498.48,361.479,512,375.009,512,391.689z"/>
	<rect x="414.149" y="378.526" style="fill:#787680;" width="15.493" height="26.337"/>
</g>
<path style="fill:#57565C;" d="M150.268,391.689c0,3.625-1.477,6.91-3.873,9.296c-2.386,2.386-5.681,3.873-9.296,3.873h-83.66
	c-7.24,0-13.169-5.928-13.169-13.169c0-3.625,1.477-6.91,3.873-9.296c2.386-2.386,5.681-3.873,9.296-3.873h83.66
	C144.34,378.521,150.268,384.449,150.268,391.689z"/>
<path style="fill:#787680;" d="M60.411,391.689c0,6.3-1.931,12.157-5.237,17.001C49.742,416.664,40.58,421.9,30.2,421.9
	C13.52,421.9,0,408.37,0,391.689c0-16.185,12.725-29.405,28.713-30.169c0.496-0.031,0.992-0.041,1.487-0.041
	C46.891,361.479,60.411,375.009,60.411,391.689z"/>
<g>
	<path style="fill:#ACABB1;" d="M512,391.689c0,6.3-1.931,12.157-5.237,17.001c-0.496,0.031-1.002,0.041-1.498,0.041
		c-16.68,0-30.2-13.53-30.2-30.211c0-6.311,1.931-12.167,5.237-17.001c0.496-0.031,1.002-0.041,1.498-0.041
		C498.48,361.479,512,375.009,512,391.689z"/>
	<path style="fill:#ACABB1;" d="M60.411,391.689c0,6.3-1.931,12.157-5.237,17.001c-0.496,0.031-1.002,0.041-1.498,0.041
		c-16.68,0-30.2-13.53-30.2-30.211c0-6.311,1.931-12.167,5.237-17.001c0.496-0.031,0.992-0.041,1.487-0.041
		C46.891,361.479,60.411,375.009,60.411,391.689z"/>
</g>
<rect x="82.359" y="378.526" style="fill:#787680;" width="15.493" height="26.337"/>
<path style="fill:#ACABB1;" d="M231.836,287.631v14.082c0,8.954,7.259,16.212,16.213,16.212h15.905
	c8.954,0,16.213-7.259,16.213-16.212v-14.082H231.836z"/>
<path style="fill:#898890;" d="M241.798,100.428c-1.983,0-3.965-0.756-5.478-2.269c-3.025-3.025-3.024-7.93,0.001-10.954
	L253.9,69.629c-4.056-0.44-7.571-3.04-9.159-6.874c-1.747-4.217-0.79-9.027,2.436-12.255l39.699-39.695
	c3.025-3.025,7.93-3.024,10.954,0.001s3.025,7.93-0.001,10.954L265.318,54.27c4.056,0.44,7.571,3.04,9.159,6.874
	c1.747,4.216,0.792,9.026-2.434,12.254L247.276,98.16C245.762,99.672,243.78,100.428,241.798,100.428z"/>
<path style="fill:#1D1D1F;" d="M304.967,15.942c0,5.237-2.84,9.822-7.075,12.26c-2.076,1.208-4.493,1.9-7.075,1.9
	c-7.819,0-14.16-6.342-14.16-14.16s6.342-14.15,14.16-14.15c2.582,0,4.999,0.692,7.075,1.89
	C302.127,6.13,304.967,10.705,304.967,15.942z"/>
<path style="fill:#3E3D42;" d="M304.967,15.942c0,5.237-2.84,9.822-7.075,12.26c-4.235-2.438-7.075-7.023-7.075-12.26
	s2.84-9.812,7.075-12.26C302.127,6.13,304.967,10.705,304.967,15.942z"/>
<path style="fill:#ACABB1;" d="M357.663,117.315v144.856c0,16.081-13.158,29.24-29.24,29.24H183.577
	c-16.081,0-29.24-13.158-29.24-29.24V117.315c0-16.081,13.158-29.24,29.24-29.24h144.846
	C344.504,88.076,357.663,101.234,357.663,117.315z"/>
<path style="fill:#C6C5CA;" d="M357.663,117.315v144.856c0,16.081-13.158,29.24-29.24,29.24H208.014
	c-16.081,0-29.229-13.158-29.229-29.24V117.315c0-16.081,13.148-29.24,29.229-29.24h120.409
	C344.504,88.076,357.663,101.234,357.663,117.315z"/>
<path style="fill:#3E3D42;" d="M340.223,226.621v23.921c0,5.484-4.493,9.967-9.967,9.967H181.744c-5.484,0-9.967-4.483-9.967-9.967
	v-23.921c0-5.484,4.483-9.967,9.967-9.967h148.512C335.73,216.654,340.223,221.136,340.223,226.621z"/>
<g>
	<rect x="196.694" y="216.649" style="fill:#1D1D1F;" width="37.874" height="43.854"/>
	<rect x="273.445" y="216.649" style="fill:#1D1D1F;" width="37.874" height="43.854"/>
</g>
<path style="fill:#898890;" d="M273.365,345.159h-36.108c-3.374,0-6.11-2.736-6.11-6.11v-5.64c0-9.31,7.548-16.858,16.858-16.858
	h14.613c9.31,0,16.858,7.548,16.858,16.858v5.64C279.475,342.423,276.74,345.159,273.365,345.159z"/>
<path style="fill:#ACABB1;" d="M399.906,427.064c0,12.177-2.654,23.766-7.416,34.218c-4.173,9.172-9.967,17.465-17.011,24.509
	c-15.059,15.059-35.85,24.416-58.717,24.416H195.238c-45.734,0-83.144-37.41-83.144-83.144c0-21.721,8.428-41.562,22.216-56.414
	c0.713-0.785,1.456-1.56,2.21-2.314c15.059-15.059,35.85-24.416,58.717-24.416h121.524
	C362.496,343.921,399.906,381.33,399.906,427.064z"/>
<path style="fill:#C6C5CA;" d="M399.906,427.064c0,12.177-2.654,23.766-7.416,34.218c-0.713,0.785-1.446,1.539-2.2,2.293
	c-15.069,15.069-35.86,24.427-58.717,24.427H210.039c-45.734,0-83.144-37.42-83.144-83.144c0-12.177,2.654-23.766,7.416-34.208
	c0.713-0.785,1.456-1.56,2.21-2.314c15.059-15.059,35.85-24.416,58.717-24.416h121.524
	C362.496,343.921,399.906,381.33,399.906,427.064z"/>
<circle style="fill:#787680;" cx="297.83" cy="157.364" r="31.747"/>
<circle style="fill:#1D1D1F;" cx="297.83" cy="157.364" r="9.296"/>
<circle style="fill:#787680;" cx="214.17" cy="157.364" r="31.747"/>
<circle style="fill:#1D1D1F;" cx="214.17" cy="157.364" r="9.296"/>
<circle style="fill:#FF0C38;" cx="270.801" cy="480.426" r="9.64"/>
<circle style="fill:#5EAC24;" cx="305.401" cy="480.426" r="9.64"/>
<circle style="fill:#1A6FB0;" cx="340.001" cy="480.426" r="9.64"/>
<g>
</g>
<g>
</g>
<g>
</g>
<g>
</g>
<g>
</g>
<g>
</g>
<g>
</g>
<g>
</g>
<g>
</g>
<g>
</g>
<g>
</g>
<g>
</g>
<g>
</g>
<g>
</g>
<g>
</g>
</svg>
