<?xml version="1.0" encoding="iso-8859-1"?>
<!-- Generator: Adobe Illustrator 19.0.0, SVG Export Plug-In . SVG Version: 6.00 Build 0)  -->
<svg version="1.1" id="Capa_1" xmlns="http://www.w3.org/2000/svg" xmlns:xlink="http://www.w3.org/1999/xlink" x="0px" y="0px"
	 viewBox="0 0 512 512" style="enable-background:new 0 0 512 512;" xml:space="preserve">
<path style="fill:#EE8700;" d="M245.753,317.875v194.121h158.976c14.818,0,26.831-11.636,26.831-25.989V317.875H245.753z"/>
<path style="fill:#FF9811;" d="M251.232,317.887v194.113H106.434c-14.357,0-25.982-11.626-25.982-25.998V317.887l85.373-85.406
	l10.709,10.709L251.232,317.887z"/>
<path style="fill:#AA6100;" d="M458.437,319.619v8.594c0,8.944-7.245,16.205-16.189,16.205H247.685l-34.808-33.959l-53.662-52.363
	l0.367-46.817h191.016c6.495,0,12.991,2.448,17.904,7.378l82.758,82.742c2.465,2.649,4.347,5.729,5.546,9.06
	C457.887,313.373,458.437,316.471,458.437,319.619z"/>
<path style="fill:#FFA733;" d="M251.232,317.887v194.113H127.819c-14.357,0-25.982-11.626-25.982-25.998V317.887l74.698-74.697
	L251.232,317.887z"/>
<path style="fill:#AA6100;" d="M205.248,358.625V512h-79.71V358.625c0-7.795,6.379-14.19,14.19-14.19h51.331
	C198.869,344.436,205.248,350.83,205.248,358.625z"/>
<path style="fill:#CC7400;" d="M205.248,358.625V512h-58.326V358.625c0-7.795,6.396-14.19,14.19-14.19h29.945
	C198.869,344.436,205.248,350.83,205.248,358.625z"/>
<circle style="fill:#663A00;" cx="178.836" cy="426.684" r="8.396"/>
<path style="fill:#884D00;" d="M458.437,319.619v8.594c0,8.944-7.245,16.205-16.189,16.205H247.685l-34.808-33.959h243.929
	C457.887,313.373,458.437,316.471,458.437,319.619z"/>
<path style="fill:#CC7400;" d="M262.209,301.405l-82.267-82.267c-0.149-0.156-0.279-0.325-0.432-0.478l0,0
	c-4.931-4.931-11.432-7.392-17.93-7.386c-6.499-0.006-13.001,2.455-17.931,7.386l0,0c-0.153,0.153-0.283,0.322-0.432,0.478
	L60.95,301.405c-9.849,9.849-9.849,25.966,0,35.815l0,0c9.849,9.849,25.966,9.849,35.815,0l64.815-64.815l64.815,64.815
	c9.849,9.849,25.966,9.849,35.815,0l0,0C272.058,327.371,272.058,311.255,262.209,301.405z"/>
<path style="fill:#1E81CE;" d="M389.182,422.865c0,12.352-5.053,23.576-13.191,31.725c-5.602,5.602-12.673,9.743-20.563,11.783
	c-3.572,0.922-7.31,1.408-11.151,1.408h-4.628c-24.695,0-44.906-20.211-44.906-44.916c0-12.352,5.053-23.576,13.191-31.715
	c8.138-8.138,19.373-13.191,31.715-13.191h4.628c3.841,0,7.579,0.487,11.151,1.408C374.769,384.358,389.182,402.012,389.182,422.865
	z"/>
<path style="fill:#5AAAE7;" d="M389.182,422.865c0,12.352-5.053,23.576-13.191,31.725c-5.602,5.602-12.673,9.743-20.563,11.783
	c-19.352-4.991-33.765-22.644-33.765-43.508c0-12.352,5.053-23.576,13.191-31.715c5.602-5.602,12.673-9.743,20.574-11.783
	C374.769,384.358,389.182,402.012,389.182,422.865z"/>
<g>
	<circle style="fill:#884D00;" cx="178.588" cy="426.808" r="8.403"/>
	<path style="fill:#884D00;" d="M344.273,370.198h-4.62c-29.043,0-52.672,23.628-52.672,52.671
		c0,29.044,23.629,52.672,52.672,52.672h4.62c29.043,0,52.672-23.628,52.672-52.672
		C396.945,393.826,373.317,370.198,344.273,370.198z M380.591,415.106c-0.014,0-0.028-0.002-0.042-0.002h-30.821v-28.971
		C365.072,388.401,377.384,400.085,380.591,415.106z M334.198,386.133v28.971h-30.821c-0.014,0-0.028,0.002-0.042,0.002
		C306.542,400.085,318.854,388.401,334.198,386.133z M303.334,430.633c0.014,0,0.028,0.002,0.042,0.002h30.821v28.972
		C318.854,457.337,306.542,445.653,303.334,430.633z M349.729,459.605v-28.972h30.821c0.014,0,0.028-0.002,0.042-0.002
		C377.384,445.653,365.072,457.337,349.729,459.605z"/>
</g>
<path style="fill:#C70024;" d="M455.321,104.347c0,36.731-18.97,69.023-47.659,87.613c-4.315,2.803-7.926,6.572-10.466,11.054
	l-33.939,59.952l-3.538,6.246c-3.842,6.803-13.647,6.803-17.489,0l-37.477-66.208c-2.53-4.472-6.131-8.23-10.445-11.033
	c-29.099-18.854-48.216-51.795-47.67-89.168C247.447,46.63,293.3,0.787,349.483,0.01c4.672-0.063,9.269,0.179,13.773,0.714
	C415.094,6.792,455.321,50.882,455.321,104.347z"/>
<path style="fill:#FF0C38;" d="M455.321,104.347c0,36.731-18.97,69.023-47.659,87.613c-4.315,2.803-7.926,6.572-10.466,11.054
	l-33.939,59.952l-33.939-59.963c-2.53-4.472-6.131-8.23-10.445-11.033c-29.089-18.854-48.206-51.795-47.67-89.168
	c0.756-52.531,40.909-96.022,92.054-102.079C415.094,6.792,455.321,50.882,455.321,104.347z"/>
<path style="fill:#2D2D30;" d="M430.757,104.609c0,39.881-29.268,72.927-67.5,78.837c-4,0.619-8.104,0.944-12.282,0.944
	c-44.059,0-79.783-35.724-79.783-79.783c0-44.069,35.724-79.783,79.783-79.783c4.178,0,8.282,0.325,12.282,0.944
	C401.489,31.672,430.757,64.718,430.757,104.609z"/>
<path style="fill:#3E3D42;" d="M430.757,104.609c0,39.881-29.268,72.927-67.5,78.837c-38.233-5.91-67.5-38.957-67.5-78.837
	c0-39.891,29.268-72.938,67.5-78.837C401.489,31.672,430.757,64.718,430.757,104.609z"/>
<path style="fill:#78B9EB;" d="M388.379,123.291c-2.15,0-4.298-0.82-5.938-2.459c-8.404-8.405-19.58-13.034-31.465-13.034
	c-11.886,0-23.061,4.628-31.465,13.034c-3.279,3.278-8.597,3.278-11.876,0c-3.28-3.279-3.28-8.597,0-11.877
	c11.577-11.577,26.969-17.953,43.342-17.953c16.373,0,31.764,6.375,43.342,17.953c3.28,3.28,3.28,8.598,0,11.877
	C392.677,122.471,390.527,123.291,388.379,123.291z"/>
<path style="fill:#B3D8F4;" d="M373.377,142.15c-2.15,0-4.299-0.82-5.938-2.459c-4.398-4.398-10.244-6.82-16.464-6.82
	c-6.22,0-12.066,2.423-16.464,6.82c-3.279,3.278-8.597,3.278-11.876,0c-3.28-3.279-3.28-8.597,0-11.876
	c7.57-7.571,17.634-11.741,28.34-11.741c10.706,0,20.77,4.17,28.34,11.741c3.28,3.279,3.28,8.597,0,11.876
	C377.676,141.329,375.526,142.15,373.377,142.15z"/>
<path style="fill:#3D9AE2;" d="M402.855,108.741c-2.324,0-4.638-0.96-6.297-2.839c-12.07-13.665-28.11-21.483-45.165-22.011
	c-17.139-0.533-33.615,6.193-46.356,18.935c-3.279,3.279-8.597,3.278-11.876,0c-3.28-3.28-3.28-8.598,0-11.877
	c16.054-16.053,36.921-24.505,58.753-23.846c21.737,0.673,42.063,10.504,57.233,27.681c3.07,3.476,2.742,8.783-0.735,11.854
	C406.814,108.048,404.83,108.741,402.855,108.741z"/>
<g>
</g>
<g>
</g>
<g>
</g>
<g>
</g>
<g>
</g>
<g>
</g>
<g>
</g>
<g>
</g>
<g>
</g>
<g>
</g>
<g>
</g>
<g>
</g>
<g>
</g>
<g>
</g>
<g>
</g>
</svg>
