<?xml version="1.0" encoding="iso-8859-1"?>
<!-- Generator: Adobe Illustrator 19.0.0, SVG Export Plug-In . SVG Version: 6.00 Build 0)  -->
<svg version="1.1" id="Capa_1" xmlns="http://www.w3.org/2000/svg" xmlns:xlink="http://www.w3.org/1999/xlink" x="0px" y="0px"
	 viewBox="0 0 512 512" style="enable-background:new 0 0 512 512;" xml:space="preserve">
<path style="fill:#EEBF00;" d="M291.022,35.012v24.44c0,19.258-15.765,35.012-35.022,35.012s-35.022-15.754-35.022-35.012v-24.44
	c0-2.208,0.207-4.374,0.612-6.478C224.647,12.344,238.95,0,256,0c9.629,0,18.387,3.939,24.73,10.282
	c4.851,4.851,8.292,11.09,9.65,18.045C290.805,30.493,291.022,32.732,291.022,35.012z"/>
<path style="fill:#CCA400;" d="M291.022,35.012v24.44c0,19.258-15.765,35.012-35.022,35.012s-35.022-15.754-35.022-35.012v-24.44
	c0-2.208,0.207-4.374,0.612-6.478c11.287-2.394,22.968-3.648,34.898-3.648c11.588,0,22.927,1.182,33.893,3.441
	C290.805,30.493,291.022,32.732,291.022,35.012z"/>
<path style="fill:#CC7400;" d="M354.765,428.549c-1.721,10.168-4.923,19.714-9.349,28.461
	c-19.278,38.184-61.784,61.089-106.155,53.565c-54.549-9.245-91.271-60.955-82.026-115.504
	c4.332-25.601,18.035-47.273,36.992-62.116c21.424-16.78,49.574-24.813,78.512-19.911C327.289,322.3,364.011,374.01,354.765,428.549
	z"/>
<path style="fill:#FF9811;" d="M354.765,428.549c-1.721,10.168-4.923,19.714-9.349,28.461
	c-21.424,16.791-49.574,24.823-78.523,19.921c-54.539-9.245-91.261-60.965-82.016-115.504c1.721-10.168,4.923-19.724,9.349-28.472
	c21.424-16.78,49.574-24.813,78.513-19.911C327.289,322.3,364.011,374.01,354.765,428.549z"/>
<path style="fill:#FFCD00;" d="M451.25,370.341H60.75l30.213-181.268c7.089-42.485,29.757-79.02,61.556-104.134
	c28.772-22.709,65.018-36.079,103.968-36.079c41.179,0,79.311,14.936,108.798,40.049c29.477,25.103,50.3,60.374,56.861,101.025
	l16.076,99.677L451.25,370.341z"/>
<path style="fill:#FFDA44;" d="M438.222,289.61H151.645c-18.315,0-32.248-16.446-29.236-34.512l24.461-146.756
	c1.337-8.022,3.234-15.837,5.649-23.403c28.772-22.709,65.018-36.079,103.968-36.079c41.179,0,79.311,14.936,108.798,40.049
	c29.477,25.103,50.3,60.374,56.861,101.025L438.222,289.61z"/>
<g>
	<path style="fill:#CCA400;" d="M329.731,232.797c-2.122,0-4.244-0.809-5.863-2.428c-32.677-32.678-85.844-32.676-118.52,0
		c-3.238,3.237-8.488,3.237-11.726,0c-3.239-3.239-3.239-8.488,0-11.727c39.142-39.142,102.83-39.141,141.972,0
		c3.239,3.239,3.239,8.488,0,11.727C333.976,231.988,331.854,232.797,329.731,232.797z"/>
	<path style="fill:#CCA400;" d="M303.613,265.632c-2.122,0-4.244-0.809-5.863-2.428c-18.275-18.275-48.009-18.273-66.282,0
		c-3.238,3.237-8.488,3.237-11.726,0c-3.239-3.239-3.239-8.488,0-11.727c24.739-24.738,64.995-24.739,89.734,0
		c3.239,3.238,3.239,8.488,0,11.727C307.857,264.823,305.735,265.632,303.613,265.632z"/>
	<path style="fill:#CCA400;" d="M354.935,207.466c-2.295,0-4.579-0.947-6.218-2.803c-22.185-25.117-51.727-39.486-83.186-40.461
		c-31.615-0.975-61.951,11.385-85.383,34.818c-3.238,3.238-8.488,3.237-11.726,0c-3.239-3.239-3.239-8.488,0-11.727
		c26.703-26.703,61.362-40.789,97.623-39.667c36.082,1.117,69.856,17.474,95.102,46.059c3.032,3.433,2.706,8.672-0.726,11.704
		C358.845,206.782,356.886,207.466,354.935,207.466z"/>
	<path style="fill:#CCA400;" d="M476.447,346.668v19.703c0,2.55-0.166,5.058-0.497,7.525c-0.612,4.56-1.762,8.955-3.389,13.122
		c-8.312,21.289-29.094,36.463-53.233,36.463H92.673c-31.415,0-57.12-25.694-57.12-57.109v-19.703
		c0-7.597,6.219-13.816,13.826-13.816h413.24C470.228,332.852,476.447,339.07,476.447,346.668z"/>
</g>
<path style="fill:#DDB200;" d="M476.447,346.668v19.703c0,2.55-0.166,5.058-0.497,7.525c-0.612,4.56-1.762,8.955-3.389,13.122
	c-6.716,2.788-14.075,4.332-21.776,4.332H124.13c-31.415,0-57.12-25.694-57.12-57.109v-1.389h395.61
	C470.228,332.852,476.447,339.07,476.447,346.668z"/>
<g>
</g>
<g>
</g>
<g>
</g>
<g>
</g>
<g>
</g>
<g>
</g>
<g>
</g>
<g>
</g>
<g>
</g>
<g>
</g>
<g>
</g>
<g>
</g>
<g>
</g>
<g>
</g>
<g>
</g>
</svg>
