<?xml version="1.0" encoding="iso-8859-1"?>
<!-- Generator: Adobe Illustrator 19.0.0, SVG Export Plug-In . SVG Version: 6.00 Build 0)  -->
<svg version="1.1" id="Capa_1" xmlns="http://www.w3.org/2000/svg" xmlns:xlink="http://www.w3.org/1999/xlink" x="0px" y="0px"
	 viewBox="0 0 512 512" style="enable-background:new 0 0 512 512;" xml:space="preserve">
<polygon style="fill:#D9CCBC;" points="306.577,459.115 205.543,459.115 213.601,343.725 298.519,343.725 "/>
<path style="fill:#A78966;" d="M427.49,485.128c0,4.272-1.748,8.14-4.561,10.954c-2.803,2.813-6.692,4.561-10.954,4.561h-311.83
	c-8.533,0-15.515-6.982-15.515-15.515c0-14.925,6.103-28.506,15.949-38.343c9.836-9.847,23.417-15.949,38.343-15.949h234.276
	C403.059,430.836,427.49,455.267,427.49,485.128z"/>
<polygon style="fill:#EBE5DD;" points="306.577,459.115 242.707,459.115 250.764,343.725 298.519,343.725 "/>
<path style="fill:#C0AB91;" d="M427.49,485.128c0,4.272-1.748,8.14-4.561,10.954c-2.803,2.813-6.692,4.561-10.954,4.561H137.308
	c-8.533,0-15.515-6.982-15.515-15.515c0-14.925,6.113-28.506,15.949-38.343c9.836-9.847,23.407-15.949,38.343-15.949h197.112
	C403.059,430.836,427.49,455.267,427.49,485.128z"/>
<path style="fill:#D9CCBC;" d="M512,53.47V311.66c0,23.164-18.949,42.113-42.113,42.113H42.113C18.949,353.773,0,334.825,0,311.66
	V53.47c0-23.164,18.949-42.113,42.113-42.113h427.773C493.051,11.357,512,30.306,512,53.47z"/>
<path style="fill:#EBE5DD;" d="M512,53.47V311.66c0,23.164-18.949,42.113-42.113,42.113H75.722
	c-23.164,0-42.113-18.949-42.113-42.113V53.47c0-23.164,18.949-42.113,42.113-42.113h394.165C493.051,11.357,512,30.306,512,53.47z"
	/>
<path style="fill:#6DC82A;" d="M280.846,381.558c0.706-1.028,1.412-2.098,2.108-3.208
	C282.269,379.471,281.562,380.541,280.846,381.558z"/>
<path style="fill:#A78966;" d="M512,283.035v28.626c0,23.164-18.949,42.113-42.113,42.113H42.113C18.949,353.773,0,334.825,0,311.66
	v-28.626h512V283.035z"/>
<path style="fill:#C0AB91;" d="M512,283.035v28.626c0,23.164-18.949,42.113-42.113,42.113H75.722
	c-23.164,0-42.113-18.949-42.113-42.113v-28.626H512z"/>
<path style="fill:#78B9EB;" d="M280.846,381.558c0.706-1.028,1.412-2.098,2.108-3.208
	C282.269,379.471,281.562,380.541,280.846,381.558z"/>
<path style="fill:#3D9AE2;" d="M245.665,70.527v45.19c0,7.52-6.144,13.664-13.664,13.664h-45.19c-7.52,0-13.664-6.144-13.664-13.664
	v-45.19c0-7.52,6.144-13.664,13.664-13.664h45.19C239.521,56.863,245.665,63.007,245.665,70.527z"/>
<path style="fill:#EEBF00;" d="M357.952,70.527v45.19c0,7.52-6.144,13.664-13.664,13.664h-45.19
	c-7.509,0-13.664-6.144-13.664-13.664v-45.19c0-7.52,6.154-13.664,13.664-13.664h45.19
	C351.808,56.863,357.952,63.007,357.952,70.527z"/>
<path style="fill:#3D9AE2;" d="M470.239,70.527v45.19c0,7.52-6.144,13.664-13.664,13.664h-45.19
	c-7.509,0-13.664-6.144-13.664-13.664v-45.19c0-7.52,6.154-13.664,13.664-13.664h45.19
	C464.094,56.863,470.239,63.007,470.239,70.527z"/>
<path style="fill:#EEBF00;" d="M245.665,172.512v45.19c0,7.52-6.144,13.664-13.664,13.664h-45.19
	c-7.52,0-13.664-6.144-13.664-13.664v-45.19c0-7.509,6.144-13.664,13.664-13.664h45.19
	C239.521,158.848,245.665,165.003,245.665,172.512z"/>
<path style="fill:#3D9AE2;" d="M357.952,172.512v45.19c0,7.52-6.144,13.664-13.664,13.664h-45.19
	c-7.509,0-13.664-6.144-13.664-13.664v-45.19c0-7.509,6.154-13.664,13.664-13.664h45.19
	C351.808,158.848,357.952,165.003,357.952,172.512z"/>
<path style="fill:#EEBF00;" d="M470.239,172.512v45.19c0,7.52-6.144,13.664-13.664,13.664h-45.19
	c-7.509,0-13.664-6.144-13.664-13.664v-45.19c0-7.509,6.154-13.664,13.664-13.664h45.19
	C464.094,158.848,470.239,165.003,470.239,172.512z"/>
<path style="fill:#5AAAE7;" d="M245.665,70.527v45.19c0,7.52-6.144,13.664-13.664,13.664h-22.104
	c-7.52,0-13.664-6.144-13.664-13.664v-45.19c0-7.52,6.144-13.664,13.664-13.664h22.104
	C239.521,56.863,245.665,63.007,245.665,70.527z"/>
<path style="fill:#FFD422;" d="M357.952,70.527v45.19c0,7.52-6.144,13.664-13.664,13.664h-22.104
	c-7.509,0-13.664-6.144-13.664-13.664v-45.19c0-7.52,6.154-13.664,13.664-13.664h22.104
	C351.808,56.863,357.952,63.007,357.952,70.527z"/>
<path style="fill:#5AAAE7;" d="M470.239,70.527v45.19c0,7.52-6.144,13.664-13.664,13.664h-22.104
	c-7.509,0-13.664-6.144-13.664-13.664v-45.19c0-7.52,6.154-13.664,13.664-13.664h22.104
	C464.094,56.863,470.239,63.007,470.239,70.527z"/>
<path style="fill:#FFD422;" d="M245.665,172.512v45.19c0,7.52-6.144,13.664-13.664,13.664h-22.104
	c-7.52,0-13.664-6.144-13.664-13.664v-45.19c0-7.509,6.144-13.664,13.664-13.664h22.104
	C239.521,158.848,245.665,165.003,245.665,172.512z"/>
<path style="fill:#5AAAE7;" d="M357.952,172.512v45.19c0,7.52-6.144,13.664-13.664,13.664h-22.104
	c-7.509,0-13.664-6.144-13.664-13.664v-45.19c0-7.509,6.154-13.664,13.664-13.664h22.104
	C351.808,158.848,357.952,165.003,357.952,172.512z"/>
<path style="fill:#FFD422;" d="M470.239,172.512v45.19c0,7.52-6.144,13.664-13.664,13.664h-22.104
	c-7.509,0-13.664-6.144-13.664-13.664v-45.19c0-7.509,6.154-13.664,13.664-13.664h22.104
	C464.094,158.848,470.239,165.003,470.239,172.512z"/>
<path style="fill:#3D9AE2;" d="M133.492,66.793v94c0,5.741-4.706,10.436-10.447,10.436H46.07c-5.741,0-10.436-4.696-10.436-10.436
	v-94c0-5.741,4.696-10.436,10.436-10.436h76.975C128.786,56.357,133.492,61.052,133.492,66.793z"/>
<path style="fill:#5AAAE7;" d="M133.492,66.793v94c0,5.741-4.706,10.436-10.447,10.436H67.791c-5.741,0-10.436-4.696-10.436-10.436
	v-94c0-5.741,4.696-10.436,10.436-10.436h55.254C128.786,56.357,133.492,61.052,133.492,66.793z"/>
<path style="fill:#EEBF00;" d="M121.793,163.482v7.747H47.466v-7.747c0-13.643,7.085-25.682,17.666-32.416
	c1.676-1.076,2.131-3.372,0.858-4.892c-3.682-4.406-5.896-10.116-5.896-16.363c0-13.901,10.985-25.165,24.534-25.165
	c3.031,0,5.937,0.569,8.626,1.593c9.299,3.589,15.908,12.784,15.908,23.572c0,6.247-2.224,11.957-5.896,16.353
	c-1.272,1.531-0.827,3.827,0.858,4.903C114.708,137.8,121.793,149.829,121.793,163.482z"/>
<path style="fill:#FFD422;" d="M121.793,163.482v7.747H64.709v-7.747c0-13.643,7.085-25.682,17.666-32.416
	c1.676-1.076,2.131-3.372,0.848-4.892c-3.672-4.406-5.885-10.116-5.885-16.363c0-10.788,6.62-19.994,15.918-23.572
	c9.299,3.589,15.908,12.784,15.908,23.572c0,6.247-2.224,11.957-5.896,16.353c-1.272,1.531-0.827,3.827,0.858,4.903
	C114.708,137.8,121.793,149.829,121.793,163.482z"/>
<g>
	<path style="fill:#78B9EB;" d="M134.365,210.279H33.409c-4.285,0-7.757-3.472-7.757-7.757s3.472-7.757,7.757-7.757h100.956
		c4.285,0,7.757,3.472,7.757,7.757S138.65,210.279,134.365,210.279z"/>
	<path style="fill:#78B9EB;" d="M134.365,237.064H33.409c-4.285,0-7.757-3.472-7.757-7.757c0-4.285,3.472-7.757,7.757-7.757h100.956
		c4.285,0,7.757,3.472,7.757,7.757C142.122,233.592,138.65,237.064,134.365,237.064z"/>
	<path style="fill:#78B9EB;" d="M134.365,264.88H33.409c-4.285,0-7.757-3.472-7.757-7.757c0-4.285,3.472-7.757,7.757-7.757h100.956
		c4.285,0,7.757,3.472,7.757,7.757C142.122,261.408,138.65,264.88,134.365,264.88z"/>
</g>
<path style="fill:#6A563D;" d="M277.781,313.377v10.912c0,2.896-2.369,5.275-5.275,5.275h-32.892c-2.906,0-5.275-2.379-5.275-5.275
	v-10.912c0-2.906,2.369-5.275,5.275-5.275h32.892C275.412,308.102,277.781,310.471,277.781,313.377z"/>
<path style="fill:#957856;" d="M277.781,313.377v10.912c0,2.896-2.369,5.275-5.275,5.275h-18.07c-2.896,0-5.275-2.379-5.275-5.275
	v-10.912c0-2.906,2.379-5.275,5.275-5.275h18.07C275.412,308.102,277.781,310.471,277.781,313.377z"/>
<g>
</g>
<g>
</g>
<g>
</g>
<g>
</g>
<g>
</g>
<g>
</g>
<g>
</g>
<g>
</g>
<g>
</g>
<g>
</g>
<g>
</g>
<g>
</g>
<g>
</g>
<g>
</g>
<g>
</g>
</svg>
