<?xml version="1.0" encoding="iso-8859-1"?>
<!-- Generator: Adobe Illustrator 19.0.0, SVG Export Plug-In . SVG Version: 6.00 Build 0)  -->
<svg version="1.1" id="Capa_1" xmlns="http://www.w3.org/2000/svg" xmlns:xlink="http://www.w3.org/1999/xlink" x="0px" y="0px"
	 viewBox="0 0 512 512" style="enable-background:new 0 0 512 512;" xml:space="preserve">
<g>
	<path style="fill:#C70024;" d="M49.9,345.131H33.803c-2.935,0-5.747,0.536-8.346,1.511v-71.564c0-4.282-3.469-7.751-7.751-7.751
		s-7.751,3.469-7.751,7.751v93.902v8.808v0.849c0,13.151,10.698,23.848,23.848,23.848H49.9c13.151,0,23.848-10.698,23.848-23.848
		v-9.659C73.748,355.828,63.051,345.131,49.9,345.131z"/>
	<path style="fill:#C70024;" d="M494.295,267.325c-4.282,0-7.751,3.469-7.751,7.751v71.564c-2.599-0.975-5.411-1.511-8.346-1.511
		H462.1c-13.151,0-23.848,10.698-23.848,23.848v9.659c0,13.151,10.698,23.848,23.848,23.848h16.097
		c13.151,0,23.848-10.698,23.848-23.848v-0.849v-8.808v-93.902C502.046,270.796,498.576,267.325,494.295,267.325z"/>
</g>
<path style="fill:#FF0C38;" d="M512,275.08c0,9.777-7.927,17.703-17.703,17.703c-4.413,0-8.454-1.612-11.554-4.289
	c-3.772-3.245-6.159-8.051-6.159-13.414c0-118.053-96.04-214.103-214.093-214.103h-12.98c-118.053,0-214.093,96.05-214.093,214.103
	c0,5.364-2.387,10.169-6.159,13.414c-3.1,2.677-7.141,4.289-11.554,4.289C7.927,292.784,0,284.857,0,275.08
	c0-66.648,25.95-129.307,73.076-176.433c44.759-44.759,103.522-70.4,166.409-72.87c2.367-0.351,30.653-0.351,33.03,0
	c62.886,2.47,121.649,28.11,166.409,72.87C486.05,145.773,512,208.432,512,275.08z"/>
<path style="fill:#FF3F62;" d="M491.072,274.295c0,6.097-3.359,11.42-8.33,14.2c-3.772-3.245-6.159-8.051-6.159-13.414
	c0-118.053-96.04-214.103-214.093-214.103h-12.98c-118.053,0-214.093,96.05-214.093,214.103c0,5.364-2.387,10.169-6.159,13.414
	c-4.971-2.78-8.33-8.102-8.33-14.2c0-61.192,23.832-118.735,67.103-162.006c41.101-41.101,95.058-64.643,152.808-66.907
	c2.17-0.32,28.141-0.331,30.322,0c57.75,2.263,111.707,25.806,152.808,66.907C467.241,155.56,491.072,213.103,491.072,274.295z"/>
<path style="fill:#78B9EB;" d="M342.616,215.934c-2.117,0-4.232-0.807-5.846-2.421c-21.574-21.575-50.259-33.456-80.768-33.456
	s-59.195,11.882-80.769,33.456c-3.23,3.228-8.463,3.228-11.693,0c-3.229-3.23-3.229-8.463,0-11.693
	c24.697-24.697,57.534-38.299,92.462-38.299s67.764,13.601,92.462,38.299c3.229,3.23,3.229,8.463,0,11.693
	C346.847,215.127,344.731,215.934,342.616,215.934z"/>
<path style="fill:#B3D8F4;" d="M307.876,259.607c-2.117,0-4.232-0.807-5.846-2.421c-12.294-12.295-28.641-19.067-46.03-19.067
	s-33.735,6.772-46.03,19.067c-3.23,3.228-8.463,3.228-11.693,0c-3.229-3.229-3.229-8.463,0-11.692
	c15.418-15.419,35.918-23.911,57.723-23.911s42.305,8.492,57.723,23.911c3.229,3.229,3.229,8.463,0,11.692
	C312.108,258.799,309.991,259.607,307.876,259.607z"/>
<path style="fill:#3D9AE2;" d="M376.135,182.242c-2.288,0-4.566-0.945-6.2-2.794c-30.015-33.983-70.011-53.425-112.623-54.746
	c-42.835-1.332-83.89,15.406-115.598,47.116c-3.231,3.23-8.464,3.228-11.693,0c-3.229-3.23-3.229-8.463,0-11.693
	c34.971-34.969,80.376-53.42,127.804-51.95c47.22,1.462,91.437,22.887,124.505,60.327c3.023,3.423,2.698,8.647-0.723,11.67
	C380.034,181.56,378.08,182.242,376.135,182.242z"/>
<g>
	<path style="fill:#A5001E;" d="M113.216,314.373v118.869c0,8.629-7.059,15.688-15.678,15.688H68.798
		c-8.619,0-15.678-7.059-15.678-15.688V314.373c0-8.629,7.059-15.688,15.678-15.688h28.741
		C106.158,298.685,113.216,305.743,113.216,314.373z"/>
	<path style="fill:#A5001E;" d="M458.88,314.373v118.869c0,8.629-7.059,15.688-15.678,15.688h-28.741
		c-8.619,0-15.678-7.059-15.678-15.688V314.373c0-8.629,7.059-15.688,15.678-15.688h28.741
		C451.821,298.685,458.88,305.743,458.88,314.373z"/>
</g>
<g>
	<path style="fill:#FF0C38;" d="M113.216,314.373v118.869c0,8.629-7.059,15.688-15.678,15.688h-23.79V298.685h23.79
		C106.158,298.685,113.216,305.743,113.216,314.373z"/>
	<path style="fill:#FF0C38;" d="M438.252,298.685V448.93h-23.79c-8.619,0-15.678-7.059-15.678-15.688V314.373
		c0-8.629,7.059-15.688,15.678-15.688L438.252,298.685L438.252,298.685z"/>
</g>
<g>
	<path style="fill:#FFCD00;" d="M186.189,305.258v137.1c0,9.498-3.038,18.323-8.195,25.547
		c-8.02,11.223-21.155,18.582-35.934,18.582h-7.245c-24.276,0-44.139-19.853-44.139-44.129v-137.1
		c0-22.147,16.535-40.615,37.877-43.685c2.046-0.289,4.134-0.444,6.263-0.444h7.245
		C166.336,261.129,186.189,280.981,186.189,305.258z"/>
	<path style="fill:#FFCD00;" d="M421.324,305.258v137.1c0,9.498-3.049,18.323-8.206,25.547
		c-8.02,11.223-21.155,18.582-35.934,18.582h-7.245c-24.276,0-44.129-19.853-44.129-44.129v-137.1
		c0-22.147,16.525-40.615,37.866-43.685c2.046-0.289,4.134-0.444,6.263-0.444h7.245C401.46,261.129,421.324,280.981,421.324,305.258
		z"/>
</g>
<g>
	<path style="fill:#FFDA44;" d="M186.189,305.258v137.1c0,9.498-3.038,18.323-8.195,25.547c-2.036,0.289-4.134,0.444-6.252,0.444
		h-7.255c-24.266,0-44.129-19.863-44.129-44.129V287.11c0-9.498,3.038-18.313,8.195-25.537c2.046-0.289,4.134-0.444,6.263-0.444
		h7.245C166.336,261.129,186.189,280.981,186.189,305.258z"/>
	<path style="fill:#FFDA44;" d="M421.324,305.258v137.1c0,9.498-3.049,18.323-8.206,25.547c-2.046,0.289-4.134,0.444-6.252,0.444
		h-7.245c-24.276,0-44.129-19.863-44.129-44.129V287.11c0-9.498,3.038-18.313,8.185-25.537c2.046-0.289,4.134-0.444,6.263-0.444
		h7.245C401.46,261.129,421.324,280.981,421.324,305.258z"/>
</g>
<g>
</g>
<g>
</g>
<g>
</g>
<g>
</g>
<g>
</g>
<g>
</g>
<g>
</g>
<g>
</g>
<g>
</g>
<g>
</g>
<g>
</g>
<g>
</g>
<g>
</g>
<g>
</g>
<g>
</g>
</svg>
