<?xml version="1.0" encoding="iso-8859-1"?>
<!-- Generator: Adobe Illustrator 19.0.0, SVG Export Plug-In . SVG Version: 6.00 Build 0)  -->
<svg version="1.1" id="Capa_1" xmlns="http://www.w3.org/2000/svg" xmlns:xlink="http://www.w3.org/1999/xlink" x="0px" y="0px"
	 viewBox="0 0 512 512" style="enable-background:new 0 0 512 512;" xml:space="preserve">
<g>
	<path style="fill:#5AAAE7;" d="M467.295,46.125h-41.189c-4.162,0-7.535,3.372-7.535,7.535s3.372,7.535,7.535,7.535h41.189
		c16.342,0,29.636,13.294,29.636,29.636v301.132c0,2.216-1.802,4.018-4.018,4.018h-7.535c-4.162,0-7.535,3.372-7.535,7.535
		s3.372,7.535,7.535,7.535h7.535c10.525,0,19.088-8.562,19.088-19.088V90.83C512,66.18,491.945,46.125,467.295,46.125z"/>
	<path style="fill:#5AAAE7;" d="M85.894,46.125H44.705C20.054,46.125,0,66.18,0,90.83v301.132c0,10.525,8.562,19.088,19.088,19.088
		h7.535c4.161,0,7.535-3.372,7.535-7.535s-3.373-7.535-7.535-7.535h-7.535c-2.216,0-4.018-1.802-4.018-4.018V90.83
		c0-16.342,13.294-29.636,29.636-29.636h41.189c4.161,0,7.535-3.372,7.535-7.535S90.055,46.125,85.894,46.125z"/>
	<rect x="208.889" y="386.223" style="fill:#5AAAE7;" width="99.758" height="28.129"/>
</g>
<g>
	<path style="fill:#96C8EF;" d="M484.529,363.083v47.819c0,0.914-0.03,1.838-0.07,2.743c-1.437,28.973-25.587,52.23-54.892,52.23
		H318.607c-15.612,0-28.38-12.769-28.38-28.39v-74.401c0-15.612,12.769-28.38,28.38-28.38h137.541
		C471.76,334.703,484.529,347.472,484.529,363.083z"/>
	<path style="fill:#96C8EF;" d="M221.773,363.083v74.401c0,15.612-12.769,28.38-28.38,28.38H82.433
		c-26.24,0-48.352-18.646-53.717-43.349c-0.05-0.221-0.09-0.452-0.141-0.673c-0.553-2.672-0.894-5.405-1.035-8.198
		c-0.04-0.914-0.07-1.828-0.07-2.753v-47.809c0-15.612,12.769-28.38,28.38-28.38h137.541
		C209.004,334.703,221.773,347.472,221.773,363.083z"/>
</g>
<g>
	<path style="fill:#B3D8F4;" d="M484.529,363.083v47.819c0,0.914-0.03,1.838-0.07,2.743c-1.437,28.973-25.587,52.23-54.892,52.23
		h-83.483c-15.612,0-28.39-12.769-28.39-28.39v-74.401c0-15.612,12.779-28.38,28.39-28.38h110.065
		C471.76,334.703,484.529,347.472,484.529,363.083z"/>
	<path style="fill:#B3D8F4;" d="M221.773,363.083v74.401c0,15.612-12.769,28.38-28.38,28.38h-83.483
		c-26.24,0-48.352-18.646-53.717-43.349c-0.05-0.221-0.09-0.452-0.141-0.673c-0.553-2.672-0.894-5.405-1.035-8.198
		c-0.04-0.914-0.07-1.828-0.07-2.753v-47.809c0-15.612,12.769-28.38,28.38-28.38h110.065
		C209.004,334.703,221.773,347.472,221.773,363.083z"/>
</g>
<path style="fill:#FFA733;" d="M121.714,398.737c0,6.54-2.672,12.487-6.982,16.797c-4.31,4.31-10.247,6.982-16.787,6.982H28.717
	c-0.05-0.221-0.09-0.452-0.141-0.673c-0.553-2.672-0.894-5.405-1.035-8.198c-0.04-0.914-0.07-1.828-0.07-2.753v-35.935h70.473
	C111.015,374.958,121.714,385.657,121.714,398.737z"/>
<path style="fill:#5AAAE7;" d="M121.714,398.737c0,6.54-2.672,12.487-6.982,16.797c-4.31,4.31-10.247,6.982-16.787,6.982H66.802
	v-47.558h31.143C111.015,374.958,121.714,385.657,121.714,398.737z"/>
<circle style="fill:#1A6FB0;" cx="91.992" cy="399.815" r="7.283"/>
<g>
	<path style="fill:#D1E7F8;" d="M151.307,416.14l31.01-37.63c2.647-3.211,2.189-7.96-1.023-10.607s-7.96-2.189-10.607,1.024
		l-31.011,37.63c-2.646,3.211-2.189,7.96,1.023,10.607c1.403,1.156,3.1,1.72,4.788,1.72
		C147.661,418.884,149.817,417.948,151.307,416.14z"/>
	<path style="fill:#D1E7F8;" d="M192.917,397.886c-3.212-2.646-7.96-2.188-10.607,1.024l-31.011,37.63
		c-2.646,3.211-2.189,7.96,1.023,10.607c1.403,1.156,3.1,1.72,4.788,1.72c2.173,0,4.329-0.935,5.819-2.743l31.01-37.63
		C196.586,405.282,196.128,400.533,192.917,397.886z"/>
	<path style="fill:#D1E7F8;" d="M414.98,359.001c-3.209-2.646-7.959-2.19-10.607,1.024l-19.594,23.776
		c-2.646,3.211-2.188,7.96,1.024,10.607c1.402,1.156,3.1,1.72,4.788,1.72c2.172,0,4.329-0.935,5.819-2.743l19.594-23.776
		C418.649,366.397,418.19,361.648,414.98,359.001z"/>
	<path style="fill:#D1E7F8;" d="M458.381,370.707c-3.208-2.648-7.957-2.197-10.608,1.015L403.2,425.716
		c-2.649,3.209-2.195,7.958,1.015,10.608c1.403,1.158,3.103,1.724,4.793,1.724c2.17,0,4.325-0.933,5.815-2.739l44.574-53.994
		C462.044,378.105,461.59,373.357,458.381,370.707z"/>
	<path style="fill:#D1E7F8;" d="M376.937,367.01c-3.208-2.647-7.957-2.197-10.608,1.015l-44.574,53.994
		c-2.649,3.209-2.195,7.957,1.015,10.608c1.403,1.158,3.103,1.724,4.793,1.724c2.17,0,4.325-0.933,5.815-2.739l44.574-53.994
		C380.6,374.407,380.146,369.66,376.937,367.01z"/>
</g>
<path style="fill:#CC7400;" d="M56.052,421.843c-0.553-2.672-0.894-5.405-1.035-8.198c-0.04-0.914-0.07-1.828-0.07-2.753v-35.935
	H27.471v35.935c0,0.924,0.03,1.838,0.07,2.753c0.141,2.793,0.482,5.525,1.035,8.198c0.05,0.221,0.09,0.452,0.141,0.673h27.476
	C56.143,422.295,56.103,422.064,56.052,421.843z"/>
<g>
</g>
<g>
</g>
<g>
</g>
<g>
</g>
<g>
</g>
<g>
</g>
<g>
</g>
<g>
</g>
<g>
</g>
<g>
</g>
<g>
</g>
<g>
</g>
<g>
</g>
<g>
</g>
<g>
</g>
</svg>
