<?xml version="1.0" encoding="iso-8859-1"?>
<!-- Generator: Adobe Illustrator 19.0.0, SVG Export Plug-In . SVG Version: 6.00 Build 0)  -->
<svg version="1.1" id="Capa_1" xmlns="http://www.w3.org/2000/svg" xmlns:xlink="http://www.w3.org/1999/xlink" x="0px" y="0px"
	 viewBox="0 0 512 512" style="enable-background:new 0 0 512 512;" xml:space="preserve">
<g>
	<g>
		<path style="fill:#2D2D30;" d="M15.578,317.907C7.01,317.907,0,324.29,0,332.092v63.672c0,7.801,7.01,14.184,15.578,14.184h24.497
			v-92.04H15.578V317.907z"/>
		<path style="fill:#2D2D30;" d="M496.723,409.946c8.402,0,15.277-6.383,15.277-14.184v-63.672c0-7.801-6.874-14.184-15.277-14.184
			H472.7v92.04H496.723z"/>
	</g>
	<path style="fill:#3E3D42;" d="M452.095,472.622H59.82c-12.831,0-23.329-10.499-23.329-23.329V278.561
		c0-12.832,10.499-23.329,23.329-23.329h392.275c12.831,0,23.329,10.499,23.329,23.329v170.732
		C475.425,462.125,464.926,472.622,452.095,472.622z"/>
</g>
<path id="SVGCleanerId_0" style="fill:#787680;" d="M445.332,291.55v144.755c0,3.567-2.919,6.485-6.485,6.485h-116.28
	c-2.914,0-5.541-1.757-6.652-4.452l0,0c-2.761-6.713-6.828-10.595-11.113-10.595h-97.686c-4.285,0-8.353,3.88-11.113,10.595l0,0
	c-1.112,2.694-3.738,4.452-6.652,4.452H73.069c-3.567,0-6.485-2.919-6.485-6.485V291.55c0-3.567,2.919-6.485,6.485-6.485h365.778
	C442.413,285.065,445.332,287.982,445.332,291.55z"/>
<g>
	<path id="SVGCleanerId_0_1_" style="fill:#787680;" d="M445.332,291.55v144.755c0,3.567-2.919,6.485-6.485,6.485h-116.28
		c-2.914,0-5.541-1.757-6.652-4.452l0,0c-2.761-6.713-6.828-10.595-11.113-10.595h-97.686c-4.285,0-8.353,3.88-11.113,10.595l0,0
		c-1.112,2.694-3.738,4.452-6.652,4.452H73.069c-3.567,0-6.485-2.919-6.485-6.485V291.55c0-3.567,2.919-6.485,6.485-6.485h365.778
		C442.413,285.065,445.332,287.982,445.332,291.55z"/>
</g>
<g>
	<path style="fill:#C6C5CA;" d="M422.981,300.562H88.935c-3.785,0-6.855,3.068-6.855,6.855v113.022c0,3.785,3.068,6.855,6.855,6.855
		h91.446c2.214,0,4.324-1.05,5.578-2.874c5.38-7.828,12.791-12.171,21.156-12.171H304.8c8.369,0,15.782,4.345,21.159,12.17
		c1.254,1.826,3.363,2.875,5.578,2.875h91.443c3.785,0,6.855-3.068,6.855-6.855V307.415
		C429.835,303.63,426.767,300.562,422.981,300.562z"/>
	<path style="fill:#ACABB1;" d="M104.316,420.437V307.412c0-3.781,3.068-6.85,6.85-6.85H88.933c-3.781,0-6.85,3.068-6.85,6.85
		v113.025c0,3.781,3.068,6.86,6.85,6.86h22.233C107.385,427.298,104.316,424.219,104.316,420.437z"/>
</g>
<g>
	<path style="fill:#E0E0E2;" d="M189.582,327.482c-2.972-3.08-7.878-3.166-10.956-0.194l-42.304,40.829
		c-3.079,2.972-3.165,7.877-0.194,10.955c1.521,1.576,3.547,2.368,5.576,2.368c1.937,0,3.876-0.722,5.381-2.174l42.304-40.829
		C192.467,335.466,192.554,330.562,189.582,327.482z"/>
	<path style="fill:#E0E0E2;" d="M375.873,346.595c-2.971-3.081-7.878-3.166-10.956-0.194l-42.304,40.829
		c-3.079,2.972-3.165,7.877-0.194,10.955c1.521,1.576,3.547,2.368,5.576,2.368c1.937,0,3.876-0.722,5.381-2.174l42.304-40.829
		C378.758,354.579,378.844,349.675,375.873,346.595z"/>
	<path style="fill:#E0E0E2;" d="M354.715,305.22c-2.976-3.076-7.882-3.157-10.956-0.182l-88.212,85.338
		c-3.076,2.975-3.157,7.881-0.182,10.956c1.521,1.571,3.544,2.361,5.571,2.361c1.939,0,3.883-0.724,5.387-2.179l88.212-85.338
		C357.609,313.202,357.691,308.297,354.715,305.22z"/>
	<path style="fill:#E0E0E2;" d="M141.704,417.927c-2.026,0-4.05-0.79-5.571-2.361c-2.975-3.077-2.894-7.982,0.182-10.956
		l88.212-85.338c3.076-2.975,7.981-2.894,10.956,0.182c2.975,3.077,2.894,7.982-0.182,10.956l-88.212,85.338
		C145.587,417.203,143.643,417.927,141.704,417.927z"/>
</g>
<path style="fill:#C70024;" d="M358.694,142.07c0,36.149-18.669,67.928-46.904,86.225c-4.246,2.758-7.8,6.467-10.3,10.879
	l-33.401,59.002l-3.482,6.147c-3.781,6.695-13.431,6.695-17.212,0l-36.883-65.16c-2.49-4.401-6.033-8.1-10.28-10.858
	c-28.638-18.555-47.452-50.975-46.914-87.754c0.796-55.283,45.923-100.4,101.216-101.164c4.597-0.062,9.123,0.176,13.555,0.703
	C319.104,46.061,358.694,89.454,358.694,142.07z"/>
<path style="fill:#FF0C38;" d="M358.694,142.07c0,36.149-18.669,67.928-46.904,86.225c-4.246,2.758-7.8,6.467-10.3,10.879
	l-33.401,59.002l-33.401-59.012c-2.49-4.401-6.033-8.1-10.28-10.858c-28.628-18.555-47.441-50.975-46.914-87.754
	c0.744-51.698,40.261-94.5,90.595-100.462C319.104,46.061,358.694,89.454,358.694,142.07z"/>
<path style="fill:#2D2D30;" d="M334.518,142.328c0,39.249-28.804,71.772-66.43,77.588c-3.936,0.61-7.976,0.93-12.088,0.93
	c-43.361,0-78.518-35.157-78.518-78.518c0-43.371,35.157-78.518,78.518-78.518c4.112,0,8.151,0.32,12.088,0.93
	C305.715,70.546,334.518,103.069,334.518,142.328z"/>
<path style="fill:#3E3D42;" d="M334.518,142.328c0,39.249-28.804,71.772-66.43,77.588c-37.627-5.817-66.43-38.339-66.43-77.588
	c0-39.259,28.804-71.782,66.43-77.588C305.715,70.546,334.518,103.069,334.518,142.328z"/>
<path style="fill:#78B9EB;" d="M292.811,160.714c-2.116,0-4.231-0.807-5.844-2.421c-8.271-8.272-19.269-12.827-30.967-12.827
	c-11.697,0-22.695,4.555-30.967,12.827c-3.227,3.226-8.46,3.226-11.688,0c-3.229-3.227-3.229-8.46,0-11.689
	c11.393-11.393,26.542-17.669,42.655-17.669s31.262,6.274,42.655,17.669c3.229,3.229,3.229,8.461,0,11.689
	C297.042,159.907,294.926,160.714,292.811,160.714z"/>
<path style="fill:#B3D8F4;" d="M278.048,179.274c-2.116,0-4.231-0.807-5.844-2.421c-4.328-4.328-10.082-6.712-16.203-6.712
	c-6.12,0-11.875,2.384-16.203,6.712c-3.227,3.226-8.46,3.226-11.688,0c-3.229-3.227-3.229-8.46,0-11.688
	c7.45-7.451,17.355-11.555,27.891-11.555c10.536,0,20.442,4.104,27.891,11.555c3.229,3.227,3.229,8.46,0,11.688
	C282.277,178.467,280.162,179.274,278.048,179.274z"/>
<path style="fill:#3D9AE2;" d="M307.059,146.395c-2.287,0-4.564-0.944-6.198-2.794c-11.879-13.449-27.664-21.142-44.449-21.663
	c-16.867-0.525-33.082,6.094-45.622,18.635c-3.227,3.227-8.46,3.226-11.688,0c-3.229-3.229-3.229-8.461,0-11.689
	c15.8-15.799,36.335-24.117,57.822-23.468c21.393,0.663,41.397,10.338,56.327,27.242c3.022,3.422,2.698,8.644-0.723,11.666
	C310.955,145.713,309.002,146.395,307.059,146.395z"/>
<g>
</g>
<g>
</g>
<g>
</g>
<g>
</g>
<g>
</g>
<g>
</g>
<g>
</g>
<g>
</g>
<g>
</g>
<g>
</g>
<g>
</g>
<g>
</g>
<g>
</g>
<g>
</g>
<g>
</g>
</svg>
