<?xml version="1.0" encoding="iso-8859-1"?>
<!-- Generator: Adobe Illustrator 19.0.0, SVG Export Plug-In . SVG Version: 6.00 Build 0)  -->
<svg version="1.1" id="Capa_1" xmlns="http://www.w3.org/2000/svg" xmlns:xlink="http://www.w3.org/1999/xlink" x="0px" y="0px"
	 viewBox="0 0 512 512" style="enable-background:new 0 0 512 512;" xml:space="preserve">
<path style="fill:#1E81CE;" d="M436.762,138.841H77.035l25.858-28.424c7.005-6.695,17.332-10.565,28.207-10.565h247.82
	c10.875,0,21.202,3.87,28.207,10.565L436.762,138.841z"/>
<path style="fill:#3D9AE2;" d="M436.762,138.841H108.594l25.858-28.424c7.005-6.695,17.322-10.565,28.207-10.565H378.92
	c10.875,0,21.202,3.87,28.207,10.565L436.762,138.841z"/>
<path style="fill:#FFC477;" d="M360.036,5.95v194.79H149.984V5.95c0-3.29,2.659-5.95,5.95-5.95h198.153
	C357.377,0,360.036,2.659,360.036,5.95z"/>
<path style="fill:#FFDAAA;" d="M360.036,3.175v103.921H198.18c-9.194,0-16.647-7.453-16.647-16.647V3.175
	c0-1.756,2.67-3.175,5.95-3.175h166.604C357.377,0,360.036,1.419,360.036,3.175z"/>
<g>
	<path style="fill:#96C8EF;" d="M511.823,154.176v209.907c0,9.52-7.709,17.228-17.218,17.228H17.403
		c-9.509,0-17.228-7.709-17.228-17.228V154.176c0-9.509,7.719-17.228,17.228-17.228h477.202
		C504.114,136.948,511.823,144.667,511.823,154.176z"/>
	<path style="fill:#B3D8F4;" d="M511.823,154.176v209.907c0,9.52-7.709,17.228-17.218,17.228H49.873
		c-9.509,0-17.228-7.709-17.228-17.228V154.176c0-9.509,7.719-17.228,17.228-17.228h444.731
		C504.114,136.948,511.823,144.667,511.823,154.176z"/>
	<circle style="fill:#FF0C38;" cx="427.266" cy="178.42" r="8.07"/>
	<circle style="fill:#5EAC24;" cx="451.83" cy="178.42" r="8.07"/>
	<circle style="fill:#1A6FB0;" cx="476.385" cy="178.42" r="8.07"/>
</g>
<rect x="0.177" y="329.751" style="fill:#5AAAE7;" width="511.648" height="15.521"/>
<path style="fill:#FFC477;" d="M377.627,285.392v217.658c0,4.946-4.015,8.951-8.961,8.951H141.354c-4.946,0-8.961-4.004-8.961-8.951
	V285.392H377.627z"/>
<path style="fill:#B3D8F4;" d="M464.784,91.263c-1.986,0-3.972-0.757-5.487-2.272c-6.768-6.77-17.784-6.769-24.553,0
	c-3.031,3.031-7.945,3.03-10.974-0.001c-3.031-3.031-3.031-7.945,0-10.974c12.823-12.82,33.684-12.819,46.503,0
	c3.031,3.032,3.031,7.945,0,10.975C468.757,90.506,466.771,91.263,464.784,91.263z"/>
<path style="fill:#78B9EB;" d="M482.171,73.876c-1.986,0-3.972-0.757-5.487-2.272c-16.356-16.359-42.97-16.356-59.326,0
	c-3.031,3.03-7.945,3.031-10.974-0.001c-3.031-3.031-3.031-7.944,0-10.974c22.408-22.407,58.868-22.405,81.276,0
	c3.031,3.032,3.031,7.945,0,10.975C486.143,73.119,484.157,73.876,482.171,73.876z"/>
<g>
	<path style="fill:#3D9AE2;" d="M498.046,58.002c-1.986,0-3.972-0.757-5.487-2.272c-25.109-25.11-65.965-25.111-91.076,0
		c-3.031,3.031-7.945,3.029-10.974,0c-3.031-3.032-3.031-7.945,0-10.975c31.161-31.158,81.865-31.159,113.026,0
		c3.031,3.032,3.031,7.945,0,10.975C502.018,57.244,500.032,58.002,498.046,58.002z"/>
	<path style="fill:#3D9AE2;" d="M91.521,175.813v3.29c0,5.463-3.601,10.12-8.547,11.724c-1.19,0.393-2.463,0.6-3.777,0.6H55.212
		c-6.778,0-12.324-5.546-12.324-12.324v-3.29c0-6.778,5.546-12.324,12.324-12.324h23.985c1.314,0,2.587,0.207,3.777,0.6
		C87.92,165.693,91.521,170.349,91.521,175.813z"/>
</g>
<path style="fill:#FFDAAA;" d="M377.627,285.392v217.658c0,4.946-4.015,8.951-8.961,8.951H165.66c-4.946,0-8.961-4.004-8.961-8.951
	V285.392H377.627z"/>
<g>
	<path style="fill:#5AAAE7;" d="M91.521,175.813v3.29c0,5.463-3.601,10.12-8.547,11.724c-4.936-1.604-8.537-6.271-8.537-11.724
		v-3.29c0-5.453,3.601-10.12,8.537-11.724C87.92,165.693,91.521,170.349,91.521,175.813z"/>
	<path style="fill:#5AAAE7;" d="M249.909,459.309h-83.017c-4.286,0-7.761,3.474-7.761,7.761c0,4.287,3.475,7.761,7.761,7.761h83.017
		c4.286,0,7.761-3.474,7.761-7.761C257.67,462.783,254.195,459.309,249.909,459.309z"/>
	<path style="fill:#5AAAE7;" d="M249.909,420.739h-83.017c-4.286,0-7.761,3.474-7.761,7.761c0,4.287,3.475,7.761,7.761,7.761h83.017
		c4.286,0,7.761-3.474,7.761-7.761C257.67,424.213,254.195,420.739,249.909,420.739z"/>
	<path style="fill:#5AAAE7;" d="M249.909,385.679h-83.017c-4.286,0-7.761,3.474-7.761,7.761s3.475,7.761,7.761,7.761h83.017
		c4.286,0,7.761-3.474,7.761-7.761S254.195,385.679,249.909,385.679z"/>
	<path style="fill:#5AAAE7;" d="M343.129,349.469h-46.896c-4.286,0-7.761,3.474-7.761,7.761c0,4.287,3.475,7.761,7.761,7.761h46.895
		c4.286,0,7.761-3.474,7.761-7.761C350.889,352.943,347.416,349.469,343.129,349.469z"/>
	<path style="fill:#5AAAE7;" d="M265.191,349.469h-98.3c-4.286,0-7.761,3.474-7.761,7.761c0,4.287,3.475,7.761,7.761,7.761h98.3
		c4.286,0,7.761-3.474,7.761-7.761C272.952,352.943,269.477,349.469,265.191,349.469z"/>
	<path style="fill:#5AAAE7;" d="M227.238,328.772h115.891c4.286,0,7.761-3.474,7.761-7.761s-3.475-7.761-7.761-7.761H227.238
		c-4.286,0-7.761,3.474-7.761,7.761S222.952,328.772,227.238,328.772z"/>
	<path style="fill:#5AAAE7;" d="M166.891,328.772h29.305c4.286,0,7.761-3.474,7.761-7.761s-3.475-7.761-7.761-7.761h-29.305
		c-4.286,0-7.761,3.474-7.761,7.761S162.605,328.772,166.891,328.772z"/>
</g>
<path style="fill:#1E81CE;" d="M342.094,397.185v66.803c0,2.463-1.997,4.46-4.46,4.46h-59.829c-2.463,0-4.46-1.997-4.46-4.46
	v-66.803c0-2.463,1.997-4.46,4.46-4.46h59.829C340.097,392.725,342.094,394.722,342.094,397.185z"/>
<path style="fill:#5AAAE7;" d="M342.094,397.185v66.803c0,2.463-1.997,4.46-4.46,4.46h-34.043c-2.463,0-4.46-1.997-4.46-4.46
	v-66.803c0-2.463,1.997-4.46,4.46-4.46h34.043C340.097,392.725,342.094,394.722,342.094,397.185z"/>
<g>
	<path style="fill:#1E81CE;" d="M418.93,277.634H91.09c-4.286,0-7.761,3.474-7.761,7.761c0,4.287,3.475,7.761,7.761,7.761h327.84
		c4.286,0,7.761-3.474,7.761-7.761C426.69,281.108,423.216,277.634,418.93,277.634z"/>
	<rect x="0.174" y="329.751" style="fill:#1E81CE;" width="32.47" height="15.521"/>
</g>
<g>
</g>
<g>
</g>
<g>
</g>
<g>
</g>
<g>
</g>
<g>
</g>
<g>
</g>
<g>
</g>
<g>
</g>
<g>
</g>
<g>
</g>
<g>
</g>
<g>
</g>
<g>
</g>
<g>
</g>
</svg>
