<?xml version="1.0" encoding="iso-8859-1"?>
<!-- Generator: Adobe Illustrator 19.0.0, SVG Export Plug-In . SVG Version: 6.00 Build 0)  -->
<svg version="1.1" id="Capa_1" xmlns="http://www.w3.org/2000/svg" xmlns:xlink="http://www.w3.org/1999/xlink" x="0px" y="0px"
	 viewBox="0 0 512 512" style="enable-background:new 0 0 512 512;" xml:space="preserve">
<path style="fill:#1D1D1F;" d="M402.366,274.252c0,84.135-64.251,153.265-146.357,161.013c-5.063,0.471-10.188,0.717-15.374,0.717
	c-89.321,0-161.73-72.41-161.73-161.73s72.41-161.73,161.73-161.73c5.186,0,10.311,0.246,15.374,0.717
	C338.115,120.987,402.366,190.117,402.366,274.252z"/>
<path style="fill:#3E3D42;" d="M402.366,274.252c0,84.135-64.251,153.265-146.357,161.013
	c-82.105-7.748-146.357-76.878-146.357-161.013s64.251-153.265,146.357-161.013C338.115,120.987,402.366,190.117,402.366,274.252z"
	/>
<path style="fill:#ACABB1;" d="M320.127,211.548c0,8.189-4.048,15.425-10.259,19.811c-3.956,2.808-8.794,4.458-14.011,4.458
	c-13.416,0-24.28-10.864-24.28-24.27c0-13.406,10.864-24.28,24.28-24.28c5.217,0,10.054,1.65,14.011,4.458
	C316.079,196.123,320.127,203.359,320.127,211.548z"/>
<path style="fill:#E0E0E2;" d="M320.127,211.548c0,8.189-4.048,15.425-10.259,19.811c-6.221-4.376-10.28-11.622-10.28-19.811
	c0-8.189,4.059-15.435,10.28-19.822C316.079,196.123,320.127,203.359,320.127,211.548z"/>
<path style="fill:#C6C5CA;" d="M415.977,416.786c0,14.051-5.75,26.812-15.005,36.067c-9.265,9.265-22.036,15.005-36.077,15.005
	H113.311c-28.093,0-51.071-22.978-51.071-51.071c0-14.051,5.739-26.812,15.005-36.066c9.255-9.265,22.015-15.005,36.067-15.005
	h251.584C392.988,365.715,415.977,388.693,415.977,416.786z"/>
<path style="fill:#B3D8F4;" d="M399.038,158.533c-4.246,0-7.687-3.441-7.687-7.687c0-25.736-20.939-46.675-46.675-46.675
	c-4.246,0-7.687-3.441-7.687-7.687s3.441-7.687,7.687-7.687c34.215,0,62.049,27.834,62.049,62.049
	C406.725,155.091,403.283,158.533,399.038,158.533z"/>
<path style="fill:#3D9AE2;" d="M487.835,158.533c-4.246,0-7.687-3.441-7.687-7.687c0-74.699-60.773-135.472-135.472-135.472
	c-4.246,0-7.687-3.441-7.687-7.687S340.43,0,344.676,0c83.176,0,150.846,67.669,150.846,150.846
	C495.522,155.091,492.08,158.533,487.835,158.533z"/>
<path style="fill:#78B9EB;" d="M445.108,158.533c-4.246,0-7.687-3.441-7.687-7.687c0-51.139-41.605-92.744-92.745-92.744
	c-4.246,0-7.687-3.441-7.687-7.687s3.441-7.687,7.687-7.687c59.617,0,108.119,48.501,108.119,108.118
	C452.795,155.091,449.354,158.533,445.108,158.533z"/>
<path style="fill:#787680;" d="M464.793,463.758c0,13.262-5.422,25.325-14.174,34.068C441.887,506.578,429.823,512,416.561,512
	H64.71c-26.525,0-48.232-21.708-48.232-48.242c0-13.262,5.422-25.315,14.174-34.068c8.732-8.732,20.795-14.164,34.058-14.164
	h351.851C443.086,415.525,464.793,437.233,464.793,463.758z"/>
<path style="fill:#E0E0E2;" d="M415.977,416.786c0,14.051-5.75,26.812-15.005,36.067c-9.265,9.265-22.036,15.005-36.077,15.005
	H159.77c-28.082,0-51.071-22.978-51.071-51.071c0-14.051,5.75-26.812,15.005-36.066c9.255-9.265,22.025-15.005,36.067-15.005
	h205.125C392.988,365.715,415.977,388.693,415.977,416.786z"/>
<path style="fill:#898890;" d="M464.793,463.758c0,13.262-5.422,25.325-14.174,34.068C441.887,506.578,429.823,512,416.561,512
	H111.179c-26.535,0-48.242-21.708-48.242-48.242c0-13.262,5.432-25.315,14.174-34.068c8.742-8.732,20.795-14.164,34.068-14.164
	h305.382C443.086,415.525,464.793,437.233,464.793,463.758z"/>
<circle style="fill:#2D2D30;" cx="240.638" cy="274.255" r="57.38"/>
<path style="fill:#3E3D42;" d="M240.635,235.322c-21.467,0-38.932,17.464-38.932,38.931s17.465,38.932,38.932,38.932
	s38.931-17.465,38.931-38.932S262.101,235.322,240.635,235.322z"/>
<circle style="fill:#1D1D1F;" cx="240.638" cy="274.255" r="19.862"/>
<g>
</g>
<g>
</g>
<g>
</g>
<g>
</g>
<g>
</g>
<g>
</g>
<g>
</g>
<g>
</g>
<g>
</g>
<g>
</g>
<g>
</g>
<g>
</g>
<g>
</g>
<g>
</g>
<g>
</g>
</svg>
