<?xml version="1.0" encoding="iso-8859-1"?>
<!-- Generator: Adobe Illustrator 19.0.0, SVG Export Plug-In . SVG Version: 6.00 Build 0)  -->
<svg version="1.1" id="Capa_1" xmlns="http://www.w3.org/2000/svg" xmlns:xlink="http://www.w3.org/1999/xlink" x="0px" y="0px"
	 viewBox="0 0 512 512" style="enable-background:new 0 0 512 512;" xml:space="preserve">
<path style="fill:#57565C;" d="M151.887,65.107v101.031H68.125V65.107c0-7.814,6.398-14.212,14.212-14.212h55.339
	C145.49,50.896,151.887,57.293,151.887,65.107z"/>
<path style="fill:#FFCD00;" d="M191.487,263.023c-0.051,48.544-33.273,75.246-69.704,79.983
	c-44.265,5.766-93.258-20.854-93.258-80.054c0-52.079,39.599-54.422,39.599-107.092v-0.01h83.763v0.54
	C151.887,208.254,191.528,211.005,191.487,263.023z"/>
<path style="fill:#898890;" d="M151.887,65.107v101.031H91.892V65.107c0-7.814,6.398-14.212,14.212-14.212h31.571
	C145.49,50.896,151.887,57.293,151.887,65.107z"/>
<path style="fill:#FFDA44;" d="M191.487,263.023c-0.051,48.544-33.273,75.246-69.704,79.983c-36.37-4.737-69.49-31.388-69.49-80.054
	c0-52.079,39.599-54.422,39.599-107.092v-0.01h59.995v0.54C151.887,208.254,191.528,211.005,191.487,263.023z"/>
<path style="fill:#FFCD00;" d="M111.363,402.732c-4.221,0-7.641-3.42-7.641-7.641v-22.065c0-4.221,3.42-7.641,7.641-7.641
	s7.641,3.42,7.641,7.641v22.065C119.004,399.312,115.584,402.732,111.363,402.732z"/>
<path style="fill:#FFDA44;" d="M150.152,395.675c-3.191,0-6.167-2.014-7.24-5.205l-7.039-20.911c-1.346-4,0.805-8.333,4.804-9.679
	c4-1.344,8.333,0.805,9.679,4.804l7.039,20.911c1.346,4-0.805,8.333-4.804,9.679C151.784,395.545,150.96,395.675,150.152,395.675z"
	/>
<g>
	<path style="fill:#FFCD00;" d="M185.44,375.27c-2.244,0-4.467-0.984-5.976-2.873l-13.767-17.244
		c-2.632-3.298-2.094-8.106,1.204-10.739c3.298-2.635,8.105-2.093,10.739,1.204l13.767,17.244c2.632,3.298,2.094,8.106-1.204,10.739
		C188.795,374.725,187.112,375.27,185.44,375.27z"/>
	<path style="fill:#FFCD00;" d="M34.568,375.374c-1.795,0-3.597-0.629-5.05-1.909c-3.164-2.79-3.469-7.619-0.678-10.785
		l14.591-16.551c2.79-3.163,7.619-3.469,10.785-0.678c3.164,2.79,3.469,7.619,0.678,10.785l-14.591,16.551
		C38.792,374.498,36.685,375.374,34.568,375.374z"/>
</g>
<path style="fill:#FFDA44;" d="M69.878,395.73c-0.927,0-1.87-0.17-2.785-0.529c-3.928-1.54-5.866-5.973-4.327-9.902l8.05-20.544
	c1.539-3.928,5.974-5.864,9.902-4.327c3.928,1.54,5.866,5.973,4.327,9.902l-8.05,20.544C75.813,393.889,72.93,395.73,69.878,395.73z
	"/>
<g>
	<path style="fill:#2D2D30;" d="M151.887,115.72v15.281h-39.762c-4.218,0-7.641-3.423-7.641-7.641c0-4.228,3.423-7.641,7.641-7.641
		H151.887z"/>
	<path style="fill:#2D2D30;" d="M89.203,123.36c0,4.218-3.423,7.641-7.641,7.641H68.125V115.72h13.438
		C85.78,115.72,89.203,119.132,89.203,123.36z"/>
</g>
<path style="fill:#B3D8F4;" d="M432.629,140.82c-4.221,0-7.641-3.42-7.641-7.641c0-20.001-16.273-36.273-36.273-36.273
	c-4.221,0-7.641-3.42-7.641-7.641s3.42-7.641,7.641-7.641c28.428,0,51.555,23.127,51.555,51.555
	C440.27,137.4,436.849,140.82,432.629,140.82z"/>
<path style="fill:#3D9AE2;" d="M504.359,140.82c-4.221,0-7.641-3.42-7.641-7.641c0-59.554-48.45-108.004-108.004-108.004
	c-4.221,0-7.641-3.42-7.641-7.641s3.42-7.641,7.641-7.641C456.694,9.893,512,65.199,512,133.179
	C512,137.4,508.579,140.82,504.359,140.82z"/>
<path style="fill:#78B9EB;" d="M469.844,140.82c-4.221,0-7.641-3.42-7.641-7.641c0-40.521-32.966-73.489-73.488-73.489
	c-4.221,0-7.641-3.42-7.641-7.641s3.42-7.641,7.641-7.641c48.947,0,88.77,39.822,88.77,88.77
	C477.484,137.4,474.064,140.82,469.844,140.82z"/>
<path style="fill:#2D2D30;" d="M400.567,175.538v303.85c0,15.609-12.773,28.383-28.383,28.383H237.931
	c-15.609,0-28.383-12.773-28.383-28.383v-303.85c0-15.609,12.773-28.383,28.383-28.383h134.253
	C387.792,147.156,400.567,159.929,400.567,175.538z"/>
<path style="fill:#57565C;" d="M400.567,175.538v303.85c0,15.609-12.773,28.383-28.383,28.383H259.315
	c-15.61,0-28.383-12.773-28.383-28.383v-303.85c0-15.609,12.773-28.383,28.383-28.383h112.869
	C387.792,147.156,400.567,159.929,400.567,175.538z"/>
<rect x="209.549" y="202.795" style="fill:#D1E7F8;" width="191.018" height="249.332"/>
<rect x="209.549" y="202.795" style="fill:#B3D8F4;" width="21.384" height="249.332"/>
<g>
	<path style="fill:#1D1D1F;" d="M304.152,182.56h-30.114c-4.501,0-8.15-3.649-8.15-8.15s3.649-8.15,8.15-8.15h30.114
		c4.501,0,8.15,3.649,8.15,8.15S308.654,182.56,304.152,182.56z"/>
	<circle style="fill:#1D1D1F;" cx="329.651" cy="174.413" r="6.071"/>
	<path style="fill:#1D1D1F;" d="M327.102,488.046h-44.443c-4.22,0-7.641-3.42-7.641-7.641c0-4.221,3.421-7.641,7.641-7.641h44.443
		c4.22,0,7.641,3.42,7.641,7.641C334.742,484.626,331.321,488.046,327.102,488.046z"/>
</g>
<g>
	<path style="fill:#3D9AE2;" d="M331.853,270.465c-3.814-1.797-8.37-0.161-10.167,3.657c-1.797,3.818-0.16,8.37,3.657,10.167
		c16.788,7.906,27.635,24.995,27.635,43.541c0,24.647-18.451,45.207-42.917,47.823c-0.915,0.098-1.776,0.354-2.557,0.738
		c-0.818-0.299-1.701-0.463-2.623-0.463c-26.52,0-48.097-21.576-48.097-48.098c0-16.904,8.626-32.263,23.074-41.085
		c3.602-2.2,4.738-6.901,2.54-10.503c-2.199-3.601-6.901-4.74-10.503-2.54c-19.032,11.62-30.393,31.855-30.393,54.128
		c0,34.948,28.432,63.379,63.378,63.379c1.209,0,2.352-0.28,3.369-0.781c1.065,0.39,2.233,0.548,3.435,0.419
		c32.253-3.448,56.574-30.539,56.574-63.017C368.26,303.395,353.969,280.878,331.853,270.465z"/>
	<path style="fill:#3D9AE2;" d="M304.88,330.987c4.22,0,7.641-3.42,7.641-7.641v-69.192c0-4.221-3.421-7.641-7.641-7.641
		c-4.22,0-7.641,3.42-7.641,7.641v69.192C297.24,327.567,300.661,330.987,304.88,330.987z"/>
</g>
<path style="fill:#FFA733;" d="M482.262,443.377l-60.851,26.527c-7.269,3.17-15.815-0.187-18.986-7.456l-5.249-12.041
	c-0.511-1.168-1.508-2.045-2.735-2.394l-41.763-11.896c-8.521-2.429-13.771-11.47-11.231-19.957
	c2.488-8.292,11.248-13.115,19.591-10.737l10.192,2.753c2.837,0.767,5.377-1.457,5.377-4.09c0-0.562-0.119-1.142-0.367-1.713
	c-0.137-0.298-0.256-0.605-0.367-0.912c-0.145-0.289-0.289-0.588-0.426-0.886l-29.731-68.188c-3.452-7.925,0.06-17.213,7.806-20.911
	c0.554-0.264,1.125-0.502,1.722-0.707c7.968-2.727,16.676,1.363,20.042,9.083l28.146,64.549l44.635-19.462
	c7.269-3.17,15.807,0.187,18.978,7.456l21.338,48.929l1.338,3.067C492.88,431.669,489.531,440.207,482.262,443.377z"/>
<path style="fill:#1A6FB0;" d="M499.969,479.278l-51.145,22.301l-14.981,6.535c-4.686,2.036-10.132-0.102-12.177-4.78l-8.615-19.769
	c-2.403-5.522,0.137-11.998,5.658-14.401l15.364-6.707l47.652-20.775c5.522-2.403,11.998,0.145,14.401,5.658l8.624,19.769
	C506.787,471.788,504.649,477.241,499.969,479.278z"/>
<path style="fill:#3D9AE2;" d="M499.969,479.278l-51.145,22.301c-2.863-0.767-5.36-2.778-6.638-5.709l-9.416-21.602
	c-1.747-4.005-1.099-8.487,1.304-11.811l47.652-20.775c5.522-2.403,11.998,0.145,14.401,5.658l8.624,19.769
	C506.787,471.788,504.649,477.241,499.969,479.278z"/>
<path style="fill:#FFC477;" d="M488.381,421.324l-59.146,26.331c-7.115,3.161-15.45-0.043-18.593-7.158l-57.119-129.022
	c0.554-0.264,1.125-0.502,1.722-0.707c7.968-2.727,16.676,1.363,20.042,9.083l28.146,64.549l44.635-19.462
	c7.269-3.17,15.807,0.187,18.978,7.456L488.381,421.324z"/>
<path style="fill:#1D1D1F;" d="M220.012,25.6c0,35.321-28.637,63.948-63.948,63.948H63.948c-17.655,0-33.64-7.152-45.213-18.725
	S0,43.255,0,25.6C0,13.181,10.065,3.116,22.484,3.116h175.044c6.204,0,11.828,2.516,15.903,6.581
	C217.496,13.772,220.012,19.395,220.012,25.6z"/>
<path style="fill:#2D2D30;" d="M220.012,25.6c0,35.321-28.637,63.948-63.948,63.948H95.193c-17.665,0-33.65-7.152-45.223-18.725
	C38.407,59.25,31.245,43.255,31.245,25.6c0-12.419,10.065-22.484,22.484-22.484h143.798c6.204,0,11.828,2.516,15.903,6.581
	C217.496,13.772,220.012,19.395,220.012,25.6z"/>
<g>
</g>
<g>
</g>
<g>
</g>
<g>
</g>
<g>
</g>
<g>
</g>
<g>
</g>
<g>
</g>
<g>
</g>
<g>
</g>
<g>
</g>
<g>
</g>
<g>
</g>
<g>
</g>
<g>
</g>
</svg>
