<?xml version="1.0" encoding="iso-8859-1"?>
<!-- Generator: Adobe Illustrator 19.0.0, SVG Export Plug-In . SVG Version: 6.00 Build 0)  -->
<svg version="1.1" id="Capa_1" xmlns="http://www.w3.org/2000/svg" xmlns:xlink="http://www.w3.org/1999/xlink" x="0px" y="0px"
	 viewBox="0 0 512 512" style="enable-background:new 0 0 512 512;" xml:space="preserve">
<path style="fill:#EE8700;" d="M117.618,69.486v118.8h97.291c9.068,0,16.42-7.121,16.42-15.905V69.486H117.618z"/>
<path style="fill:#FF9811;" d="M120.971,69.493v118.795H32.357c-8.786,0-15.9-7.114-15.9-15.911V69.493l52.247-52.268l6.554,6.554
	L120.971,69.493z"/>
<path style="fill:#B3D8F4;" d="M461.838,169.053c-4.223,0-7.644-3.422-7.644-7.644c0-10.138-8.248-18.385-18.384-18.385
	c-4.223,0-7.644-3.422-7.644-7.644s3.422-7.644,7.644-7.644c18.568,0,33.673,15.106,33.673,33.674
	C469.482,165.631,466.06,169.053,461.838,169.053z"/>
<path style="fill:#3D9AE2;" d="M504.356,169.053c-4.223,0-7.644-3.422-7.644-7.644c0-33.582-27.321-60.903-60.903-60.903
	c-4.223,0-7.644-3.422-7.644-7.644s3.422-7.644,7.644-7.644c42.013,0,76.192,34.179,76.192,76.192
	C512,165.631,508.578,169.053,504.356,169.053z"/>
<path style="fill:#78B9EB;" d="M483.897,169.053c-4.223,0-7.644-3.422-7.644-7.644c0-22.301-18.143-40.444-40.444-40.444
	c-4.223,0-7.644-3.422-7.644-7.644s3.422-7.644,7.644-7.644c30.731,0,55.733,25.001,55.733,55.733
	C491.542,165.631,488.119,169.053,483.897,169.053z"/>
<path style="fill:#2D2D30;" d="M437.244,181.245v298.398c0,15.33-12.544,27.874-27.874,27.874H277.526
	c-15.33,0-27.874-12.544-27.874-27.874V181.245c0-15.33,12.544-27.874,27.874-27.874h131.843
	C424.699,153.371,437.244,165.915,437.244,181.245z"/>
<path style="fill:#57565C;" d="M437.244,181.245v298.398c0,15.33-12.544,27.874-27.874,27.874H298.527
	c-15.33,0-27.874-12.544-27.874-27.874V181.245c0-15.33,12.544-27.874,27.874-27.874H409.37
	C424.699,153.371,437.244,165.915,437.244,181.245z"/>
<rect x="249.658" y="208.021" style="fill:#D1E7F8;" width="187.594" height="244.856"/>
<rect x="249.658" y="208.021" style="fill:#B3D8F4;" width="21" height="244.856"/>
<g>
	<path style="fill:#1D1D1F;" d="M342.56,188.139h-29.574c-4.421,0-8.004-3.584-8.004-8.004c0-4.421,3.584-8.004,8.004-8.004h29.574
		c4.421,0,8.004,3.584,8.004,8.004C350.563,184.555,346.981,188.139,342.56,188.139z"/>
	<circle style="fill:#1D1D1F;" cx="367.596" cy="180.134" r="5.963"/>
	<path style="fill:#1D1D1F;" d="M365.098,488.145h-43.645c-4.144,0-7.504-3.359-7.504-7.504s3.359-7.504,7.504-7.504h43.645
		c4.144,0,7.504,3.359,7.504,7.504C372.601,484.785,369.241,488.145,365.098,488.145z"/>
</g>
<path style="fill:#FFA733;" d="M470.916,429.214l-72.955,31.804c-8.715,3.801-18.961-0.225-22.762-8.939l-6.293-14.436
	c-0.613-1.399-1.808-2.452-3.279-2.871l-50.071-14.262c-10.216-2.912-16.51-13.752-13.465-23.927
	c2.983-9.941,13.486-15.723,23.488-12.873l12.219,3.3c3.402,0.919,6.447-1.747,6.447-4.904c0-0.675-0.143-1.369-0.439-2.054
	c-0.163-0.358-0.307-0.726-0.439-1.094c-0.173-0.348-0.348-0.705-0.511-1.062l-35.646-81.752
	c-4.138-9.502,0.071-20.637,9.358-25.072c0.665-0.317,1.348-0.602,2.064-0.848c9.552-3.269,19.994,1.635,24.029,10.891
	l33.745,77.389l53.514-23.334c8.715-3.801,18.951,0.224,22.752,8.94l25.582,58.662l1.604,3.677
	C483.647,415.177,479.631,425.413,470.916,429.214z"/>
<path style="fill:#1A6FB0;" d="M492.146,472.256l-61.32,26.736l-17.96,7.836c-5.619,2.442-12.148-0.122-14.6-5.731l-10.329-23.702
	c-2.881-6.62,0.163-14.385,6.784-17.266l18.42-8.04l57.13-24.908c6.62-2.881,14.385,0.173,17.266,6.783l10.339,23.702
	C500.32,463.276,497.755,469.814,492.146,472.256z"/>
<path style="fill:#3D9AE2;" d="M492.146,472.256l-61.32,26.736c-3.433-0.919-6.426-3.331-7.958-6.845l-11.289-25.898
	c-2.095-4.802-1.318-10.175,1.564-14.16l57.13-24.908c6.62-2.881,14.385,0.173,17.266,6.783l10.339,23.702
	C500.32,463.276,497.755,469.814,492.146,472.256z"/>
<path style="fill:#FFC477;" d="M478.252,402.775l-70.913,31.568c-8.531,3.791-18.522-0.051-22.292-8.582l-68.481-154.688
	c0.665-0.317,1.348-0.602,2.064-0.848c9.553-3.269,19.994,1.635,24.029,10.891l33.745,77.389l53.514-23.334
	c8.715-3.801,18.951,0.224,22.752,8.94L478.252,402.775z"/>
<path style="fill:#AA6100;" d="M247.777,70.553v5.259c0,5.473-4.434,9.917-9.907,9.917H118.8L97.498,64.948l-32.84-32.045
	l0.224-28.651H181.78c3.975,0,7.95,1.498,10.957,4.515l50.647,50.637c1.508,1.621,2.66,3.506,3.394,5.545
	C247.441,66.731,247.777,68.627,247.777,70.553z"/>
<path style="fill:#1E81CE;" d="M177.975,168.769h-2.824c-19.356,0-35.103-15.747-35.103-35.102s15.748-35.102,35.103-35.102h2.824
	c19.356,0,35.102,15.747,35.102,35.102S197.331,168.769,177.975,168.769z"/>
<path style="fill:#5AAAE7;" d="M205.437,133.666c0,7.553-3.088,14.412-8.073,19.396c-3.761,3.761-8.603,6.442-14.005,7.522
	c-0.347,0.071-0.693,0.133-1.04,0.183c-1.417,0.234-2.874,0.357-4.342,0.357h-2.823c-15.105,0-27.459-12.353-27.459-27.459
	c0-7.553,3.088-14.412,8.062-19.396c4.974-4.974,11.844-8.062,19.396-8.062h2.823c1.468,0,2.925,0.122,4.342,0.357
	c0.347,0.051,0.693,0.112,1.04,0.183C195.907,109.265,205.437,120.405,205.437,133.666z"/>
<path style="fill:#78B9EB;" d="M205.437,133.666c0,7.553-3.088,14.412-8.073,19.396c-3.761,3.761-8.603,6.442-14.005,7.522
	c-0.347,0.071-0.693,0.133-1.04,0.183c-13.036-2.11-23.076-13.485-23.076-27.102c0-7.553,3.088-14.412,8.062-19.396
	c3.995-3.995,9.204-6.768,15.014-7.706c0.347,0.051,0.693,0.112,1.04,0.183C195.907,109.265,205.437,120.405,205.437,133.666z"/>
<path style="fill:#1E81CE;" d="M204.975,126.023h-20.767v-18.714c0-4.223-3.423-7.644-7.644-7.644s-7.644,3.422-7.644,7.644v18.714
	h-19.578c-4.222,0-7.644,3.422-7.644,7.644c0,4.223,3.423,7.644,7.644,7.644h19.578v19.509c0,4.223,3.423,7.644,7.644,7.644
	c4.222,0,7.644-3.422,7.644-7.644v-19.509h20.767c4.222,0,7.644-3.422,7.644-7.644C212.62,129.444,209.197,126.023,204.975,126.023z
	"/>
<path style="fill:#FFA733;" d="M120.971,69.493v118.795H45.444c-8.786,0-15.9-7.114-15.9-15.911V69.493L75.257,23.78L120.971,69.493
	z"/>
<path style="fill:#78B9EB;" d="M226.813,432.469h-59.456c-11.09-0.001-21.462-5.95-27.068-15.525
	c-2.133-3.643-0.909-8.326,2.734-10.46c3.641-2.134,8.325-0.911,10.46,2.734c2.875,4.911,8.193,7.962,13.876,7.963h59.456
	c4.222,0,7.644,3.422,7.644,7.644C234.458,429.048,231.035,432.469,226.813,432.469z M143.65,390.726
	c-4.222,0-7.644-3.422-7.644-7.644v-53.8c0-8.855-7.205-16.061-16.061-16.061h-6.798c-4.222,0-7.644-3.422-7.644-7.644
	c0-4.223,3.423-7.644,7.644-7.644h6.798c17.287,0,31.35,14.064,31.35,31.35v53.799C151.294,387.303,147.871,390.726,143.65,390.726z
	 M82.635,312.501c-0.621,0-1.252-0.076-1.882-0.235c-13.919-3.524-23.64-16.022-23.64-30.392v-66.494
	c0-4.223,3.423-7.644,7.644-7.644c4.222,0,7.644,3.422,7.644,7.644v66.494c0,7.365,4.977,13.768,12.103,15.571
	c4.093,1.037,6.571,5.194,5.535,9.286C89.164,310.193,86.051,312.501,82.635,312.501z"/>
<path style="fill:#AA6100;" d="M92.829,94.425v93.863H44.048V94.425c0-4.77,3.904-8.684,8.684-8.684h31.414
	C88.926,85.74,92.829,89.654,92.829,94.425z"/>
<path style="fill:#CC7400;" d="M92.829,94.425v93.863H57.135V94.425c0-4.77,3.914-8.684,8.684-8.684h18.326
	C88.926,85.74,92.829,89.654,92.829,94.425z"/>
<circle style="fill:#663A00;" cx="76.669" cy="136.082" r="5.137"/>
<path style="fill:#884D00;" d="M247.777,70.553v5.259c0,5.473-4.434,9.917-9.907,9.917H118.8L97.498,64.948h149.281
	C247.441,66.731,247.777,68.627,247.777,70.553z"/>
<path style="fill:#CC7400;" d="M127.689,59.407L77.343,9.061c-0.091-0.096-0.17-0.199-0.264-0.293l0,0
	c-3.017-3.017-6.996-4.523-10.973-4.52c-3.977-0.004-7.956,1.502-10.973,4.52l0,0c-0.094,0.094-0.173,0.197-0.264,0.293
	L4.521,59.407c-6.028,6.028-6.028,15.891,0,21.918l0,0c6.028,6.028,15.89,6.028,21.918,0L66.105,41.66l39.665,39.665
	c6.028,6.028,15.891,6.028,21.918,0l0,0C133.716,75.298,133.716,65.435,127.689,59.407z"/>
<g>
</g>
<g>
</g>
<g>
</g>
<g>
</g>
<g>
</g>
<g>
</g>
<g>
</g>
<g>
</g>
<g>
</g>
<g>
</g>
<g>
</g>
<g>
</g>
<g>
</g>
<g>
</g>
<g>
</g>
</svg>
