<?xml version="1.0" encoding="iso-8859-1"?>
<!-- Generator: Adobe Illustrator 19.0.0, SVG Export Plug-In . SVG Version: 6.00 Build 0)  -->
<svg version="1.1" id="Capa_1" xmlns="http://www.w3.org/2000/svg" xmlns:xlink="http://www.w3.org/1999/xlink" x="0px" y="0px"
	 viewBox="0 0 512 512" style="enable-background:new 0 0 512 512;" xml:space="preserve">
<path style="fill:#C6C5CA;" d="M237.647,296.239c-9.538,0-17.271-7.733-17.271-17.271V111.202c0-42.27-34.389-76.659-76.659-76.659
	s-76.659,34.389-76.659,76.659v167.766c0,9.538-7.733,17.271-17.271,17.271s-17.271-7.733-17.271-17.271V111.202
	C32.514,49.885,82.399,0,143.716,0s111.202,49.885,111.202,111.202v167.766C254.918,288.506,247.186,296.239,237.647,296.239z"/>
<path style="fill:#D8D7DA;" d="M58.293,111.204v167.764c0,4.414,1.66,8.425,4.383,11.478c-3.156,3.558-7.755,5.796-12.891,5.796
	c-9.539,0-17.273-7.734-17.273-17.273V111.204c0-61.318,49.892-111.2,111.2-111.2c4.362,0,8.663,0.248,12.891,0.753
	C101.337,7.161,58.293,54.248,58.293,111.204z"/>
<path style="fill:#898890;" d="M286.766,297.809V450.63c0,33.856-27.452,61.308-61.308,61.308H61.974
	c-33.856,0-61.308-27.452-61.308-61.308V297.809c0-33.866,27.452-61.308,61.308-61.308h163.484
	C259.315,236.501,286.766,263.943,286.766,297.809z"/>
<path style="fill:#ACABB1;" d="M286.766,297.809V450.63c0,33.856-27.452,61.308-61.308,61.308H102.533
	c-33.856,0-61.308-27.452-61.308-61.308V297.809c0-33.866,27.452-61.308,61.308-61.308h122.925
	C259.315,236.501,286.766,263.943,286.766,297.809z"/>
<path style="fill:#1D1D1F;" d="M190.654,341.235c0,15.644-7.652,29.494-19.429,38.022c-2.96,2.145-4.672,5.62-4.672,9.292v42.756
	c0,5.672-2.093,10.88-5.558,14.881c-4.651,5.393-11.767,8.601-19.553,7.838c-11.808-1.155-20.563-11.571-20.563-23.43v-42.044
	c0-3.723-1.794-7.188-4.795-9.384c-12.788-9.323-20.677-24.946-19.109-42.312c2.073-22.801,20.873-41.034,43.725-42.457
	c7.167-0.454,14.015,0.712,20.223,3.166h0.01C178.341,304.419,190.654,321.383,190.654,341.235z"/>
<g>
	<path style="fill:#2D2D30;" d="M190.654,341.235c0,15.644-7.652,29.494-19.429,38.022c-2.96,2.145-4.672,5.62-4.672,9.292v42.756
		c0,5.672-2.093,10.88-5.558,14.881c-3.589-4.207-5.734-9.725-5.734-15.592v-42.044c0-3.723-1.805-7.188-4.806-9.384
		c-12.777-9.323-20.677-24.946-19.099-42.312c1.619-17.861,13.509-32.918,29.566-39.291h0.01
		C178.341,304.419,190.654,321.383,190.654,341.235z"/>
	<path style="fill:#2D2D30;" d="M491.161,450.207c-20.378,32.484-52.594,53.027-87.533,59.544c-2.073,0.382-4.156,0.722-6.249,1.011
		c-29.576,4.073-60.699-1.825-87.966-18.934c-61.679-38.693-80.314-120.069-41.621-181.748
		c28.473-45.365,80.015-67.454,129.845-60.555c2.052,0.289,4.115,0.629,6.167,1.011c15.788,2.96,31.298,8.869,45.736,17.923
		C511.218,307.152,529.853,388.518,491.161,450.207z"/>
</g>
<path style="fill:#3E3D42;" d="M491.161,450.207c-20.378,32.484-52.594,53.027-87.533,59.544c-2.073,0.382-4.156,0.722-6.249,1.011
	c-17.902-2.485-35.568-8.714-51.872-18.934c-61.679-38.693-80.314-120.069-41.621-181.748c21.584-34.392,56.44-55.409,93.751-60.555
	c2.052,0.289,4.115,0.629,6.167,1.011c15.788,2.96,31.298,8.869,45.736,17.923C511.218,307.152,529.853,388.518,491.161,450.207z"/>
<path style="fill:#78B9EB;" d="M452.99,401.701c-2.112,0-4.223-0.805-5.834-2.416c-18.078-18.078-42.112-28.034-67.677-28.034
	c-25.566,0-49.6,9.955-67.678,28.034c-3.222,3.221-8.445,3.221-11.667,0c-3.223-3.223-3.223-8.445,0-11.668
	c21.193-21.194,49.372-32.865,79.345-32.865s58.151,11.671,79.345,32.865c3.223,3.223,3.223,8.445,0,11.668
	C457.212,400.896,455.101,401.701,452.99,401.701z"/>
<path style="fill:#B3D8F4;" d="M423.506,438.767c-2.111,0-4.223-0.805-5.834-2.416c-21.06-21.062-55.328-21.062-76.389,0
	c-3.222,3.221-8.445,3.221-11.667,0c-3.223-3.223-3.223-8.445,0-11.668c27.493-27.493,72.229-27.493,99.723,0
	c3.223,3.223,3.223,8.445,0,11.668C427.729,437.961,425.617,438.767,423.506,438.767z"/>
<path style="fill:#3D9AE2;" d="M481.439,373.107c-2.283,0-4.556-0.943-6.186-2.789c-25.246-28.584-58.878-44.937-94.699-46.046
	c-36.014-1.083-70.53,12.958-97.199,39.628c-3.222,3.221-8.445,3.221-11.667,0c-3.223-3.223-3.223-8.445,0-11.668
	c29.923-29.923,68.771-45.704,109.378-44.451c40.42,1.252,78.262,19.582,106.555,51.616c3.016,3.415,2.693,8.628-0.722,11.645
	C485.328,372.426,483.379,373.107,481.439,373.107z"/>
<g>
</g>
<g>
</g>
<g>
</g>
<g>
</g>
<g>
</g>
<g>
</g>
<g>
</g>
<g>
</g>
<g>
</g>
<g>
</g>
<g>
</g>
<g>
</g>
<g>
</g>
<g>
</g>
<g>
</g>
</svg>
