<?xml version="1.0" encoding="iso-8859-1"?>
<!-- Generator: Adobe Illustrator 19.0.0, SVG Export Plug-In . SVG Version: 6.00 Build 0)  -->
<svg version="1.1" id="Capa_1" xmlns="http://www.w3.org/2000/svg" xmlns:xlink="http://www.w3.org/1999/xlink" x="0px" y="0px"
	 viewBox="0 0 512 512" style="enable-background:new 0 0 512 512;" xml:space="preserve">
<path style="fill:#57565C;" d="M498.687,418.348H13.313V84.115c0-12.151,9.851-22.002,22.002-22.002h441.372
	c12.151,0,22.002,9.851,22.002,22.002v334.233H498.687z"/>
<path style="fill:#ACABB1;" d="M460.249,130.795V376.39c0,14.839-12.043,26.882-26.882,26.882H78.633
	c-14.839,0-26.882-12.043-26.882-26.882V130.795c0-15.603,12.651-28.254,28.264-28.254h351.969
	C447.598,102.541,460.249,115.192,460.249,130.795z"/>
<path style="fill:#D8D7DA;" d="M460.249,130.795V376.39c0,14.839-12.043,26.882-26.882,26.882H115.782
	c-14.839,0-26.882-12.043-26.882-26.882V130.795c0-15.603,12.651-28.254,28.264-28.254h314.82
	C447.598,102.541,460.249,115.192,460.249,130.795z"/>
<path style="fill:#165C92;" d="M340.783,259.796c-1.063,3.158-2.281,6.264-3.684,9.287c-5.799,12.548-14.54,23.817-25.798,32.671
	c-4.943,3.88-10.371,7.306-16.253,10.164c-8.142,3.952-16.593,6.563-25.096,7.894c-0.609,0.093-1.207,0.186-1.816,0.268
	c-11.816,1.641-23.703,0.836-34.972-2.146c-3.22-0.856-6.388-1.878-9.494-3.085c-20.298-7.884-37.789-23.146-48.057-44.27
	c-10.649-21.908-11.527-46.034-4.355-67.447c1.042-3.116,2.26-6.181,3.643-9.164c8.359-18.048,22.764-33.445,42.051-42.815
	c6.604-3.209,13.405-5.531,20.277-7.007c10.299-2.219,20.731-2.559,30.875-1.166c0.588,0.093,1.187,0.175,1.775,0.268
	c3.013,0.475,6.006,1.104,8.947,1.888c3.168,0.846,6.295,1.857,9.36,3.034c20.36,7.863,37.913,23.146,48.201,44.311
	C347.016,214.35,347.914,238.425,340.783,259.796z"/>
<path style="fill:#1A6FB0;" d="M340.783,259.796c-1.063,3.158-2.281,6.264-3.684,9.287c-5.799,12.548-14.54,23.817-25.798,32.671
	c-4.943,3.88-10.371,7.306-16.253,10.164c-8.142,3.952-16.593,6.563-25.096,7.894c-0.609,0.093-1.207,0.186-1.816,0.268
	c-3.622-0.495-7.203-1.218-10.722-2.146c-3.22-0.856-6.388-1.878-9.494-3.085c-20.298-7.884-37.789-23.146-48.057-44.27
	c-10.649-21.908-11.527-46.034-4.355-67.447c1.042-3.116,2.26-6.181,3.643-9.164c8.359-18.048,22.764-33.445,42.051-42.815
	c6.604-3.209,13.405-5.531,20.277-7.007c2.198-0.475,4.417-0.867,6.625-1.166c0.588,0.093,1.187,0.175,1.775,0.268
	c3.013,0.475,6.006,1.104,8.947,1.888c3.168,0.846,6.295,1.857,9.36,3.034c20.36,7.863,37.913,23.146,48.201,44.311
	C347.016,214.35,347.914,238.425,340.783,259.796z"/>
<circle style="fill:#1D1D1F;" cx="256" cy="82.255" r="9.438"/>
<path style="fill:#5AAAE7;" d="M400.599,152.579h-32.118c-2.69,0-5.212,1.312-6.757,3.513l-20.071,28.601
	c-33.123-60.574-112.63-66.4-156.229-20.641c-26.635,27.97-34.891,69.465-19.098,106.071l-24.689,35.181h-28.559
	c-4.559,0-8.255,3.696-8.255,8.255c0,4.559,3.696,8.255,8.255,8.255h32.85c2.69,0,5.212-1.312,6.757-3.513l22.476-32.029
	c44.846,66.291,147.656,53.398,173.446-23.86c6.553-19.618,6.705-40.392,0.644-59.805l23.521-33.517h27.826
	c4.559,0,8.255-3.696,8.255-8.255C408.854,156.276,405.158,152.579,400.599,152.579z M336.717,223.279h-23.955
	c-0.803-11.459-3.279-22.576-7.28-32.984c4.925-2.627,9.65-5.655,14.132-9.064C329.442,193.674,335.176,208.275,336.717,223.279z
	 M264.255,159.675c7.111,5.942,13.587,13.398,18.868,22.238c-6.099,1.957-12.423,3.244-18.868,3.844V159.675z M283.604,155.286
	c9.006,3.26,17.208,7.983,24.426,14.011c-3.082,2.236-6.3,4.252-9.622,6.062C294.274,168.101,289.318,161.359,283.604,155.286z
	 M228.414,155.266c-5.721,6.078-10.685,12.828-14.823,20.093c-3.31-1.804-6.518-3.813-9.591-6.041
	C211.421,163.112,219.511,158.495,228.414,155.266z M247.745,159.679v26.079c-6.445-0.6-12.77-1.886-18.869-3.843
	C233.932,173.449,240.294,165.904,247.745,159.679z M247.745,202.322v20.957h-31.949c0.747-9.158,2.742-18.037,5.875-26.379
	C230.049,199.792,238.802,201.621,247.745,202.322z M247.745,239.79v20.707c-8.951,0.701-17.714,2.534-26.102,5.429
	c-3.096-8.276-5.079-17.077-5.837-26.137h31.938V239.79z M247.745,277.061v26.251c-7.51-6.292-13.86-13.853-18.927-22.389
	C234.935,278.956,241.28,277.662,247.745,277.061z M228.483,307.786c-8.901-3.206-17.241-7.958-24.591-14.125
	c-0.019-0.016-0.038-0.031-0.057-0.047c3.11-2.264,6.36-4.302,9.714-6.132C217.717,294.836,222.72,301.661,228.483,307.786z
	 M283.477,307.829c5.779-6.135,10.797-12.974,14.975-20.346c3.356,1.831,6.607,3.87,9.72,6.136
	C297.691,302.936,283.534,307.808,283.477,307.829z M264.255,303.314V277.06c6.465,0.602,12.809,1.896,18.927,3.863
	C278.228,289.27,271.91,296.902,264.255,303.314z M264.255,260.497V239.79h31.938c-0.758,9.059-2.742,17.861-5.837,26.137
	C281.968,263.031,273.206,261.198,264.255,260.497z M264.255,223.279v-20.957c8.942-0.701,17.694-2.531,26.075-5.423
	c3.133,8.342,5.128,17.222,5.875,26.38L264.255,223.279L264.255,223.279z M192.395,181.24c4.479,3.406,9.201,6.432,14.122,9.057
	c-4,10.407-6.476,21.525-7.28,32.982h-23.933C176.871,208.22,182.491,193.741,192.395,181.24z M175.283,239.79h23.971
	c0.816,11.355,3.287,22.395,7.25,32.739c-4.966,2.649-9.728,5.704-14.244,9.148c-3.555-4.523-6.663-9.433-9.225-14.7
	C178.821,258.307,176.24,249.122,175.283,239.79z M319.752,281.686c-4.519-3.447-9.285-6.505-14.255-9.157
	c3.963-10.343,6.433-21.383,7.249-32.739h23.95C335.125,254.88,329.437,269.365,319.752,281.686z"/>
<path style="fill:#1A6FB0;" d="M119.105,314.942c0,7.657-4.241,14.313-10.495,17.77c-2.91,1.61-6.253,2.518-9.803,2.518
	c-11.207,0-20.298-9.081-20.298-20.288c0-11.217,9.091-20.298,20.298-20.298c3.55,0,6.893,0.908,9.803,2.518
	C114.864,300.619,119.105,307.285,119.105,314.942z"/>
<path style="fill:#1D1D1F;" d="M512,409.642v0.248c0,1.424-0.072,2.838-0.217,4.221c-0.991,9.37-5.201,17.759-11.496,24.065
	c-7.234,7.234-17.233,11.712-28.275,11.712H39.987C17.904,449.887,0,431.983,0,409.889c0-11.042,4.479-21.041,11.712-28.275
	c7.234-7.234,17.233-11.712,28.275-11.712h432.026c17.285,0,32.01,10.969,37.593,26.324
	C511.133,400.416,511.969,404.926,512,409.642z"/>
<path style="fill:#2D2D30;" d="M509.606,396.227H89.354c-17.285,0-32.01-10.969-37.593-26.324h420.252
	C489.298,369.902,504.023,380.872,509.606,396.227z"/>
<path style="fill:#1A6FB0;" d="M435.896,160.494c0,7.647-4.231,14.313-10.484,17.77c-2.9,1.599-6.243,2.518-9.803,2.518
	c-11.207,0-20.298-9.081-20.298-20.288c0-11.217,9.091-20.298,20.298-20.298c3.56,0,6.904,0.918,9.803,2.518
	C431.665,146.171,435.896,152.837,435.896,160.494z"/>
<g>
	<path style="fill:#1E81CE;" d="M119.105,314.942c0,7.657-4.241,14.313-10.495,17.77c-6.253-3.457-10.495-10.113-10.495-17.77
		c0-7.657,4.241-14.323,10.495-17.78C114.864,300.619,119.105,307.285,119.105,314.942z"/>
	<path style="fill:#1E81CE;" d="M435.896,160.494c0,7.647-4.231,14.313-10.484,17.77c-6.253-3.457-10.495-10.113-10.495-17.77
		c0-7.657,4.241-14.323,10.495-17.78C431.665,146.171,435.896,152.837,435.896,160.494z"/>
</g>
<g>
</g>
<g>
</g>
<g>
</g>
<g>
</g>
<g>
</g>
<g>
</g>
<g>
</g>
<g>
</g>
<g>
</g>
<g>
</g>
<g>
</g>
<g>
</g>
<g>
</g>
<g>
</g>
<g>
</g>
</svg>
