<?xml version="1.0" encoding="iso-8859-1"?>
<!-- Generator: Adobe Illustrator 19.0.0, SVG Export Plug-In . SVG Version: 6.00 Build 0)  -->
<svg version="1.1" id="Capa_1" xmlns="http://www.w3.org/2000/svg" xmlns:xlink="http://www.w3.org/1999/xlink" x="0px" y="0px"
	 viewBox="0 0 512 512" style="enable-background:new 0 0 512 512;" xml:space="preserve">
<g>
	<path style="fill:#884D00;" d="M174.662,439.93v58.771c0,7.316-5.983,13.299-13.289,13.299h-5.932
		c-7.316,0-13.299-5.983-13.299-13.299V439.93c0-7.306,5.983-13.289,13.299-13.289h5.932
		C168.678,426.641,174.662,432.624,174.662,439.93z"/>
	<path style="fill:#884D00;" d="M293.618,439.93v58.771c0,7.316-5.983,13.299-13.299,13.299h-5.932
		c-7.306,0-13.289-5.983-13.289-13.299V439.93c0-7.306,5.983-13.289,13.289-13.289h5.932
		C287.636,426.641,293.618,432.624,293.618,439.93z"/>
</g>
<g>
	<path style="fill:#663A00;" d="M174.662,439.93v46.378h-32.52V439.93c0-7.306,5.983-13.289,13.299-13.289h5.932
		C168.678,426.641,174.662,432.624,174.662,439.93z"/>
	<path style="fill:#663A00;" d="M293.618,439.93v46.378h-32.52V439.93c0-7.306,5.983-13.289,13.289-13.289h5.932
		C287.636,426.641,293.618,432.624,293.618,439.93z"/>
</g>
<path style="fill:#AA6100;" d="M306.511,470.991H129.248c-16.385,0-29.791-13.406-29.791-29.791v-323.5
	c0-16.385,13.406-29.791,29.791-29.791h177.263c16.385,0,29.791,13.406,29.791,29.791v323.501
	C336.302,457.586,322.896,470.991,306.511,470.991z"/>
<path style="fill:#EE8700;" d="M312.747,126.72v305.467c0,6.98-5.718,12.699-12.699,12.699H135.711
	c-6.98,0-12.699-5.718-12.699-12.699V126.72c0-6.99,5.718-12.699,12.699-12.699h164.338
	C307.029,114.021,312.747,119.729,312.747,126.72z"/>
<path style="fill:#FFA733;" d="M312.747,126.72v305.467c0,6.98-5.718,12.699-12.699,12.699H158.778
	c-6.99,0-12.699-5.718-12.699-12.699V126.72c0-6.99,5.708-12.699,12.699-12.699h141.271
	C307.029,114.021,312.747,119.729,312.747,126.72z"/>
<path style="fill:#78B9EB;" d="M382.063,98.241c-4.495,0-8.14-3.645-8.14-8.14c0-27.023-21.984-49.007-49.007-49.007
	c-4.495,0-8.14-3.645-8.14-8.14s3.645-8.14,8.14-8.14c36,0,65.288,29.288,65.288,65.288
	C390.203,94.596,386.559,98.241,382.063,98.241z"/>
<path style="fill:#B3D8F4;" d="M356.196,101.187c-4.495,0-8.14-3.645-8.14-8.14c0-14.386-11.702-26.088-26.088-26.088
	c-4.495,0-8.14-3.645-8.14-8.14s3.645-8.14,8.14-8.14c23.362,0,42.368,19.006,42.368,42.368
	C364.336,97.543,360.691,101.187,356.196,101.187z"/>
<path style="fill:#3D9AE2;" d="M404.243,98.183c-0.17,0-0.34-0.005-0.512-0.016c-4.487-0.278-7.899-4.14-7.62-8.627
	c1.235-19.921-5.135-38.394-17.94-52.016c-12.875-13.699-30.831-21.243-50.558-21.243c-4.495,0-8.14-3.645-8.14-8.14
	S323.118,0,327.613,0c24.269,0,46.436,9.366,62.421,26.373c15.913,16.931,23.842,39.722,22.324,64.173
	C412.092,94.861,408.507,98.183,404.243,98.183z"/>
<circle style="fill:#E0E0E2;" cx="217.88" cy="194.07" r="51.658"/>
<path style="fill:#ACABB1;" d="M217.876,231.495c-20.636,0-37.425-16.79-37.425-37.426s16.789-37.425,37.425-37.425
	s37.425,16.789,37.425,37.425S238.512,231.495,217.876,231.495z"/>
<path style="fill:#1D1D1F;" d="M242.131,194.07c0,8.587-4.471,16.142-11.208,20.436c-3.772,2.42-8.255,3.819-13.047,3.819
	c-13.39,0-24.254-10.864-24.254-24.254s10.864-24.254,24.254-24.254c4.791,0,9.275,1.399,13.047,3.819
	C237.66,177.927,242.131,185.482,242.131,194.07z"/>
<path style="fill:#2D2D30;" d="M242.131,194.07c0,8.587-4.471,16.142-11.208,20.436c-6.737-4.294-11.208-11.849-11.208-20.436
	s4.471-16.142,11.208-20.436C237.66,177.927,242.131,185.482,242.131,194.07z"/>
<circle style="fill:#E0E0E2;" cx="217.554" cy="345.567" r="70.737"/>
<path style="fill:#ACABB1;" d="M217.556,402.086c-31.162,0-56.515-25.352-56.515-56.515s25.352-56.515,56.515-56.515
	s56.515,25.352,56.515,56.515S248.718,402.086,217.556,402.086z"/>
<path style="fill:#1D1D1F;" d="M257.307,345.573c0,17.386-11.164,32.164-26.714,37.557c-4.077,1.423-8.474,2.193-13.036,2.193
	c-21.961,0-39.75-17.801-39.75-39.75c0-21.961,17.789-39.75,39.75-39.75c4.563,0,8.96,0.77,13.036,2.193
	C246.143,313.407,257.307,328.187,257.307,345.573z"/>
<path style="fill:#2D2D30;" d="M257.307,345.573c0,17.386-11.164,32.164-26.714,37.557c-15.55-5.393-26.713-20.171-26.713-37.557
	c0-17.398,11.164-32.165,26.713-37.557C246.143,313.407,257.307,328.187,257.307,345.573z"/>
<g>
</g>
<g>
</g>
<g>
</g>
<g>
</g>
<g>
</g>
<g>
</g>
<g>
</g>
<g>
</g>
<g>
</g>
<g>
</g>
<g>
</g>
<g>
</g>
<g>
</g>
<g>
</g>
<g>
</g>
</svg>
