<?xml version="1.0" encoding="iso-8859-1"?>
<!-- Generator: Adobe Illustrator 19.0.0, SVG Export Plug-In . SVG Version: 6.00 Build 0)  -->
<svg version="1.1" id="Capa_1" xmlns="http://www.w3.org/2000/svg" xmlns:xlink="http://www.w3.org/1999/xlink" x="0px" y="0px"
	 viewBox="0 0 512 512" style="enable-background:new 0 0 512 512;" xml:space="preserve">
<g>
	<path style="fill:#2D2D30;" d="M89.288,430.821v65.883c0,5.975-3.467,11.176-8.494,13.684c-2.05,1.03-4.354,1.611-6.801,1.611
		H61.756c-8.413,0-15.296-6.883-15.296-15.296v-65.883c0-8.413,6.883-15.296,15.296-15.296h12.236c2.447,0,4.752,0.581,6.801,1.611
		C85.821,419.645,89.288,424.846,89.288,430.821z"/>
	<path style="fill:#2D2D30;" d="M465.539,430.821v65.883c0,5.975-3.467,11.176-8.494,13.684c-2.05,1.03-4.354,1.611-6.801,1.611
		h-12.236c-8.413,0-15.296-6.883-15.296-15.296v-65.883c0-8.413,6.883-15.296,15.296-15.296h12.236c2.447,0,4.752,0.581,6.801,1.611
		C462.072,419.645,465.539,424.846,465.539,430.821z"/>
</g>
<g>
	<path style="fill:#57565C;" d="M89.288,430.821v65.883c0,5.975-3.467,11.176-8.494,13.684c-5.027-2.498-8.504-7.709-8.504-13.684
		v-65.883c0-5.975,3.477-11.186,8.504-13.684C85.821,419.645,89.288,424.846,89.288,430.821z"/>
	<path style="fill:#57565C;" d="M465.539,430.821v65.883c0,5.975-3.467,11.176-8.494,13.684c-5.027-2.508-8.494-7.709-8.494-13.684
		v-65.883c0-5.975,3.467-11.176,8.494-13.684C462.072,419.645,465.539,424.846,465.539,430.821z"/>
</g>
<path style="fill:#898890;" d="M332.478,120.433v261.473c0,11.543-9.442,20.986-20.986,20.986h-6.75
	c-11.533,0-20.975-9.442-20.975-20.986V120.433c0-13.399,10.941-24.34,24.34-24.351h0.01c6.699,0,12.787,2.733,17.202,7.148
	C329.735,107.646,332.478,113.734,332.478,120.433z"/>
<g>
	<path style="fill:#ACABB1;" d="M332.478,120.433v258.312h-3.385c-11.543,0-20.986-9.442-20.986-20.986V96.083h0.01
		c6.699,0,12.787,2.733,17.202,7.148C329.735,107.646,332.478,113.734,332.478,120.433z"/>
	<path style="fill:#ACABB1;" d="M507.99,269.372v154.577c0,0.602-0.01,1.193-0.041,1.784c-0.938,19.691-17.335,35.496-37.24,35.496
		H41.291c-20.506,0-37.28-16.774-37.28-37.28V269.372c0-19.415,15.03-35.476,34.028-37.138c1.071-0.092,2.162-0.143,3.253-0.143
		h429.418C491.215,232.091,507.99,248.865,507.99,269.372z"/>
</g>
<path style="fill:#D8D7DA;" d="M507.99,269.372v154.577c0,0.602-0.01,1.193-0.041,1.784c-1.071,0.092-2.152,0.143-3.253,0.143
	H75.278c-20.506,0-37.28-16.774-37.28-37.28V234.019c0-0.602,0.01-1.193,0.041-1.784c1.071-0.092,2.162-0.143,3.253-0.143h429.418
	C491.215,232.091,507.99,248.865,507.99,269.372z"/>
<path style="fill:#78B9EB;" d="M394.897,105.891c-4.505,0-8.158-3.653-8.158-8.158c0-29.941-24.36-54.3-54.3-54.3
	c-4.505,0-8.158-3.653-8.158-8.158s3.653-8.158,8.158-8.158c38.938,0,70.616,31.677,70.616,70.616
	C403.055,102.239,399.402,105.891,394.897,105.891z"/>
<path style="fill:#B3D8F4;" d="M366.627,109.113c-4.505,0-8.158-3.653-8.158-8.158c0-16.129-13.122-29.251-29.251-29.251
	c-4.505,0-8.158-3.653-8.158-8.158s3.653-8.158,8.158-8.158c25.126,0,45.567,20.441,45.567,45.567
	C374.784,105.46,371.131,109.113,366.627,109.113z"/>
<path style="fill:#3D9AE2;" d="M419.138,105.828c-0.17,0-0.341-0.005-0.513-0.016c-4.497-0.278-7.916-4.149-7.637-8.646
	c1.362-21.978-5.672-42.363-19.806-57.4c-14.214-15.122-34.029-23.45-55.794-23.45c-4.505,0-8.158-3.653-8.158-8.158
	S330.883,0,335.388,0c26.317,0,50.353,10.154,67.682,28.592c17.251,18.354,25.846,43.065,24.201,69.584
	C427.003,102.501,423.411,105.828,419.138,105.828z"/>
<path style="fill:#57565C;" d="M507.99,269.372v66.73H4.011v-66.73c0-20.506,16.774-37.28,37.28-37.28h429.418
	C491.215,232.091,507.99,248.865,507.99,269.372z"/>
<path style="fill:#FF0C38;" d="M110.896,284.106c0,2.876-0.683,5.588-1.897,7.994c-2.927,5.843-8.973,9.85-15.948,9.85
	c-9.861,0-17.845-7.984-17.845-17.845c0-9.85,7.984-17.845,17.845-17.845h0.031C102.922,266.282,110.896,274.266,110.896,284.106z"
	/>
<path style="fill:#6DC82A;" d="M180.572,284.106c0,2.876-0.683,5.588-1.897,7.994c-2.916,5.843-8.963,9.85-15.948,9.85
	c-9.85,0-17.845-7.984-17.845-17.845c0-9.85,7.994-17.845,17.845-17.845h0.031C172.609,266.282,180.572,274.266,180.572,284.106z"/>
<path style="fill:#5AAAE7;" d="M250.259,284.106c0,2.876-0.683,5.588-1.897,7.994c-2.927,5.843-8.973,9.85-15.948,9.85
	c-9.861,0-17.845-7.984-17.845-17.845c0-9.85,7.984-17.845,17.845-17.845c0.01,0,0.01,0,0.02,0
	C242.275,266.272,250.259,274.266,250.259,284.106z"/>
<path style="fill:#FF3F62;" d="M110.896,284.106c0,2.876-0.683,5.588-1.897,7.994c-9.85-0.02-17.814-8.005-17.814-17.845
	c0-2.876,0.683-5.588,1.897-7.995C102.922,266.282,110.896,274.266,110.896,284.106z"/>
<path style="fill:#91DC5A;" d="M180.572,284.106c0,2.876-0.683,5.588-1.897,7.994c-9.85-0.02-17.814-8.005-17.814-17.845
	c0-2.876,0.683-5.588,1.897-7.995C172.609,266.282,180.572,274.266,180.572,284.106z"/>
<path style="fill:#78B9EB;" d="M250.259,284.106c0,2.876-0.683,5.588-1.897,7.994c-9.84-0.01-17.824-8.005-17.824-17.845
	c0-2.876,0.683-5.588,1.897-7.995C242.275,266.272,250.259,274.266,250.259,284.106z"/>
<path style="fill:#FFCD00;" d="M436.794,275.948v16.315c0,8.413-6.883,15.296-15.296,15.296H381.73
	c-8.413,0-15.296-6.883-15.296-15.296v-16.315c0-8.413,6.883-15.296,15.296-15.296h39.768
	C429.911,260.653,436.794,267.536,436.794,275.948z"/>
<path style="fill:#FFE477;" d="M436.794,275.948v9.861h-38.066c-8.413,0-15.296-6.883-15.296-15.296v-9.861h38.066
	C429.911,260.653,436.794,267.536,436.794,275.948z"/>
<path style="fill:#3E3D42;" d="M38.038,232.234c-0.031,0.591-0.041,1.183-0.041,1.784v102.083H4.011v-66.729
	C4.011,249.956,19.041,233.896,38.038,232.234z"/>
<g>
</g>
<g>
</g>
<g>
</g>
<g>
</g>
<g>
</g>
<g>
</g>
<g>
</g>
<g>
</g>
<g>
</g>
<g>
</g>
<g>
</g>
<g>
</g>
<g>
</g>
<g>
</g>
<g>
</g>
</svg>
