<?xml version="1.0" encoding="iso-8859-1"?>
<!-- Generator: Adobe Illustrator 19.0.0, SVG Export Plug-In . SVG Version: 6.00 Build 0)  -->
<svg version="1.1" id="Capa_1" xmlns="http://www.w3.org/2000/svg" xmlns:xlink="http://www.w3.org/1999/xlink" x="0px" y="0px"
	 viewBox="0 0 512 512" style="enable-background:new 0 0 512 512;" xml:space="preserve">
<path style="fill:#C6C5CA;" d="M498.143,246.459l-39.458,10.434c-0.388,0.215-5.607,0.553-5.476,5.352
	c0.547,18.791-1.631,38.648-6.977,58.235c-0.549,1.998,0.186,4.13,1.884,5.331l34.303,24.325
	c7.846,5.548,10.165,16.168,5.362,24.491l-6.324,10.951c-10.444,18.08-5.441,9.418-6.852,11.862
	c-4.834,8.374-15.289,11.655-24.035,7.536l-26.271-12.359c-0.106-0.05-7.719-3.633-7.235-3.406c-2.06-0.963-4.534-0.393-5.931,1.408
	c-13.053,16.769-28.714,31.405-46.373,43.309c-1.739,1.18-2.577,3.302-2.039,5.331l9.161,35.028
	c2.432,9.295-2.608,18.911-11.635,22.203c-2.547,0.926,9.198-3.345-24.76,9.005c-9.088,3.312-19.201-0.901-23.259-9.678
	l-11.862-25.65c-0.758-1.057-1.896-7.247-6.987-6.2c-13.094,2.691-26.654,4.109-40.545,4.109c-8.974,0-17.814-0.59-26.468-1.739
	c-2.132-0.279-4.203,0.818-5.124,2.764l-13.839,29.242c-4.109,8.685-14.16,12.804-23.186,9.523
	c-2.533-0.922,9.171,3.339-24.76-9.016c-9.088-3.302-14.129-13.032-11.593-22.358l7.546-27.824c0-0.366,2.073-4.621-1.936-6.914
	c-19.771-11.303-37.429-25.878-52.242-42.988c-1.439-1.667-3.788-2.194-5.786-1.284l-29.501,13.55
	c-8.736,4.016-19.087,0.714-23.89-7.598c-1.353-2.343,4.881,8.454-13.177-22.824c-4.834-8.374-2.443-19.056,5.496-24.584
	l23.776-16.531c0.909-0.932,6.355-2.89,4.741-7.66c-6.821-20.164-10.517-41.756-10.517-64.218v-0.041c0-2.205-1.449-4.14-3.581-4.72
	l-35.1-9.627C4.428,250.692-1.39,241.511,0.287,232.05l2.174-12.349L4.863,206.1c1.677-9.523,10.372-16.179,20.009-15.299
	c6.545,0.594-17.915-1.627,37.605,3.416c2.153,0.197,4.171-1.056,5-3.054c7.794-18.891,18.394-36.332,31.291-51.797
	c1.418-1.708,1.553-4.14,0.29-5.973L75.105,98.759c-5.465-7.908-4.016-18.673,3.343-24.843l10.982-9.212l9.202-7.722
	c7.401-6.221,18.342-5.724,25.163,1.139l27.886,28.082c1.463,1.022,4.015,5.958,8.509,3.602
	c16.458-8.591,34.252-14.968,52.997-18.725c2.112-0.424,3.675-2.205,3.882-4.347l4.368-46.839
	c0.89-9.564,8.923-16.883,18.528-16.883h26.343c9.678,0,17.742,7.411,18.549,17.059l3.571,42.367l0.362,4.296
	c0.176,2.194,1.801,3.975,3.954,4.41c17.959,3.623,35.038,9.658,50.907,17.731c1.894,0.973,4.192,0.642,5.703-0.859l34.873-34.459
	c6.832-6.759,17.68-7.204,25.05-1.025c2.102,1.765-7.538-6.328,20.174,16.934c7.411,6.221,8.829,17.079,3.25,24.987
	c-0.439,0.623,3.679-5.217-26.82,38.03c-1.294,1.842-1.159,4.306,0.29,6.024c11.769,13.964,21.654,29.563,29.294,46.393
	c0.859,1.905,2.805,3.074,4.886,2.909l46.942-3.84c9.585-0.776,18.176,5.859,19.843,15.32l4.12,23.352l0.455,2.598
	C513.4,234.762,507.501,243.985,498.143,246.459z"/>
<path style="fill:#ACABB1;" d="M252.894,100.389c-93.229,0-169.076,75.847-169.076,169.077s75.847,169.076,169.076,169.076
	s169.077-75.846,169.077-169.076S346.123,100.389,252.894,100.389z"/>
<circle style="fill:#3E3D42;" cx="252.898" cy="269.469" r="136.986"/>
<path style="fill:#2D2D30;" d="M389.882,269.469c0,68.617-50.451,125.455-116.284,135.433c-6.749,1.025-13.663,1.553-20.702,1.553
	c-75.656,0-136.986-61.33-136.986-136.986s61.33-136.986,136.986-136.986c7.039,0,13.953,0.528,20.702,1.553
	C339.431,144.014,389.882,200.852,389.882,269.469z"/>
<path style="fill:#3E3D42;" d="M389.882,269.466c0,68.617-50.451,125.455-116.284,135.433
	c-65.833-9.978-116.284-66.816-116.284-135.433s50.451-125.455,116.284-135.433C339.431,144.011,389.882,200.849,389.882,269.466z"
	/>
<path style="fill:#78B9EB;" d="M329.277,291.576c-2.12,0-4.239-0.808-5.856-2.425c-38.888-38.889-102.166-38.889-141.055,0
	c-3.235,3.235-8.478,3.233-11.71,0c-3.235-3.235-3.235-8.478,0-11.711c45.347-45.345,119.129-45.345,164.477,0
	c3.234,3.234,3.234,8.477,0,11.711C333.515,290.767,331.395,291.576,329.277,291.576z"/>
<path style="fill:#B3D8F4;" d="M298.641,330.089c-2.12,0-4.239-0.808-5.856-2.425c-21.996-21.998-57.788-21.998-79.785,0
	c-3.234,3.233-8.476,3.233-11.71,0c-3.235-3.235-3.235-8.477,0-11.711c28.454-28.454,74.751-28.454,103.207,0
	c3.234,3.235,3.234,8.477,0,11.711C302.88,329.281,300.761,330.089,298.641,330.089z"/>
<path style="fill:#3D9AE2;" d="M358.837,261.865c-2.292,0-4.573-0.946-6.21-2.799c-26.287-29.762-61.306-46.789-98.607-47.944
	c-37.487-1.144-73.443,13.492-101.212,41.26c-3.234,3.233-8.476,3.233-11.71,0c-3.235-3.235-3.235-8.476,0-11.711
	c31.034-31.034,71.331-47.421,113.435-46.103c41.918,1.298,81.164,20.311,110.507,53.535c3.028,3.428,2.703,8.661-0.725,11.688
	C362.741,261.182,360.785,261.865,358.837,261.865z"/>
<g>
	<path style="fill:#E0E0E2;" d="M288.431,62.437h-20.009c-8.54,0-15.527-6.987-15.527-15.527V6.2c0-1.097,0.114-2.163,0.342-3.188
		h13.073c9.678,0,17.742,7.411,18.549,17.059L288.431,62.437z"/>
	<path style="fill:#E0E0E2;" d="M151.683,86.203l-14.057,11.79c-6.542,5.486-16.386,4.627-21.872-1.915L89.587,64.89l-0.155-0.186
		l9.202-7.722c7.401-6.221,18.342-5.724,25.163,1.139L151.683,86.203z"/>
	<path style="fill:#E0E0E2;" d="M58.948,193.896l-3.426,19.398c-1.48,8.405-9.575,14.077-17.98,12.587l-35.08-6.18L4.863,206.1
		c1.677-9.523,10.372-16.179,20.009-15.299L58.948,193.896z"/>
	<path style="fill:#E0E0E2;" d="M61.059,375.598l-26.302,15.195l-5.879-10.185c-4.834-8.374-2.443-19.056,5.496-24.584
		l23.776-16.531l8.591,14.895C71.017,361.79,68.46,371.334,61.059,375.598z"/>
	<path style="fill:#E0E0E2;" d="M174.279,472.06l-10.341,28.424l-4.482-1.635c-9.088-3.302-14.129-13.032-11.593-22.358
		l7.546-27.824l9.595,3.499C173.027,455.084,177.198,464.038,174.279,472.06z"/>
	<path style="fill:#E0E0E2;" d="M340.093,503.816l-4.606,1.677c-9.088,3.312-19.201-0.901-23.259-9.678l-11.862-25.65l9.678-3.519
		c8.022-2.919,16.976,1.252,19.905,9.285L340.093,503.816z"/>
	<path style="fill:#E0E0E2;" d="M481.002,386.364l-6.397,11.076c-4.834,8.374-15.289,11.655-24.035,7.536l-26.271-12.359
		l-2.039-0.963l8.747-15.154c4.523-7.846,14.647-10.558,22.483-6.024L481.002,386.364z"/>
	<path style="fill:#E0E0E2;" d="M498.143,246.459l-39.458,10.434l-1.584-9.005c-1.48-8.405,4.182-16.5,12.597-17.99l40.09-7.07
		c0.497-0.083,0.983-0.145,1.47-0.186l0.455,2.598C513.4,234.762,507.501,243.985,498.143,246.459z"/>
	<path style="fill:#E0E0E2;" d="M432.704,94.453l-23.652,33.537l-11.79-9.896c-6.542-5.486-7.401-15.33-1.915-21.872l26.178-31.188
		c0.373-0.445,0.766-0.859,1.17-1.242l6.759,5.672C436.865,75.687,438.283,86.545,432.704,94.453z"/>
</g>
<g>
</g>
<g>
</g>
<g>
</g>
<g>
</g>
<g>
</g>
<g>
</g>
<g>
</g>
<g>
</g>
<g>
</g>
<g>
</g>
<g>
</g>
<g>
</g>
<g>
</g>
<g>
</g>
<g>
</g>
</svg>
