<?xml version="1.0" encoding="iso-8859-1"?>
<!-- Generator: Adobe Illustrator 19.0.0, SVG Export Plug-In . SVG Version: 6.00 Build 0)  -->
<svg version="1.1" id="Capa_1" xmlns="http://www.w3.org/2000/svg" xmlns:xlink="http://www.w3.org/1999/xlink" x="0px" y="0px"
	 viewBox="0 0 512.001 512.001" style="enable-background:new 0 0 512.001 512.001;" xml:space="preserve">
<path style="fill:#2D2D30;" d="M400.973,166.167v300c0,15.412-12.611,28.023-28.023,28.023H240.399
	c-15.412,0-28.023-12.611-28.023-28.023v-300c0-15.412,12.611-28.023,28.023-28.023H372.95
	C388.361,138.144,400.973,150.755,400.973,166.167z"/>
<path style="fill:#57565C;" d="M400.973,166.167v300c0,15.412-12.611,28.023-28.023,28.023H261.512
	c-15.412,0-28.023-12.611-28.023-28.023v-300c0-15.412,12.611-28.023,28.023-28.023H372.95
	C388.361,138.144,400.973,150.755,400.973,166.167z"/>
<rect x="212.377" y="193.084" style="fill:#D1E7F8;" width="188.598" height="246.173"/>
<g>
	<rect x="212.377" y="193.084" style="fill:#B3D8F4;" width="21.113" height="246.173"/>
	<path style="fill:#B3D8F4;" d="M433.635,145.979c-4.166,0-7.544-3.377-7.544-7.544c0-19.748-16.066-35.813-35.813-35.813
		c-4.166,0-7.544-3.377-7.544-7.544s3.378-7.544,7.544-7.544c28.067,0,50.901,22.834,50.901,50.901
		C441.179,142.603,437.802,145.979,433.635,145.979z"/>
</g>
<path style="fill:#3D9AE2;" d="M504.457,145.979c-4.166,0-7.544-3.377-7.544-7.544c0-58.799-47.836-106.636-106.636-106.636
	c-4.166,0-7.544-3.377-7.544-7.544s3.378-7.544,7.544-7.544c67.119,0,121.724,54.605,121.724,121.723
	C512,142.603,508.624,145.979,504.457,145.979z"/>
<path style="fill:#78B9EB;" d="M470.379,145.979c-4.166,0-7.544-3.377-7.544-7.544c0-40.008-32.548-72.557-72.557-72.557
	c-4.166,0-7.544-3.377-7.544-7.544s3.378-7.544,7.544-7.544c48.327,0,87.645,39.318,87.645,87.645
	C477.923,142.603,474.546,145.979,470.379,145.979z"/>
<g>
	<path style="fill:#1D1D1F;" d="M305.78,173.099h-29.732c-4.444,0-8.047-3.603-8.047-8.047s3.603-8.047,8.047-8.047h29.732
		c4.444,0,8.047,3.603,8.047,8.047S310.225,173.099,305.78,173.099z"/>
	<circle style="fill:#1D1D1F;" cx="330.957" cy="165.051" r="5.994"/>
	<path style="fill:#1D1D1F;" d="M328.439,474.714H284.56c-4.166,0-7.544-3.377-7.544-7.544s3.378-7.544,7.544-7.544h43.879
		c4.166,0,7.544,3.377,7.544,7.544S332.605,474.714,328.439,474.714z"/>
</g>
<g>
	<path style="fill:#3D9AE2;" d="M333.13,259.89c-3.766-1.774-8.264-0.159-10.038,3.611c-1.774,3.77-0.158,8.264,3.611,10.038
		c16.576,7.805,27.285,24.679,27.285,42.989c0,24.335-18.217,44.634-42.374,47.217c-0.903,0.097-1.753,0.349-2.525,0.728
		c-0.808-0.296-1.68-0.457-2.59-0.457c-26.184,0-47.487-21.303-47.487-47.488c0-16.69,8.517-31.854,22.782-40.564
		c3.557-2.172,4.678-6.814,2.508-10.37c-2.172-3.556-6.814-4.68-10.37-2.508c-18.79,11.473-30.008,31.451-30.008,53.442
		c0,34.505,28.071,62.576,62.575,62.576c1.194,0,2.323-0.277,3.326-0.771c1.051,0.385,2.205,0.541,3.392,0.413
		c31.844-3.404,55.857-30.152,55.857-62.218C369.076,292.403,354.967,270.172,333.13,259.89z"/>
	<path style="fill:#3D9AE2;" d="M306.499,319.646c4.166,0,7.544-3.377,7.544-7.544v-68.316c0-4.167-3.378-7.544-7.544-7.544
		c-4.166,0-7.544,3.377-7.544,7.544v68.316C298.956,316.269,302.333,319.646,306.499,319.646z"/>
</g>
<path style="fill:#C70024;" d="M176.609,78.317c0,24.643-14.484,45.917-35.416,55.744c-7.936,3.742-16.798,5.824-26.152,5.824
	c-33.988,0-61.548-27.57-61.548-61.568c0-0.805,0.02-1.589,0.05-2.384v-0.01c0.101,0.01,0.201,0.02,0.312,0.01
	c0.101,0.01,0.211,0.01,0.312,0.01h121.759c0.211,0,0.422,0,0.634-0.02v0.02C176.589,76.728,176.609,77.523,176.609,78.317z"/>
<path style="fill:#FF3F62;" d="M115.728,156.486c-4.166,0-7.544,3.377-7.544,7.544v20.407c0,4.167,3.378,7.544,7.544,7.544
	c4.166,0,7.544-3.377,7.544-7.544V164.03C123.272,159.864,119.894,156.486,115.728,156.486z"/>
<path style="fill:#FF0C38;" d="M152.244,156.161c-1.329-3.949-5.608-6.069-9.556-4.744c-3.949,1.329-6.072,5.608-4.744,9.557
	l6.51,19.341c1.06,3.15,3.998,5.139,7.149,5.139c0.798,0,1.609-0.128,2.408-0.396c3.949-1.329,6.072-5.608,4.744-9.557
	L152.244,156.161z"/>
<path style="fill:#FF3F62;" d="M177.397,138.385c-2.599-3.256-7.346-3.787-10.603-1.189c-3.256,2.6-3.788,7.347-1.189,10.603
	l12.732,15.947c1.49,1.866,3.685,2.837,5.9,2.837c1.651,0,3.312-0.539,4.702-1.649c3.256-2.6,3.788-7.347,1.189-10.603
	L177.397,138.385z"/>
<path style="fill:#FF0C38;" d="M212.372,123.711l-17.418-10.631c-3.557-2.172-8.198-1.047-10.369,2.509
	c-2.171,3.556-1.047,8.199,2.51,10.369l17.418,10.631c1.227,0.749,2.583,1.106,3.923,1.106c2.543,0,5.025-1.285,6.447-3.615
	C217.051,130.524,215.927,125.881,212.372,123.711z"/>
<g>
	<path style="fill:#FF3F62;" d="M222.799,87.328l-20.004-4.034c-4.09-0.823-8.063,1.822-8.886,5.904
		c-0.824,4.085,1.82,8.063,5.904,8.886l20.004,4.034c0.503,0.102,1.005,0.149,1.499,0.149c3.517,0,6.665-2.473,7.387-6.054
		C229.527,92.129,226.884,88.151,222.799,87.328z"/>
	<path style="fill:#FF3F62;" d="M35.181,90.687c-0.624-4.119-4.47-6.941-8.587-6.331L6.417,87.409
		c-4.12,0.624-6.954,4.468-6.331,8.588c0.565,3.737,3.781,6.416,7.449,6.416c0.375,0,0.755-0.028,1.138-0.085l20.177-3.052
		C32.97,98.652,35.805,94.807,35.181,90.687z"/>
</g>
<path style="fill:#FF0C38;" d="M45,116.898c-1.995-3.657-6.576-5.004-10.235-3.012l-17.916,9.769
	c-3.658,1.995-5.007,6.577-3.013,10.236c1.369,2.511,3.958,3.933,6.631,3.933c1.22,0,2.457-0.297,3.604-0.921l17.916-9.769
	C45.646,125.138,46.995,120.556,45,116.898z"/>
<path style="fill:#FF3F62;" d="M63.192,138.169c-3.125-2.755-7.892-2.454-10.647,0.67l-13.495,15.308
	c-2.755,3.125-2.455,7.893,0.671,10.648c1.434,1.264,3.214,1.885,4.986,1.885c2.091,0,4.17-0.863,5.662-2.555l13.493-15.308
	C66.617,145.691,66.317,140.925,63.192,138.169z"/>
<path style="fill:#FF0C38;" d="M87.562,151.936c-3.881-1.519-8.256,0.393-9.776,4.272l-7.444,19
	c-1.52,3.879,0.392,8.256,4.272,9.777c0.904,0.354,1.835,0.522,2.75,0.522c3.014,0,5.86-1.819,7.026-4.794l7.444-19
	C93.354,157.833,91.441,153.457,87.562,151.936z"/>
<path style="fill:#FFA733;" d="M480.628,430.612l-60.08,26.19c-7.177,3.13-15.615-0.185-18.745-7.362l-5.183-11.888
	c-0.505-1.153-1.489-2.019-2.701-2.364l-41.234-11.745c-8.413-2.398-13.596-11.325-11.089-19.704
	c2.456-8.187,11.106-12.948,19.343-10.601l10.063,2.718c2.801,0.757,5.309-1.438,5.309-4.039c0-0.555-0.118-1.128-0.362-1.691
	c-0.135-0.295-0.252-0.597-0.362-0.9c-0.143-0.286-0.286-0.58-0.42-0.875l-29.354-67.324c-3.408-7.825,0.059-16.995,7.707-20.646
	c0.547-0.261,1.11-0.496,1.7-0.698c7.867-2.693,16.465,1.346,19.788,8.968l27.79,63.731l44.069-19.216
	c7.177-3.13,15.607,0.185,18.737,7.362l21.067,48.309l1.321,3.029C491.111,419.053,487.805,427.483,480.628,430.612z"/>
<path style="fill:#1A6FB0;" d="M498.111,466.057l-50.497,22.018l-14.791,6.453c-4.627,2.011-10.003-0.101-12.023-4.719
	l-8.505-19.519c-2.373-5.452,0.135-11.846,5.587-14.219l15.169-6.622l47.048-20.511c5.452-2.373,11.846,0.143,14.219,5.587
	l8.515,19.519C504.841,458.662,502.73,464.046,498.111,466.057z"/>
<path style="fill:#3D9AE2;" d="M498.111,466.057l-50.497,22.018c-2.826-0.757-5.292-2.743-6.554-5.637l-9.297-21.328
	c-1.725-3.954-1.085-8.38,1.288-11.661l47.048-20.511c5.452-2.373,11.846,0.143,14.219,5.587l8.515,19.519
	C504.841,458.662,502.73,464.046,498.111,466.057z"/>
<path style="fill:#FFC477;" d="M486.668,408.838l-58.397,25.997c-7.025,3.121-15.254-0.042-18.358-7.067l-56.395-127.386
	c0.547-0.261,1.11-0.496,1.7-0.698c7.867-2.693,16.465,1.346,19.788,8.968l27.79,63.731l44.069-19.216
	c7.177-3.13,15.607,0.185,18.737,7.362L486.668,408.838z"/>
<path style="fill:#1D1D1F;" d="M218.101,33.768c0,11.648-4.717,22.189-12.352,29.824c-7.494,7.494-17.794,12.181-29.19,12.342
	c-0.211,0.01-0.422,0.01-0.634,0.01H54.167c-0.211,0-0.422,0-0.624-0.01c-23.004-0.332-41.542-19.081-41.542-42.165
	c0-2.444,0.986-4.647,2.585-6.246c1.599-1.609,3.812-2.595,6.256-2.595h188.417C214.138,24.927,218.101,28.89,218.101,33.768z"/>
<path style="fill:#FF0C38;" d="M176.559,75.944c0.03,0.785,0.05,1.579,0.05,2.374c0,24.643-14.484,45.917-35.416,55.744
	c-20.912-9.837-35.396-31.101-35.396-55.744c0-0.795,0.02-1.589,0.05-2.374v-0.02c0.101,0.01,0.201,0.02,0.312,0.01
	c0.101,0.01,0.211,0.01,0.312,0.01L176.559,75.944L176.559,75.944z"/>
<path style="fill:#2D2D30;" d="M218.101,33.768c0,11.648-4.717,22.189-12.352,29.824c-7.494,7.494-17.794,12.181-29.19,12.342v0.01
	h-70.088c-0.211,0-0.422,0-0.624-0.01c-23.004-0.332-41.542-19.081-41.542-42.165c0-2.444,0.986-4.647,2.585-6.246
	c1.599-1.609,3.812-2.595,6.256-2.595h136.112C214.138,24.927,218.101,28.89,218.101,33.768z"/>
<g>
</g>
<g>
</g>
<g>
</g>
<g>
</g>
<g>
</g>
<g>
</g>
<g>
</g>
<g>
</g>
<g>
</g>
<g>
</g>
<g>
</g>
<g>
</g>
<g>
</g>
<g>
</g>
<g>
</g>
</svg>
