<?xml version="1.0" encoding="iso-8859-1"?>
<!-- Generator: Adobe Illustrator 19.0.0, SVG Export Plug-In . SVG Version: 6.00 Build 0)  -->
<svg version="1.1" id="Capa_1" xmlns="http://www.w3.org/2000/svg" xmlns:xlink="http://www.w3.org/1999/xlink" x="0px" y="0px"
	 viewBox="0 0 512 512" style="enable-background:new 0 0 512 512;" xml:space="preserve">
<path style="fill:#2D2D30;" d="M422.398,40.298v431.404c0,22.162-18.136,40.298-40.298,40.298H129.899
	c-22.162,0-40.298-18.136-40.298-40.298V40.298C89.602,18.136,107.737,0,129.899,0h252.201C404.263,0,422.398,18.136,422.398,40.298
	z"/>
<path style="fill:#57565C;" d="M422.398,40.298v431.404c0,22.162-18.136,40.298-40.298,40.298H160.26
	c-22.162,0-40.298-18.136-40.298-40.298V40.298C119.962,18.136,138.098,0,160.26,0h221.84C404.263,0,422.398,18.136,422.398,40.298z
	"/>
<rect x="89.602" y="79.002" style="fill:#D8D7DA;" width="332.797" height="353.997"/>
<rect x="89.602" y="79.002" style="fill:#ACABB1;" width="30.361" height="353.997"/>
<g>
	<path style="fill:#1D1D1F;" d="M285.722,264.281H181.939c-4.573,0-8.281-3.708-8.281-8.281c0-4.573,3.708-8.281,8.281-8.281
		h103.783c4.573,0,8.281,3.708,8.281,8.281C294.003,260.573,290.296,264.281,285.722,264.281z"/>
	<circle style="fill:#1D1D1F;" cx="321.949" cy="256" r="8.626"/>
	<path style="fill:#1D1D1F;" d="M291.453,254.044v3.913c0,6.325-5.176,11.5-11.5,11.5h-47.389c-6.325,0-11.5-5.176-11.5-11.5v-3.913
		c0-6.325,5.176-11.5,11.5-11.5h47.389C286.278,242.543,291.453,247.719,291.453,254.044z"/>
</g>
<path style="fill:#2D2D30;" d="M291.453,254.044v3.913c0,6.325-5.176,11.5-11.5,11.5h-22.545c-6.325,0-11.5-5.176-11.5-11.5v-3.913
	c0-6.325,5.176-11.5,11.5-11.5h22.545C286.278,242.543,291.453,247.719,291.453,254.044z"/>
<path style="fill:#1A6FB0;" d="M379.585,297.115c-1.532,4.596-3.302,9.109-5.341,13.509c-8.447,18.26-21.158,34.656-37.544,47.523
	c-7.184,5.652-15.082,10.631-23.632,14.792c-12.028,5.838-24.502,9.648-37.058,11.583c-17.887,2.753-35.909,1.677-52.978-2.836
	c-4.668-1.242-9.285-2.733-13.798-4.482c-29.533-11.48-54.966-33.673-69.924-64.396c-15.486-31.882-16.759-66.984-6.314-98.131
	c1.511-4.534,3.271-8.985,5.29-13.312c12.163-26.272,33.114-48.662,61.166-62.295c9.606-4.668,19.502-8.033,29.501-10.196
	c15.651-3.375,31.53-3.758,46.902-1.387c4.586,0.704,9.13,1.646,13.612,2.836c4.606,1.221,9.161,2.702,13.612,4.42
	c29.626,11.428,55.152,33.663,70.12,64.458C388.663,231,389.968,266.029,379.585,297.115z"/>
<path style="fill:#1E81CE;" d="M379.585,297.111c-1.532,4.596-3.302,9.109-5.341,13.509c-8.447,18.26-21.158,34.656-37.544,47.523
	c-7.184,5.652-15.082,10.631-23.632,14.792c-12.028,5.838-24.502,9.647-37.058,11.583c-4.606-0.704-9.161-1.656-13.643-2.836
	c-4.668-1.242-9.285-2.733-13.798-4.482c-29.532-11.48-54.966-33.673-69.924-64.396c-15.486-31.882-16.759-66.984-6.314-98.131
	c1.511-4.534,3.271-8.985,5.29-13.312c12.163-26.272,33.114-48.662,61.166-62.295c9.606-4.668,19.502-8.033,29.501-10.196
	c2.515-0.538,5.041-1.004,7.567-1.387c4.586,0.704,9.13,1.646,13.612,2.836c4.606,1.221,9.161,2.702,13.612,4.42
	c29.626,11.428,55.152,33.663,70.12,64.458C388.663,230.996,389.968,266.025,379.585,297.111z"/>
<path style="fill:#3D9AE2;" d="M380.65,195.668c0-0.001-0.001-0.002-0.001-0.003c-18.359-37.739-52.822-65.032-93.155-74.351
	c-113.471-26.181-206.246,91.04-155.629,195.207c33.469,68.791,116.209,97.27,184.827,63.951
	c8.939-4.353,17.392-9.641,25.123-15.721C390.933,326.159,410.141,256.351,380.65,195.668z M377.761,247.811h-42.446
	c-0.916-18.661-4.95-36.737-11.779-53.447c9.127-4.609,17.801-10.171,25.878-16.63c6.398,7.613,11.899,16.048,16.339,25.174
	C372.695,217.191,376.712,232.403,377.761,247.811z M229.713,137.288c-13.753,11.827-25.082,26.17-33.656,42.076
	c-7.497-3.818-14.659-8.339-21.36-13.569C190.753,151.291,209.655,141.798,229.713,137.288z M337.866,165.764
	c-6.715,5.243-13.893,9.774-21.406,13.6c-7.839-14.541-17.95-27.722-30.095-38.919c-1.152-1.061-2.326-2.093-3.511-3.114
	c1.503,0.337,3.002,0.696,4.492,1.09C305.765,143.299,323.194,152.499,337.866,165.764z M264.54,143.91
	c15.302,11.222,27.661,25.772,36.659,42.052c-11.726,4.216-24.056,6.776-36.659,7.56V143.91z M247.978,143.912v49.611
	c-12.606-0.784-24.935-3.342-36.66-7.558C220.297,169.716,232.643,155.155,247.978,143.912z M247.978,210.133v37.679h-54.194
	c0.89-16.351,4.439-32.173,10.372-46.812C218.125,206.197,232.883,209.3,247.978,210.133z M247.978,264.373v37.314
	c-15.108,0.834-29.88,3.942-43.863,9.149c-5.872-14.551-9.407-30.264-10.32-46.462L247.978,264.373L247.978,264.373z
	 M247.978,318.298v49.881c-15.271-11.24-27.63-25.748-36.726-42.3C222.998,321.65,235.35,319.082,247.978,318.298z M229.786,374.843
	c-20.445-4.559-39.511-14.314-55.318-28.656c6.752-5.288,13.973-9.855,21.535-13.707
	C204.702,348.696,216.087,363.055,229.786,374.843z M282.706,374.869c13.992-12.043,25.284-26.495,33.809-42.39
	c7.565,3.855,14.789,8.425,21.545,13.716C322.735,360.148,303.545,370.251,282.706,374.869z M264.54,368.179v-49.881
	c12.628,0.785,24.98,3.351,36.726,7.58C292.207,342.364,279.82,356.95,264.54,368.179z M264.54,301.688v-37.314h54.183
	c-0.914,16.199-4.449,31.912-10.321,46.462C294.42,305.629,279.648,302.521,264.54,301.688z M264.54,247.811v-37.678
	c15.092-0.833,29.85-3.937,43.821-9.135c5.934,14.641,9.483,30.463,10.373,46.814H264.54V247.811z M163.132,177.758
	c8.068,6.45,16.732,12.005,25.848,16.609c-6.828,16.708-10.861,34.784-11.777,53.445h-42.425
	C136.542,222.479,146.126,197.943,163.132,177.758z M134.757,264.373h42.456c0.941,18.504,4.963,36.473,11.73,53.095
	c-9.184,4.639-17.91,10.244-26.032,16.756C146.419,314.507,136.5,289.966,134.757,264.373z M349.603,334.224
	c-8.122-6.512-16.847-12.115-26.031-16.755c6.767-16.622,10.789-34.591,11.73-53.096h42.44
	C376.024,289.004,366.747,313.721,349.603,334.224z"/>
<g>
	<path style="fill:#1D1D1F;" d="M289.604,47.938H185.821c-4.573,0-8.281-3.708-8.281-8.281s3.708-8.281,8.281-8.281h103.783
		c4.573,0,8.281,3.708,8.281,8.281S294.178,47.938,289.604,47.938z"/>
	<circle style="fill:#1D1D1F;" cx="325.83" cy="39.656" r="8.626"/>
	<path style="fill:#1D1D1F;" d="M295.335,470.387v3.913c0,6.325-5.176,11.5-11.5,11.5h-47.389c-6.325,0-11.5-5.176-11.5-11.5v-3.913
		c0-6.325,5.176-11.5,11.5-11.5h47.389C290.16,458.887,295.335,464.063,295.335,470.387z"/>
</g>
<path style="fill:#2D2D30;" d="M295.335,470.387v3.913c0,6.325-5.176,11.5-11.5,11.5H261.29c-6.325,0-11.5-5.176-11.5-11.5v-3.913
	c0-6.325,5.176-11.5,11.5-11.5h22.545C290.16,458.887,295.335,464.063,295.335,470.387z"/>
<g>
</g>
<g>
</g>
<g>
</g>
<g>
</g>
<g>
</g>
<g>
</g>
<g>
</g>
<g>
</g>
<g>
</g>
<g>
</g>
<g>
</g>
<g>
</g>
<g>
</g>
<g>
</g>
<g>
</g>
</svg>
