<?xml version="1.0" encoding="iso-8859-1"?>
<!-- Generator: Adobe Illustrator 19.0.0, SVG Export Plug-In . SVG Version: 6.00 Build 0)  -->
<svg version="1.1" id="Capa_1" xmlns="http://www.w3.org/2000/svg" xmlns:xlink="http://www.w3.org/1999/xlink" x="0px" y="0px"
	 viewBox="0 0 512 512" style="enable-background:new 0 0 512 512;" xml:space="preserve">
<path style="fill:#165C92;" d="M379.963,279.218c-10.211,54.504-54.265,94.281-106.356,101.665
	c-13.235,1.885-26.977,1.667-40.823-0.922c-68.35-12.8-113.543-78.83-100.743-147.179c12.448-66.475,75.247-111.047,141.566-101.665
	c1.864,0.269,3.738,0.57,5.613,0.922C347.57,144.839,392.763,210.869,379.963,279.218z"/>
<path style="fill:#1E81CE;" d="M379.963,279.218c-10.211,54.504-54.265,94.281-106.356,101.665c-1.864-0.269-3.738-0.57-5.613-0.922
	c-68.35-12.8-113.543-78.83-100.743-147.179c10.211-54.504,54.265-94.281,106.356-101.665c1.864,0.269,3.738,0.57,5.613,0.922
	C347.57,144.839,392.763,210.869,379.963,279.218z"/>
<g>
	<path style="fill:#78B9EB;" d="M169.871,227.21c-4.664,13.969-5.885,28.74-3.614,43.081c0.715,4.526,4.961,7.601,9.486,6.887
		c4.515-0.715,7.601-4.961,6.876-9.476c-0.259-1.626-0.456-3.272-0.601-4.919h20.837c0.639,10.751,2.767,21.223,6.254,31.058
		c-4.122,2.258-8.098,4.816-11.878,7.653c-1.885-2.434-3.625-4.992-5.188-7.653c-2.32-3.935-7.405-5.25-11.34-2.92
		c-3.946,2.32-5.261,7.405-2.931,11.34c39.046,66.202,139.426,57.485,164.401-17.439c7.281-21.813,6.31-46.257-4.463-68.432
		C302.334,143.699,195.849,150.027,169.871,227.21z M203.069,246.214h-20.677c1.681-12.577,6.633-24.984,14.944-35.656
		c3.739,2.827,7.663,5.344,11.744,7.57C205.919,227.045,203.891,236.495,203.069,246.214z M209.017,198.586
		c4.823-3.973,10.345-7.424,16.249-10.087c-3.542,4.505-6.7,9.341-9.445,14.426C213.491,201.59,211.212,200.15,209.017,198.586z
		 M208.903,313.486c2.247-1.595,4.577-3.076,6.959-4.432c2.806,5.209,6.048,10.149,9.673,14.747
		C222.277,322.527,215.205,318.655,208.903,313.486z M247.717,323.369c-6.724-6.075-12.251-13.178-16.632-21.005
		c5.379-1.733,10.952-2.889,16.632-3.468V323.369z M247.717,282.242c-8.017,0.677-15.873,2.332-23.394,4.909
		c-2.64-7.742-4.273-15.944-4.856-24.368h28.25V282.242z M247.717,246.214h-28.007c0.728-7.385,2.258-14.568,4.571-21.385
		c7.539,2.585,15.408,4.247,23.436,4.928V246.214z M247.717,213.103c-5.696-0.582-11.286-1.744-16.683-3.478
		c4.339-7.741,9.894-14.894,16.683-21.013V213.103z M322.809,223.638c3.5,7.218,5.799,14.778,6.835,22.576h-20.707
		c-0.822-9.719-2.851-19.169-6.011-28.085c4.08-2.227,8.005-4.753,11.754-7.57C317.807,214.586,320.53,218.967,322.809,223.638z
		 M302.987,198.586c-2.195,1.564-4.463,3.003-6.804,4.329c-2.755-5.085-5.903-9.911-9.445-14.416
		C293.024,191.315,299.103,195.288,302.987,198.586z M264.287,188.615c6.796,6.119,12.344,13.277,16.684,21.001
		c-5.398,1.741-10.988,2.906-16.684,3.488V188.615L264.287,188.615z M264.287,229.759c8.034-0.678,15.902-2.336,23.436-4.93
		c2.315,6.817,3.843,14,4.571,21.385h-28.007V229.759z M264.287,262.783h28.25c-0.583,8.424-2.216,16.626-4.856,24.368
		c-7.522-2.577-15.378-4.23-23.394-4.909V262.783z M264.287,323.372v-24.476c5.679,0.579,11.253,1.737,16.632,3.468
		C276.573,310.128,271.072,317.234,264.287,323.372z M290.26,321.978c-0.021,0.021-0.041,0.021-0.052,0.031
		c-1.269,0.657-2.457,1.24-3.676,1.781c-0.021,0.021-0.052,0.031-0.072,0.031c3.635-4.598,6.876-9.548,9.693-14.768
		c2.392,1.357,4.712,2.838,6.97,4.443C302.89,313.662,297.32,318.384,290.26,321.978z M314.762,301.494
		c-3.78-2.848-7.746-5.395-11.868-7.653c3.488-9.835,5.615-20.307,6.254-31.058h20.837
		C328.752,276.353,323.712,289.897,314.762,301.494z"/>
	<path style="fill:#78B9EB;" d="M433.783,246.214h-43.704c-2.04-28.312-13.273-56.616-33.665-79.534
		c8.127-8.127,31.481-31.481,38.99-38.99c3.231-3.241,3.231-8.482,0-11.723c-3.231-3.231-8.482-3.231-11.713,0
		c-1.778,1.777-38.55,38.539-39.028,39.017c-22.702-20.026-51.016-31.191-79.963-33.114V63.917c0-4.567-3.707-8.285-8.285-8.285
		c-4.577,0-8.285,3.718-8.285,8.285v57.877c-29.757,1.713-57.791,13.472-79.575,32.169l-37.654-37.654
		c-3.231-3.231-8.482-3.231-11.713,0c-3.241,3.231-3.241,8.482,0,11.713l37.467,37.467c-21.102,23.041-32.542,51.743-34.703,80.726
		H76.761c-4.577,0-8.285,3.707-8.285,8.285c0,4.567,3.707,8.285,8.285,8.285h44.982c1.445,29.264,12.684,58.609,33.578,82.237
		c-7.584,7.584-28.629,28.628-35.79,35.79c-3.241,3.231-3.241,8.482,0,11.713c3.236,3.236,8.488,3.225,11.713,0l35.781-35.781
		c22.516,19.987,51.082,31.624,81.086,33.436v57.904c0,4.567,3.707,8.285,8.285,8.285c4.577,0,8.285-3.718,8.285-8.285v-57.941
		c30.961-1.972,59.762-14.69,82.164-35.139c37.937,36.728,36.931,39.612,43.039,39.612c2.123,0,4.236-0.818,5.861-2.434
		c3.231-3.231,3.231-8.482,0-11.713l-37.372-37.372c19.436-22.736,30.345-51.099,31.867-80.314h43.542
		c4.567,0,8.285-3.718,8.285-8.285C442.068,249.921,438.35,246.214,433.783,246.214z M243.248,373.143
		c-32.688-3.657-64.295-21.203-84.43-50.619c-45.286-66.157-12.813-157.752,65.161-179.925
		c68.507-19.188,138.508,25.995,148.679,96.568C383.481,314.942,319.976,381.595,243.248,373.143z"/>
</g>
<g>
	<path style="fill:#1E81CE;" d="M288.365,31.959c0,10.47-5.023,19.749-12.8,25.579c-5.344,4.008-11.972,6.379-19.159,6.379
		c-17.657,0-31.969-14.302-31.969-31.959C224.437,14.312,238.749,0,256.406,0c7.187,0,13.815,2.382,19.159,6.379
		C283.342,12.21,288.365,21.499,288.365,31.959z"/>
	<path style="fill:#1E81CE;" d="M288.365,480.041c0,10.46-5.023,19.749-12.8,25.579c-5.344,3.997-11.972,6.379-19.159,6.379
		c-17.657,0-31.969-14.312-31.969-31.959c0-17.657,14.312-31.959,31.969-31.959c7.187,0,13.815,2.372,19.159,6.379
		C283.342,460.293,288.365,469.572,288.365,480.041z"/>
	<path style="fill:#1E81CE;" d="M76.75,254.498c0,10.46-5.023,19.749-12.8,25.579c-5.344,4.008-11.972,6.379-19.159,6.379
		c-17.657,0-31.969-14.312-31.969-31.959c0-17.657,14.312-31.969,31.969-31.969c7.187,0,13.815,2.382,19.159,6.379
		C71.728,234.739,76.75,244.028,76.75,254.498z"/>
	<path style="fill:#1E81CE;" d="M489.478,277.427c-0.994,0.963-2.04,1.854-3.117,2.651c-12.676,9.517-30.747,8.357-42.076-3.314
		c-12.293-12.665-11.992-32.901,0.673-45.204c11.433-11.102,29.049-11.93,41.424-2.651c1.315,0.994,2.579,2.102,3.77,3.324
		C502.444,244.898,502.143,265.134,489.478,277.427z"/>
	<path style="fill:#1E81CE;" d="M124.378,121.724c-1.087,1.087-2.237,2.082-3.438,2.983c-12.52,9.403-30.364,8.409-41.755-2.983
		c-12.489-12.489-12.489-32.725,0-45.204c11.392-11.392,29.235-12.386,41.755-2.983c1.201,0.891,2.351,1.895,3.438,2.983
		C136.867,88.999,136.867,109.235,124.378,121.724z"/>
	<path style="fill:#1E81CE;" d="M435.751,431.969c-1.098,1.098-2.247,2.092-3.449,2.983c-12.52,9.414-30.374,8.409-41.755-2.983
		c-12.479-12.479-12.479-32.715,0-45.194c11.381-11.392,29.235-12.396,41.755-2.983c1.201,0.891,2.351,1.885,3.449,2.983
		C448.23,399.254,448.23,419.49,435.751,431.969z"/>
	<path style="fill:#1E81CE;" d="M435.192,121.165c-1.098,1.087-2.247,2.092-3.449,2.983c-12.52,9.403-30.374,8.399-41.755-2.983
		c-12.479-12.479-12.479-32.725,0-45.204c11.381-11.381,29.235-12.386,41.755-2.983c1.201,0.891,2.351,1.885,3.449,2.983
		C447.671,88.44,447.671,108.686,435.192,121.165z"/>
	<path style="fill:#1E81CE;" d="M124.937,432.528c-1.087,1.087-2.237,2.092-3.438,2.983c-12.52,9.414-30.364,8.419-41.755-2.983
		c-12.489-12.479-12.489-32.715,0-45.194c11.392-11.402,29.235-12.396,41.755-2.983c1.201,0.891,2.351,1.895,3.438,2.983
		C137.426,399.814,137.426,420.049,124.937,432.528z"/>
</g>
<g>
	<path style="fill:#3D9AE2;" d="M288.365,31.959c0,10.47-5.023,19.749-12.8,25.579c-7.777-5.82-12.81-15.109-12.81-25.579
		c0-10.46,5.033-19.759,12.81-25.579C283.342,12.21,288.365,21.499,288.365,31.959z"/>
	<path style="fill:#3D9AE2;" d="M288.365,480.041c0,10.46-5.023,19.749-12.8,25.579c-7.777-5.82-12.81-15.12-12.81-25.579
		c0-10.47,5.033-19.759,12.81-25.579C283.342,460.293,288.365,469.572,288.365,480.041z"/>
	<path style="fill:#3D9AE2;" d="M76.75,254.498c0,10.46-5.023,19.749-12.8,25.579c-7.777-5.82-12.81-15.12-12.81-25.579
		c0-10.47,5.033-19.759,12.81-25.59C71.728,234.739,76.75,244.028,76.75,254.498z"/>
	<path style="fill:#3D9AE2;" d="M489.478,277.427c-0.994,0.963-2.04,1.854-3.117,2.651c-1.315-0.994-2.579-2.092-3.759-3.314
		c-12.293-12.665-11.992-32.901,0.673-45.204c0.994-0.963,2.03-1.843,3.107-2.651c1.315,0.994,2.579,2.102,3.77,3.324
		C502.444,244.898,502.143,265.134,489.478,277.427z"/>
	<path style="fill:#3D9AE2;" d="M124.378,121.724c-1.087,1.087-2.237,2.082-3.438,2.983c-1.201-0.901-2.351-1.895-3.438-2.983
		c-12.489-12.489-12.489-32.725,0-45.204c1.087-1.087,2.237-2.092,3.438-2.983c1.201,0.891,2.351,1.895,3.438,2.983
		C136.867,88.999,136.867,109.235,124.378,121.724z"/>
	<path style="fill:#3D9AE2;" d="M435.751,431.969c-1.098,1.098-2.247,2.092-3.449,2.983c-1.201-0.891-2.351-1.895-3.438-2.983
		c-12.479-12.479-12.479-32.715,0-45.194c1.087-1.087,2.237-2.092,3.438-2.983c1.201,0.891,2.351,1.885,3.449,2.983
		C448.23,399.254,448.23,419.49,435.751,431.969z"/>
	<path style="fill:#3D9AE2;" d="M435.192,121.165c-1.098,1.087-2.247,2.092-3.449,2.983c-1.201-0.901-2.351-1.895-3.438-2.983
		c-12.479-12.479-12.479-32.725,0-45.204c1.087-1.087,2.237-2.092,3.438-2.983c1.201,0.891,2.351,1.885,3.449,2.983
		C447.671,88.44,447.671,108.686,435.192,121.165z"/>
	<path style="fill:#3D9AE2;" d="M124.937,432.528c-1.087,1.087-2.237,2.092-3.438,2.983c-1.201-0.891-2.351-1.895-3.438-2.983
		c-12.489-12.479-12.489-32.715,0-45.194c1.087-1.087,2.237-2.092,3.438-2.983c1.201,0.891,2.351,1.895,3.438,2.983
		C137.426,399.814,137.426,420.049,124.937,432.528z"/>
</g>
<g>
</g>
<g>
</g>
<g>
</g>
<g>
</g>
<g>
</g>
<g>
</g>
<g>
</g>
<g>
</g>
<g>
</g>
<g>
</g>
<g>
</g>
<g>
</g>
<g>
</g>
<g>
</g>
<g>
</g>
</svg>
