<?xml version="1.0" encoding="iso-8859-1"?>
<!-- Generator: Adobe Illustrator 19.0.0, SVG Export Plug-In . SVG Version: 6.00 Build 0)  -->
<svg version="1.1" id="Capa_1" xmlns="http://www.w3.org/2000/svg" xmlns:xlink="http://www.w3.org/1999/xlink" x="0px" y="0px"
	 viewBox="0 0 512 512" style="enable-background:new 0 0 512 512;" xml:space="preserve">
<path style="fill:#C70024;" d="M405.558,274.198h0.3L286.496,485.066l-7.743,13.674c-5.01,8.84-13.881,13.26-22.752,13.26
	s-17.742-4.42-22.752-13.26L106.144,274.198h0.3c-18.042-27.969-28.466-61.311-28.311-97.096C78.547,79.085,157.849,0.093,255.835,0
	h0.166c98.235,0,177.868,79.633,177.868,177.868C433.869,213.373,423.466,246.435,405.558,274.198z"/>
<path style="fill:#FF0C38;" d="M405.558,274.198h0.3L286.496,485.066L162.031,265.202h0.311
	c-18.042-27.969-28.466-61.311-28.311-97.096C134.362,89.633,185.26,23.342,255.835,0h0.166
	c98.235,0,177.868,79.633,177.868,177.868C433.869,213.373,423.466,246.435,405.558,274.198z"/>
<path style="fill:#A5001E;" d="M392.991,180.466c0,65.524-46.012,120.314-107.489,133.802c-9.503,2.091-19.378,3.188-29.501,3.188
	c-75.658,0-136.99-61.332-136.99-136.99s61.332-136.99,136.99-136.99c10.124,0,19.999,1.097,29.501,3.188
	C346.979,60.152,392.991,114.942,392.991,180.466z"/>
<path style="fill:#C70024;" d="M392.991,180.466c0,65.524-46.012,120.314-107.489,133.802
	c-61.487-13.488-107.499-68.278-107.499-133.802S224.015,60.152,285.502,46.664C346.979,60.152,392.991,114.942,392.991,180.466z"/>
<path style="fill:#78B9EB;" d="M332.387,202.577c-2.12,0-4.239-0.808-5.856-2.425c-38.89-38.89-102.169-38.89-141.059,0
	c-3.235,3.233-8.477,3.233-11.712,0c-3.234-3.235-3.234-8.477,0-11.712c21.969-21.968,51.175-34.065,82.242-34.065
	s60.274,12.099,82.242,34.065c3.234,3.235,3.234,8.477,0,11.712C336.626,201.767,334.507,202.577,332.387,202.577z"/>
<path style="fill:#B3D8F4;" d="M301.75,241.09c-2.12,0-4.239-0.808-5.856-2.425c-21.997-21.999-57.79-21.999-79.786,0
	c-3.235,3.233-8.477,3.233-11.712,0c-3.234-3.235-3.234-8.477,0-11.712c28.456-28.454,74.755-28.454,103.211,0
	c3.234,3.235,3.234,8.477,0,11.712C305.989,240.28,303.87,241.09,301.75,241.09z"/>
<path style="fill:#3D9AE2;" d="M361.947,172.864c-2.292,0-4.573-0.946-6.21-2.799c-26.288-29.763-61.309-46.79-98.611-47.946
	c-37.518-1.144-73.445,13.493-101.214,41.262c-3.235,3.233-8.477,3.233-11.712,0c-3.234-3.235-3.234-8.477,0-11.712
	c31.036-31.036,71.332-47.424,113.44-46.104c41.919,1.298,81.165,20.311,110.511,53.536c3.028,3.428,2.703,8.661-0.725,11.689
	C365.852,172.18,363.895,172.864,361.947,172.864z"/>
<g>
</g>
<g>
</g>
<g>
</g>
<g>
</g>
<g>
</g>
<g>
</g>
<g>
</g>
<g>
</g>
<g>
</g>
<g>
</g>
<g>
</g>
<g>
</g>
<g>
</g>
<g>
</g>
<g>
</g>
</svg>
