<?xml version="1.0" encoding="iso-8859-1"?>
<!-- Generator: Adobe Illustrator 19.0.0, SVG Export Plug-In . SVG Version: 6.00 Build 0)  -->
<svg version="1.1" id="Capa_1" xmlns="http://www.w3.org/2000/svg" xmlns:xlink="http://www.w3.org/1999/xlink" x="0px" y="0px"
	 viewBox="0 0 512 512" style="enable-background:new 0 0 512 512;" xml:space="preserve">
<rect x="199.682" y="351.293" style="fill:#3E3D42;" width="31.763" height="60.023"/>
<path style="fill:#1D1D1F;" d="M279.929,407.422v8.292c0,5.664-4.635,10.299-10.299,10.299H161.497
	c-5.664,0-10.299-4.635-10.299-10.299v-8.292c0-5.664,4.635-10.299,10.299-10.299H269.63
	C275.294,397.123,279.929,401.758,279.929,407.422z"/>
<path style="fill:#2D2D30;" d="M279.929,407.422v8.292c0,5.664-4.635,10.299-10.299,10.299h-73.498
	c-5.664,0-10.299-4.635-10.299-10.299v-8.292c0-5.664,4.635-10.299,10.299-10.299h73.498
	C275.294,397.123,279.929,401.758,279.929,407.422z"/>
<path style="fill:#B3D8F4;" d="M454.521,93.997c-4.22,0-7.64-3.42-7.64-7.64c0-11.806-9.605-21.41-21.411-21.41
	c-4.22,0-7.64-3.42-7.64-7.64s3.42-7.64,7.64-7.64c20.231,0,36.691,16.459,36.691,36.69
	C462.161,90.577,458.741,93.997,454.521,93.997z"/>
<path style="fill:#3D9AE2;" d="M504.189,93.997c-4.22,0-7.64-3.42-7.64-7.64c0-37.863-33.213-71.077-71.078-71.077
	c-4.22,0-7.64-3.42-7.64-7.64s3.42-7.64,7.64-7.64c22.149,0,44.239,9.387,60.605,25.752c16.365,16.366,25.752,38.456,25.752,60.604
	C511.829,90.577,508.409,93.997,504.189,93.997z"/>
<path style="fill:#78B9EB;" d="M479.139,93.997c-4.22,0-7.64-3.42-7.64-7.64c0-25.379-20.649-46.028-46.029-46.028
	c-4.22,0-7.64-3.42-7.64-7.64s3.42-7.64,7.64-7.64c33.806,0,61.309,27.502,61.309,61.308
	C486.779,90.577,483.36,93.997,479.139,93.997z"/>
<path style="fill:#1D1D1F;" d="M394.857,364.196H36.271c-19.855,0-36.1-16.245-36.1-36.1V116.18c0-19.855,16.245-36.1,36.1-36.1
	h358.585c19.855,0,36.1,16.245,36.1,36.1v211.917C430.958,347.951,414.712,364.196,394.857,364.196z"/>
<path style="fill:#96C8EF;" d="M399.451,124.198v197.838c0,6.204-5.083,11.287-11.287,11.287H42.973
	c-6.214,0-11.287-5.083-11.287-11.287V124.198c0-6.204,5.073-11.287,11.287-11.287h345.191
	C394.368,112.911,399.451,117.994,399.451,124.198z"/>
<path style="fill:#D1E7F8;" d="M399.451,124.198v178.565H75.571c-6.214,0-11.287-5.083-11.287-11.287V112.911h323.88
	C394.368,112.911,399.451,117.994,399.451,124.198z"/>
<path style="fill:#1D1D1F;" d="M504.008,225.455v262.983c0,2.211-0.306,4.35-0.886,6.377C500.321,504.706,491.193,512,480.436,512
	h-93.973c-12.958,0-23.562-10.604-23.562-23.562V225.455c0-11.959,9.015-21.902,20.577-23.379c0.978-0.132,1.976-0.194,2.985-0.194
	h93.973C493.404,201.882,504.008,212.487,504.008,225.455z"/>
<path style="fill:#2D2D30;" d="M504.008,225.455v262.983c0,2.211-0.306,4.35-0.886,6.377c-0.978,0.143-1.976,0.204-2.995,0.204
	h-93.973c-12.958,0-23.562-10.604-23.562-23.562V208.473c0-2.221,0.306-4.36,0.886-6.397c0.978-0.132,1.976-0.194,2.985-0.194
	h93.973C493.404,201.882,504.008,212.487,504.008,225.455z"/>
<path style="fill:#C70024;" d="M482.188,238.036c0,4.228-3.423,7.64-7.64,7.64h-25.294c-4.217,0-7.64-3.413-7.64-7.64
	c0-4.217,3.423-7.64,7.64-7.64h25.294C478.766,230.395,482.188,233.818,482.188,238.036z"/>
<path style="fill:#FF0C38;" d="M482.188,238.036c0,4.228-3.423,7.64-7.64,7.64h-10.35c-4.217,0-7.64-3.413-7.64-7.64
	c0-4.217,3.423-7.64,7.64-7.64h10.35C478.766,230.395,482.188,233.818,482.188,238.036z"/>
<g>
	<path style="fill:#5EAC24;" d="M401.207,313.96h-8.85c-4.22,0-7.64-3.42-7.64-7.64s3.42-7.64,7.64-7.64h8.85
		c4.22,0,7.64,3.42,7.64,7.64S405.428,313.96,401.207,313.96z"/>
	<path style="fill:#5EAC24;" d="M437.879,313.96h-8.851c-4.22,0-7.64-3.42-7.64-7.64s3.42-7.64,7.64-7.64h8.851
		c4.22,0,7.64,3.42,7.64,7.64S442.098,313.96,437.879,313.96z"/>
	<path style="fill:#5EAC24;" d="M474.548,313.96h-8.85c-4.22,0-7.64-3.42-7.64-7.64s3.42-7.64,7.64-7.64h8.85
		c4.22,0,7.64,3.42,7.64,7.64S478.768,313.96,474.548,313.96z"/>
	<path style="fill:#5EAC24;" d="M401.207,351.893h-8.85c-4.22,0-7.64-3.42-7.64-7.64s3.42-7.64,7.64-7.64h8.85
		c4.22,0,7.64,3.42,7.64,7.64S405.428,351.893,401.207,351.893z"/>
	<path style="fill:#5EAC24;" d="M437.879,351.893h-8.851c-4.22,0-7.64-3.42-7.64-7.64s3.42-7.64,7.64-7.64h8.851
		c4.22,0,7.64,3.42,7.64,7.64S442.098,351.893,437.879,351.893z"/>
	<path style="fill:#5EAC24;" d="M474.548,351.893h-8.85c-4.22,0-7.64-3.42-7.64-7.64s3.42-7.64,7.64-7.64h8.85
		c4.22,0,7.64,3.42,7.64,7.64S478.768,351.893,474.548,351.893z"/>
	<path style="fill:#5EAC24;" d="M401.207,389.825h-8.85c-4.22,0-7.64-3.42-7.64-7.64s3.42-7.64,7.64-7.64h8.85
		c4.22,0,7.64,3.42,7.64,7.64S405.428,389.825,401.207,389.825z"/>
	<path style="fill:#5EAC24;" d="M437.879,389.825h-8.851c-4.22,0-7.64-3.42-7.64-7.64s3.42-7.64,7.64-7.64h8.851
		c4.22,0,7.64,3.42,7.64,7.64S442.098,389.825,437.879,389.825z"/>
	<path style="fill:#5EAC24;" d="M474.548,389.825h-8.85c-4.22,0-7.64-3.42-7.64-7.64s3.42-7.64,7.64-7.64h8.85
		c4.22,0,7.64,3.42,7.64,7.64S478.768,389.825,474.548,389.825z"/>
	<path style="fill:#5EAC24;" d="M401.207,427.758h-8.85c-4.22,0-7.64-3.42-7.64-7.64s3.42-7.64,7.64-7.64h8.85
		c4.22,0,7.64,3.42,7.64,7.64S405.428,427.758,401.207,427.758z"/>
	<path style="fill:#5EAC24;" d="M437.879,427.758h-8.851c-4.22,0-7.64-3.42-7.64-7.64s3.42-7.64,7.64-7.64h8.851
		c4.22,0,7.64,3.42,7.64,7.64S442.098,427.758,437.879,427.758z"/>
	<path style="fill:#5EAC24;" d="M474.548,427.758h-8.85c-4.22,0-7.64-3.42-7.64-7.64s3.42-7.64,7.64-7.64h8.85
		c4.22,0,7.64,3.42,7.64,7.64S478.768,427.758,474.548,427.758z"/>
</g>
<g>
	<rect x="362.906" y="267.058" style="fill:#57565C;" width="141.108" height="15.28"/>
	<rect x="362.906" y="447.039" style="fill:#57565C;" width="141.108" height="15.28"/>
</g>
<g>
	<rect x="362.906" y="267.058" style="fill:#3E3D42;" width="19.691" height="15.28"/>
	<rect x="362.906" y="447.039" style="fill:#3E3D42;" width="19.691" height="15.28"/>
</g>
<g>
</g>
<g>
</g>
<g>
</g>
<g>
</g>
<g>
</g>
<g>
</g>
<g>
</g>
<g>
</g>
<g>
</g>
<g>
</g>
<g>
</g>
<g>
</g>
<g>
</g>
<g>
</g>
<g>
</g>
</svg>
