<?xml version="1.0" encoding="iso-8859-1"?>
<!-- Generator: Adobe Illustrator 19.0.0, SVG Export Plug-In . SVG Version: 6.00 Build 0)  -->
<svg version="1.1" id="Capa_1" xmlns="http://www.w3.org/2000/svg" xmlns:xlink="http://www.w3.org/1999/xlink" x="0px" y="0px"
	 viewBox="0 0 512 512" style="enable-background:new 0 0 512 512;" xml:space="preserve">
<path style="fill:#3E3D42;" d="M333.598,343.747v101.464c0,14.487-11.845,26.343-26.332,26.343H204.714
	c-14.487,0-26.332-11.855-26.332-26.343V343.747H333.598z"/>
<path style="fill:#DDB200;" d="M406.989,149.783c0,96.51-73.38,100.842-73.38,198.44l-0.01,0.021H178.392v-0.995
	c0-96.117-73.463-101.205-73.38-197.611C105.115,42.806,191.947-6.925,272.457,0.774C342.085,7.438,406.989,57.035,406.989,149.783z
	"/>
<path style="fill:#AA6100;" d="M304.312,471.554v14.114c0,14.487-11.855,26.332-26.343,26.332h-43.276
	c-14.487,0-26.332-11.845-26.332-26.332v-14.114H304.312z"/>
<path style="fill:#57565C;" d="M333.598,343.747v101.464c0,14.487-11.845,26.343-26.332,26.343h-70.085
	c-14.487,0-26.332-11.855-26.332-26.343V343.747H333.598z"/>
<path style="fill:#FFCD00;" d="M406.989,149.783c0,96.51-73.38,100.842-73.38,198.44l-0.01,0.021H210.859v-0.995
	c0-96.117-73.463-101.205-73.38-197.611C137.562,57.118,202.703,7.427,272.457,0.774C342.085,7.438,406.989,57.035,406.989,149.783z
	"/>
<g>
	<path style="fill:#EE8700;" d="M304.312,471.554v14.114c0,14.487-11.855,26.332-26.343,26.332h-10.798
		c-14.487,0-26.343-11.845-26.343-26.332v-14.114H304.312z"/>
	<path style="fill:#EE8700;" d="M296.527,208.834c-1.989,0-3.978-0.759-5.496-2.276c-9.466-9.467-22.051-14.679-35.438-14.679
		c-13.386,0-25.972,5.213-35.437,14.679c-3.035,3.034-7.957,3.034-10.991,0c-3.035-3.036-3.035-7.957,0-10.992
		c12.401-12.401,28.89-19.232,46.429-19.232c17.539,0,34.028,6.83,46.429,19.232c3.035,3.036,3.035,7.957,0,10.992
		C300.504,208.074,298.515,208.834,296.527,208.834z"/>
	<path style="fill:#EE8700;" d="M363.388,141.971c-1.989,0-3.978-0.759-5.495-2.276c-27.325-27.326-63.657-42.375-102.3-42.375
		s-74.975,15.048-102.3,42.375c-3.035,3.034-7.957,3.034-10.991,0c-3.035-3.036-3.035-7.957,0-10.992
		c30.261-30.261,70.495-46.927,113.291-46.927s83.03,16.666,113.291,46.927c3.035,3.036,3.035,7.957,0,10.992
		C367.366,141.212,365.377,141.971,363.388,141.971z"/>
	<path style="fill:#EE8700;" d="M179.969,174.144c-1.989,0-3.978-0.759-5.495-2.276c-3.035-3.036-3.035-7.957,0-10.992
		c21.668-21.667,50.476-33.6,81.118-33.6s59.451,11.933,81.118,33.6c3.035,3.036,3.035,7.957,0,10.992
		c-3.035,3.034-7.957,3.034-10.991,0c-18.732-18.732-43.636-29.047-70.127-29.047c-26.491,0-51.395,10.315-70.127,29.047
		C183.947,173.385,181.959,174.144,179.969,174.144z"/>
	<circle style="fill:#EE8700;" cx="257.354" cy="250.421" r="22.092"/>
</g>
<g>
	<path style="fill:#2D2D30;" d="M269.555,388.453c0,4.29-3.482,7.772-7.772,7.772h-82.904c-0.166,0-0.332-0.01-0.497-0.021v-15.503
		c0.166-0.01,0.332-0.021,0.497-0.021h82.904C266.073,380.681,269.555,384.163,269.555,388.453z"/>
	<path style="fill:#2D2D30;" d="M333.598,380.795v15.316c-0.404,0.083-0.829,0.114-1.254,0.114h-39.473
		c-4.29,0-7.772-3.482-7.772-7.772s3.482-7.772,7.772-7.772h39.473C332.769,380.681,333.194,380.712,333.598,380.795z"/>
	<path style="fill:#2D2D30;" d="M225.688,428.589c0,4.301-3.482,7.772-7.772,7.772h-39.535v-15.544h39.535
		C222.206,420.816,225.688,424.298,225.688,428.589z"/>
	<path style="fill:#2D2D30;" d="M333.598,421.003v15.171c-0.539,0.124-1.109,0.187-1.689,0.187h-82.904
		c-4.29,0-7.772-3.472-7.772-7.772c0-4.29,3.482-7.772,7.772-7.772h82.904C332.489,420.816,333.059,420.879,333.598,421.003z"/>
</g>
<g>
	<path style="fill:#1D1D1F;" d="M210.849,380.681v15.544h-31.97c-0.166,0-0.332-0.01-0.497-0.021v-15.503
		c0.166-0.01,0.332-0.021,0.497-0.021L210.849,380.681L210.849,380.681z"/>
	<rect x="178.377" y="420.82" style="fill:#1D1D1F;" width="32.467" height="15.544"/>
</g>
<g>
</g>
<g>
</g>
<g>
</g>
<g>
</g>
<g>
</g>
<g>
</g>
<g>
</g>
<g>
</g>
<g>
</g>
<g>
</g>
<g>
</g>
<g>
</g>
<g>
</g>
<g>
</g>
<g>
</g>
</svg>
