<?xml version="1.0" encoding="iso-8859-1"?>
<!-- Generator: Adobe Illustrator 19.0.0, SVG Export Plug-In . SVG Version: 6.00 Build 0)  -->
<svg version="1.1" id="Capa_1" xmlns="http://www.w3.org/2000/svg" xmlns:xlink="http://www.w3.org/1999/xlink" x="0px" y="0px"
	 viewBox="0 0 512 512" style="enable-background:new 0 0 512 512;" xml:space="preserve">
<path style="fill:#B3D8F4;" d="M180.856,226.193c-4.28,0-7.75-3.469-7.75-7.75c0-12.066-9.817-21.882-21.882-21.882
	c-4.28,0-7.75-3.469-7.75-7.75c0-4.281,3.47-7.75,7.75-7.75c20.612,0,37.382,16.77,37.382,37.382
	C188.606,222.724,185.137,226.193,180.856,226.193z"/>
<path style="fill:#3D9AE2;" d="M229.258,226.193c-4.28,0-7.75-3.469-7.75-7.75c0-38.754-31.529-70.283-70.283-70.283
	c-4.28,0-7.75-3.469-7.75-7.75s3.47-7.75,7.75-7.75c47.301,0,85.783,38.481,85.783,85.783
	C237.008,222.724,233.538,226.193,229.258,226.193z"/>
<path style="fill:#78B9EB;" d="M205.968,226.193c-4.28,0-7.75-3.469-7.75-7.75c0-25.912-21.081-46.993-46.994-46.993
	c-4.28,0-7.75-3.469-7.75-7.75c0-4.281,3.47-7.75,7.75-7.75c34.459,0,62.494,28.034,62.494,62.493
	C213.718,222.724,210.248,226.193,205.968,226.193z"/>
<path style="fill:#B3D8F4;" d="M292.858,177.793c-4.28,0-7.75-3.469-7.75-7.75c0-4.281,3.47-7.75,7.75-7.75
	c12.065,0,21.882-9.816,21.882-21.882c0-4.281,3.47-7.75,7.75-7.75c4.28,0,7.75,3.469,7.75,7.75
	C330.239,161.023,313.47,177.793,292.858,177.793z"/>
<path style="fill:#3D9AE2;" d="M292.858,226.193c-4.28,0-7.75-3.469-7.75-7.75s3.47-7.75,7.75-7.75
	c38.754,0,70.283-31.529,70.283-70.283c0-4.281,3.47-7.75,7.75-7.75c4.28,0,7.75,3.469,7.75,7.75
	C378.641,187.712,340.158,226.193,292.858,226.193z"/>
<path style="fill:#78B9EB;" d="M292.858,202.904c-4.28,0-7.75-3.469-7.75-7.75c0-4.281,3.47-7.75,7.75-7.75
	c25.912,0,46.993-21.081,46.993-46.994c0-4.281,3.47-7.75,7.75-7.75s7.75,3.469,7.75,7.75
	C355.35,174.87,327.316,202.904,292.858,202.904z"/>
<path style="fill:#3D9AE2;" d="M360.366,87.589c0,0.393-0.01,0.785-0.021,1.178c-0.63,16.802-14.622,29.843-30.649,29.843
	c-150.69,0-141.39,0.155-142.992-0.362c-19.685-2.552-34.885-19.375-34.885-39.742c0-17.463,11.139-32.302,26.701-37.82h0.01
	c10.53-3.803,20.47-1.622,20.656-1.622c16.254-48.794,88.102-53.878,110.111-3.885c3.409,7.645,5.278,16.45,5.032,25.265h0.01v-0.01
	c17.422-10.426,43.472,0.579,45.869,23.973C360.314,85.46,360.366,86.514,360.366,87.589z"/>
<path style="fill:#78B9EB;" d="M360.366,87.589c0,0.393-0.01,0.785-0.021,1.178c-1.571,0.258-3.172,0.393-4.805,0.393
	c-150.701,0-141.401,0.155-142.992-0.362c-23.085-2.997-38.936-25.193-34.017-48.112c10.53-3.803,20.47-1.622,20.656-1.622
	c16.254-48.794,88.102-53.878,110.112-3.885c3.622,8.121,5.271,17.043,5.043,25.255c17.422-10.426,43.472,0.579,45.869,23.973
	C360.314,85.46,360.366,86.514,360.366,87.589z"/>
<path style="fill:#ACABB1;" d="M159.523,225.53v274.328c0,6.675-5.456,12.142-12.131,12.142H12.243
	c-6.675,0-12.131-5.466-12.131-12.142V225.53c0-6.675,5.456-12.142,12.131-12.142h135.149
	C154.067,213.388,159.523,218.855,159.523,225.53z"/>
<path style="fill:#D8D7DA;" d="M159.523,225.53v264.429H36.35c-6.675,0-12.131-5.466-12.131-12.142V213.388h123.173
	C154.067,213.388,159.523,218.855,159.523,225.53z"/>
<g>
	<path style="fill:#787680;" d="M159.523,271.193v15.5H0.917c-0.269,0-0.537-0.01-0.806-0.041v-15.417
		c0.269-0.031,0.537-0.041,0.806-0.041L159.523,271.193L159.523,271.193z"/>
	<path style="fill:#787680;" d="M159.523,336.644v14.074c-0.982,0.455-2.077,0.713-3.234,0.713H1.723
		c-0.558,0-1.095-0.062-1.612-0.165v-15.169c0.517-0.103,1.054-0.165,1.612-0.165h154.565
		C157.446,335.931,158.541,336.189,159.523,336.644z"/>
</g>
<circle style="fill:#4E901E;" cx="120.879" cy="259.024" r="6.585"/>
<circle style="fill:#FF0C38;" cx="141.37" cy="259.024" r="6.585"/>
<circle style="fill:#4E901E;" cx="120.879" cy="324.878" r="6.585"/>
<circle style="fill:#FF0C38;" cx="141.37" cy="324.878" r="6.585"/>
<path style="fill:#57565C;" d="M102.545,406.507c0,4.33-1.209,8.37-3.307,11.811c-3.989,6.551-11.201,10.912-19.416,10.912
	c-12.555,0-22.733-10.168-22.733-22.723c0-12.018,9.321-21.855,21.132-22.671c0.527-0.041,1.064-0.062,1.602-0.062
	C92.367,383.774,102.545,393.952,102.545,406.507z"/>
<path style="fill:#787680;" d="M102.545,406.507c0,4.33-1.209,8.37-3.307,11.811c-0.527,0.041-1.054,0.062-1.591,0.062
	c-12.555,0-22.733-10.168-22.733-22.723c0-4.33,1.209-8.38,3.307-11.821c0.527-0.041,1.064-0.062,1.602-0.062
	C92.367,383.774,102.545,393.952,102.545,406.507z"/>
<g>
	<path style="fill:#57565C;" d="M24.219,271.193v15.5H0.917c-0.269,0-0.537-0.01-0.806-0.041v-15.417
		c0.269-0.031,0.537-0.041,0.806-0.041L24.219,271.193L24.219,271.193z"/>
	<path style="fill:#57565C;" d="M24.219,335.931v15.5H1.723c-0.558,0-1.095-0.062-1.612-0.165v-15.169
		c0.517-0.103,1.054-0.165,1.612-0.165H24.219z"/>
</g>
<path style="fill:#2D2D30;" d="M511.888,225.53v274.328c0,6.675-5.456,12.142-12.131,12.142H364.608
	c-6.675,0-12.131-5.466-12.131-12.142V225.53c0-6.675,5.456-12.142,12.131-12.142h135.149
	C506.432,213.388,511.888,218.855,511.888,225.53z"/>
<path style="fill:#3E3D42;" d="M511.888,225.53v264.429H388.715c-6.675,0-12.131-5.466-12.131-12.142V213.388h123.173
	C506.432,213.388,511.888,218.855,511.888,225.53z"/>
<g>
	<path style="fill:#787680;" d="M511.888,271.193v15.5H353.283c-0.269,0-0.537-0.01-0.806-0.041v-15.417
		c0.269-0.031,0.537-0.041,0.806-0.041L511.888,271.193L511.888,271.193z"/>
	<path style="fill:#787680;" d="M511.888,336.644v14.074c-0.982,0.455-2.077,0.713-3.234,0.713H354.089
		c-0.558,0-1.095-0.062-1.612-0.165v-15.169c0.517-0.103,1.054-0.165,1.612-0.165h154.565
		C509.811,335.931,510.907,336.189,511.888,336.644z"/>
</g>
<circle style="fill:#4E901E;" cx="473.244" cy="259.024" r="6.585"/>
<circle style="fill:#FF0C38;" cx="493.735" cy="259.024" r="6.585"/>
<circle style="fill:#4E901E;" cx="473.244" cy="324.878" r="6.585"/>
<circle style="fill:#FF0C38;" cx="493.735" cy="324.878" r="6.585"/>
<path style="fill:#1D1D1F;" d="M454.911,406.507c0,4.33-1.209,8.37-3.307,11.811c-3.989,6.551-11.201,10.912-19.416,10.912
	c-12.555,0-22.733-10.168-22.733-22.723c0-12.018,9.321-21.855,21.132-22.671c0.527-0.041,1.064-0.062,1.602-0.062
	C444.732,383.774,454.911,393.952,454.911,406.507z"/>
<path style="fill:#2D2D30;" d="M454.911,406.507c0,4.33-1.209,8.37-3.307,11.811c-0.527,0.041-1.054,0.062-1.591,0.062
	c-12.555,0-22.733-10.168-22.733-22.723c0-4.33,1.209-8.38,3.307-11.821c0.527-0.041,1.064-0.062,1.602-0.062
	C444.732,383.774,454.911,393.952,454.911,406.507z"/>
<g>
	<path style="fill:#57565C;" d="M376.584,271.193v15.5h-23.302c-0.269,0-0.537-0.01-0.806-0.041v-15.417
		c0.269-0.031,0.537-0.041,0.806-0.041L376.584,271.193L376.584,271.193z"/>
	<path style="fill:#57565C;" d="M376.584,335.931v15.5h-22.496c-0.558,0-1.095-0.062-1.612-0.165v-15.169
		c0.517-0.103,1.054-0.165,1.612-0.165H376.584z"/>
</g>
<g>
</g>
<g>
</g>
<g>
</g>
<g>
</g>
<g>
</g>
<g>
</g>
<g>
</g>
<g>
</g>
<g>
</g>
<g>
</g>
<g>
</g>
<g>
</g>
<g>
</g>
<g>
</g>
<g>
</g>
</svg>
