<?xml version="1.0" encoding="iso-8859-1"?>
<!-- Generator: Adobe Illustrator 19.0.0, SVG Export Plug-In . SVG Version: 6.00 Build 0)  -->
<svg version="1.1" id="Capa_1" xmlns="http://www.w3.org/2000/svg" xmlns:xlink="http://www.w3.org/1999/xlink" x="0px" y="0px"
	 viewBox="0 0 512 512" style="enable-background:new 0 0 512 512;" xml:space="preserve">
<path style="fill:#787680;" d="M492.454,314.258v149.485c0,11.381-9.32,20.701-20.701,20.701h-81.649
	c-11.381,0-20.691-9.32-20.691-20.701V314.258c0-11.392,9.309-20.701,20.691-20.701h81.65
	C483.134,293.557,492.454,302.866,492.454,314.258z"/>
<path style="fill:#ACABB1;" d="M492.454,314.258v84.103H414.33c-11.381,0-20.691-9.32-20.691-20.701v-84.103h78.113
	C483.134,293.557,492.454,302.866,492.454,314.258z"/>
<path style="fill:#1D1D1F;" d="M322.536,158.732v194.536c0,54.557-27.897,102.918-70.134,131.515
	c-1.186,0.804-2.371,1.588-3.577,2.34c-44.691,28.571-87.112,24.437-90.113,24.856C71.423,511.98,0,440.557,0,353.268V158.732
	C0,93.382,40.041,36.918,96.794,12.671c4.907-2.103,9.948-3.959,15.093-5.557c27.191-8.458,49.021-6.898,51.938-7.093
	C251.113,0.021,322.536,71.444,322.536,158.732z"/>
<path style="fill:#3E3D42;" d="M322.536,158.732v194.536c0,54.557-27.897,102.918-70.134,131.515
	c-1.186,0.804-2.371,1.588-3.577,2.34c-23.299,5.804-40.856,4.588-44.062,4.753c-88.804,0-161.464-72.67-161.464-161.474V132.464
	c0-47.392,20.691-90.196,53.495-119.794c4.907-2.103,9.948-3.959,15.093-5.557C130,1.485,145.732,0.289,155.082,0.073
	c4.691-0.113,7.773,0.01,8.742-0.052c2.247,0,4.495,0.052,6.722,0.144C254.753,3.712,322.536,73.691,322.536,158.732z"/>
<g>
	<path style="fill:#1D1D1F;" d="M170.546,0.165V255.66c0,4.268-3.464,7.732-7.732,7.732c-4.268,0-7.732-3.464-7.732-7.732V0.073
		c4.691-0.113,7.773,0.01,8.742-0.052C166.072,0.021,168.32,0.073,170.546,0.165z"/>
	<path style="fill:#1D1D1F;" d="M171.09,205.643h-15.919c-26.997,0-49.086-22.089-49.086-49.086V92.901
		c0-26.997,22.089-49.086,49.086-49.086h15.919c26.997,0,49.086,22.089,49.086,49.086v63.657
		C220.175,183.554,198.087,205.643,171.09,205.643z"/>
	<path style="fill:#1D1D1F;" d="M512,432.815v58.093c0,11.021-9.021,20.041-20.041,20.041H369.897
		c-11.021,0-20.041-9.021-20.041-20.041v-58.093c0-11.021,9.021-20.031,20.041-20.031h122.062
		C502.979,412.784,512,421.794,512,432.815z"/>
</g>
<path style="fill:#2D2D30;" d="M512,432.815v47.206H399.278c-11.021,0-20.041-9.021-20.041-20.041v-47.196h112.722
	C502.979,412.784,512,421.794,512,432.815z"/>
<g>
	<path style="fill:#787680;" d="M406.781,320.322c-4.271,0-7.732,3.462-7.732,7.732v42.547c0,4.27,3.461,7.732,7.732,7.732
		c4.271,0,7.732-3.462,7.732-7.732v-42.547C414.513,323.783,411.052,320.322,406.781,320.322z"/>
	<path style="fill:#787680;" d="M455.079,320.322c-4.271,0-7.732,3.462-7.732,7.732v42.547c0,4.27,3.461,7.732,7.732,7.732
		c4.271,0,7.732-3.462,7.732-7.732v-42.547C462.811,323.783,459.349,320.322,455.079,320.322z"/>
</g>
<path style="fill:#57565C;" d="M193.258,97.145v55.175c0,2.68-0.351,5.289-1.021,7.763c-1.392,5.175-4.134,9.825-7.825,13.515
	c-5.464,5.454-13,8.845-21.278,8.845c-16.577,0-30.134-13.557-30.134-30.124V97.145c0-16.577,13.557-30.134,30.134-30.134
	c1.134,0,2.268,0.062,3.371,0.196C181.505,68.887,193.258,81.712,193.258,97.145z"/>
<path style="fill:#787680;" d="M193.258,97.145v55.175c0,2.68-0.351,5.289-1.021,7.763c-15-1.68-26.763-14.495-26.763-29.928V74.98
	c0-2.68,0.361-5.289,1.031-7.773C181.505,68.887,193.258,81.712,193.258,97.145z"/>
<g>
</g>
<g>
</g>
<g>
</g>
<g>
</g>
<g>
</g>
<g>
</g>
<g>
</g>
<g>
</g>
<g>
</g>
<g>
</g>
<g>
</g>
<g>
</g>
<g>
</g>
<g>
</g>
<g>
</g>
</svg>
