<?xml version="1.0" encoding="iso-8859-1"?>
<!-- Generator: Adobe Illustrator 19.0.0, SVG Export Plug-In . SVG Version: 6.00 Build 0)  -->
<svg version="1.1" id="Capa_1" xmlns="http://www.w3.org/2000/svg" xmlns:xlink="http://www.w3.org/1999/xlink" x="0px" y="0px"
	 viewBox="0 0 512 512" style="enable-background:new 0 0 512 512;" xml:space="preserve">
<path style="fill:#B3D8F4;" d="M350.942,120.54c-4.216,0-7.631-3.417-7.631-7.631c0-17.835-14.51-32.345-32.345-32.345
	c-4.216,0-7.631-3.417-7.631-7.631c0-4.215,3.416-7.631,7.631-7.631c26.251,0,47.608,21.357,47.608,47.608
	C358.574,117.123,355.157,120.54,350.942,120.54z"/>
<path style="fill:#3D9AE2;" d="M416.242,120.54c-4.216,0-7.631-3.417-7.631-7.631c0-53.843-43.804-97.645-97.646-97.645
	c-4.216,0-7.631-3.417-7.631-7.631S306.749,0,310.964,0c62.259,0,112.909,50.651,112.909,112.908
	C423.874,117.123,420.458,120.54,416.242,120.54z"/>
<path style="fill:#78B9EB;" d="M384.821,120.54c-4.216,0-7.631-3.417-7.631-7.631c0-36.516-29.708-66.224-66.225-66.224
	c-4.216,0-7.632-3.417-7.632-7.631s3.416-7.631,7.632-7.631c44.932,0,81.488,36.555,81.488,81.487
	C392.452,117.123,389.037,120.54,384.821,120.54z"/>
<path style="fill:#1D1D1F;" d="M309.805,113.647v381.472c0,9.28-7.591,16.881-16.881,16.881H105.007
	c-9.29,0-16.881-7.601-16.881-16.881V113.647c0-9.29,7.591-16.881,16.881-16.881h187.918
	C302.215,96.766,309.805,104.357,309.805,113.647z"/>
<path style="fill:#2D2D30;" d="M309.805,113.647v364.775H135.533c-9.29,0-16.881-7.601-16.881-16.881V96.766h174.272
	C302.215,96.766,309.805,104.357,309.805,113.647z"/>
<g>
	<rect x="88.128" y="180.286" style="fill:#C6C5CA;" width="221.679" height="15.263"/>
	<path style="fill:#C6C5CA;" d="M176.082,270.306c-4.213,0-7.631,3.419-7.631,7.631s3.419,7.631,7.631,7.631h133.724v-15.263
		H176.082z M145.556,270.306H88.126v15.263h57.429c4.213,0,7.631-3.419,7.631-7.631S149.768,270.306,145.556,270.306z"/>
</g>
<circle style="fill:#FF0C38;" cx="256.062" cy="160.22" r="9.158"/>
<circle style="fill:#6DC82A;" cx="284.552" cy="160.22" r="9.158"/>
<circle style="fill:#FF0C38;" cx="256.062" cy="251.798" r="9.158"/>
<circle style="fill:#6DC82A;" cx="284.552" cy="251.798" r="9.158"/>
<g>
	<path style="fill:#C6C5CA;" d="M173.141,358.119c0,9.443-5.373,17.644-13.228,21.694c-3.358,1.75-7.163,2.727-11.193,2.727
		c-13.492,0-24.421-10.938-24.421-24.421c0-13.492,10.928-24.421,24.421-24.421c4.029,0,7.835,0.977,11.193,2.727
		C167.768,340.465,173.141,348.666,173.141,358.119z"/>
	<path style="fill:#C6C5CA;" d="M173.141,445.626c0,9.453-5.373,17.654-13.228,21.694c-3.358,1.75-7.163,2.727-11.193,2.727
		c-13.492,0-24.421-10.928-24.421-24.421c0-13.482,10.928-24.421,24.421-24.421c4.029,0,7.835,0.977,11.193,2.727
		C167.768,427.983,173.141,436.184,173.141,445.626z"/>
</g>
<g>
	<path style="fill:#E0E0E2;" d="M173.141,358.119c0,9.443-5.373,17.644-13.228,21.694c-7.855-4.05-13.228-12.241-13.228-21.694
		c0-9.453,5.373-17.654,13.228-21.694C167.768,340.465,173.141,348.666,173.141,358.119z"/>
	<path style="fill:#E0E0E2;" d="M173.141,445.626c0,9.453-5.373,17.654-13.228,21.694c-7.855-4.04-13.228-12.241-13.228-21.694
		s5.373-17.644,13.228-21.694C167.768,427.983,173.141,436.184,173.141,445.626z"/>
</g>
<g>
	<rect x="88.128" y="180.286" style="fill:#898890;" width="30.526" height="15.263"/>
	<rect x="88.128" y="270.307" style="fill:#898890;" width="30.526" height="15.263"/>
</g>
<g>
</g>
<g>
</g>
<g>
</g>
<g>
</g>
<g>
</g>
<g>
</g>
<g>
</g>
<g>
</g>
<g>
</g>
<g>
</g>
<g>
</g>
<g>
</g>
<g>
</g>
<g>
</g>
<g>
</g>
</svg>
