<?xml version="1.0" encoding="iso-8859-1"?>
<!-- Generator: Adobe Illustrator 19.0.0, SVG Export Plug-In . SVG Version: 6.00 Build 0)  -->
<svg version="1.1" id="Capa_1" xmlns="http://www.w3.org/2000/svg" xmlns:xlink="http://www.w3.org/1999/xlink" x="0px" y="0px"
	 viewBox="0 0 512 512" style="enable-background:new 0 0 512 512;" xml:space="preserve">
<path style="fill:#B3D8F4;" d="M336.155,98.571c-4.219,0-7.639-3.42-7.639-7.639c0-13.228-10.762-23.991-23.99-23.991
	c-4.219,0-7.639-3.42-7.639-7.639s3.42-7.639,7.639-7.639c21.652,0,39.267,17.615,39.267,39.269
	C343.793,95.151,340.373,98.571,336.155,98.571z"/>
<path style="fill:#3D9AE2;" d="M387.819,98.571c-4.219,0-7.639-3.42-7.639-7.639c0-41.716-33.939-75.655-75.655-75.655
	c-4.219,0-7.639-3.42-7.639-7.639S300.307,0,304.526,0c50.14,0,90.932,40.792,90.932,90.932
	C395.458,95.151,392.038,98.571,387.819,98.571z"/>
<path style="fill:#78B9EB;" d="M362.959,98.571c-4.219,0-7.639-3.42-7.639-7.639c0-28.009-22.786-50.795-50.795-50.795
	c-4.219,0-7.639-3.42-7.639-7.639s3.42-7.639,7.639-7.639c36.433,0,66.073,29.64,66.073,66.073
	C370.598,95.151,367.177,98.571,362.959,98.571z"/>
<path style="fill:#2D2D30;" d="M305.747,116.964v361.288c0,18.56-15.188,33.748-33.748,33.748h-159.63
	c-18.56,0-33.748-15.188-33.748-33.748V116.964c0-18.56,15.188-33.748,33.748-33.748h159.63
	C290.559,83.216,305.747,98.404,305.747,116.964z"/>
<path style="fill:#57565C;" d="M305.747,116.964v361.288c0,18.56-15.188,33.748-33.748,33.748H137.796
	c-18.56,0-33.748-15.188-33.748-33.748V116.964c0-18.56,15.188-33.748,33.748-33.748H272
	C290.559,83.216,305.747,98.404,305.747,116.964z"/>
<rect x="78.619" y="149.374" style="fill:#D1E7F8;" width="227.127" height="296.457"/>
<rect x="78.619" y="149.374" style="fill:#B3D8F4;" width="25.426" height="296.457"/>
<g>
	<path style="fill:#1D1D1F;" d="M191.146,121.739h-35.903c-4.5,0-8.148-3.648-8.148-8.148c0-4.5,3.648-8.148,8.148-8.148h35.903
		c4.5,0,8.148,3.648,8.148,8.148C199.294,118.091,195.647,121.739,191.146,121.739z"/>
	<circle style="fill:#1D1D1F;" cx="221.546" cy="113.594" r="7.239"/>
	<path style="fill:#1D1D1F;" d="M218.508,486.059h-52.987c-4.219,0-7.639-3.42-7.639-7.639s3.42-7.639,7.639-7.639h52.987
		c4.219,0,7.639,3.42,7.639,7.639S222.727,486.059,218.508,486.059z"/>
</g>
<path style="fill:#5EAC24;" d="M234.046,325.218c0-53.051-64.169-35.887-64.169-68.85c0-15.018,12.093-20.285,26.526-20.285
	c16.968,0,22.625,7.412,27.111,7.412c4.485,0,7.022-5.851,7.022-8.972c0-8.015-16.912-12.123-30.394-12.777v-24.061
	c0-4.219-3.42-7.639-7.639-7.639c-4.219,0-7.639,3.42-7.639,7.639v24.932c-16.052,2.792-31.37,12.213-31.37,35.312
	c0,47.395,64.168,29.647,64.168,68.85c0,16.188-10.727,24.185-27.111,24.185c-23.015,0-27.501-15.798-33.352-15.798
	c-3.705,0-7.216,5.071-7.216,8.972c0,7.644,13.45,19.657,34.881,21.727v24.308c0,4.219,3.42,7.639,7.639,7.639
	c4.219,0,7.639-3.42,7.639-7.639V365.58C220.245,362.736,234.046,349.679,234.046,325.218z"/>
<path style="fill:#FFA733;" d="M405.582,433.209l-72.732,31.706c-8.688,3.789-18.903-0.224-22.692-8.912l-6.274-14.392
	c-0.611-1.395-1.803-2.444-3.269-2.862l-49.917-14.218c-10.185-2.903-16.459-13.709-13.424-23.853
	c2.974-9.91,13.444-15.675,23.415-12.833l12.181,3.29c3.392,0.917,6.427-1.742,6.427-4.889c0-0.672-0.143-1.365-0.438-2.047
	c-0.163-0.356-0.306-0.723-0.438-1.09c-0.173-0.346-0.346-0.703-0.509-1.059l-35.536-81.501c-4.125-9.472,0.071-20.574,9.33-24.994
	c0.662-0.316,1.344-0.601,2.057-0.845c9.523-3.259,19.932,1.63,23.955,10.857l33.641,77.152l53.349-23.263
	c8.688-3.789,18.893,0.224,22.682,8.912l25.503,58.483l1.599,3.667C418.272,419.215,414.269,429.421,405.582,433.209z"/>
<path style="fill:#1A6FB0;" d="M426.746,476.119l-61.131,26.654l-17.905,7.812c-5.602,2.434-12.11-0.122-14.554-5.714
	l-10.297-23.629c-2.872-6.6,0.163-14.341,6.763-17.213l18.364-8.016l56.955-24.831c6.6-2.872,14.341,0.173,17.213,6.763
	l10.307,23.629C434.894,467.166,432.337,473.685,426.746,476.119z"/>
<path style="fill:#3D9AE2;" d="M426.746,476.119l-61.131,26.654c-3.422-0.917-6.406-3.32-7.934-6.824l-11.254-25.819
	c-2.088-4.787-1.314-10.144,1.558-14.116l56.955-24.831c6.6-2.872,14.341,0.173,17.213,6.763l10.307,23.629
	C434.894,467.166,432.337,473.685,426.746,476.119z"/>
<path style="fill:#FFC477;" d="M412.895,406.85l-70.695,31.472c-8.505,3.779-18.466-0.051-22.224-8.555l-68.27-154.212
	c0.662-0.316,1.344-0.601,2.057-0.845c9.523-3.259,19.932,1.63,23.955,10.857l33.641,77.152l53.349-23.263
	c8.688-3.789,18.893,0.224,22.682,8.912L412.895,406.85z"/>
<g>
</g>
<g>
</g>
<g>
</g>
<g>
</g>
<g>
</g>
<g>
</g>
<g>
</g>
<g>
</g>
<g>
</g>
<g>
</g>
<g>
</g>
<g>
</g>
<g>
</g>
<g>
</g>
<g>
</g>
</svg>
