<?xml version="1.0" encoding="iso-8859-1"?>
<!-- Generator: Adobe Illustrator 19.0.0, SVG Export Plug-In . SVG Version: 6.00 Build 0)  -->
<svg version="1.1" id="Capa_1" xmlns="http://www.w3.org/2000/svg" xmlns:xlink="http://www.w3.org/1999/xlink" x="0px" y="0px"
	 viewBox="0 0 512 512" style="enable-background:new 0 0 512 512;" xml:space="preserve">
<path style="fill:#78B9EB;" d="M166.315,145.032v232.799c0,12.817-10.488,23.305-23.315,23.305H23.315
	C10.499,401.136,0,390.647,0,377.831V145.032c0-12.099,9.334-22.109,21.143-23.211c0.717-0.073,1.445-0.104,2.172-0.104H143
	C155.827,121.716,166.315,132.205,166.315,145.032z"/>
<path style="fill:#96C8EF;" d="M166.315,145.032v230.71c-0.717,0.073-1.445,0.104-2.172,0.104H44.448
	c-12.817,0-23.305-10.488-23.305-23.315V121.82c0.717-0.073,1.445-0.104,2.172-0.104H143
	C155.827,121.716,166.315,132.205,166.315,145.032z"/>
<path style="fill:#1E81CE;" d="M144.85,183.035c0-2.339-1.05-4.554-2.86-6.034s-4.189-2.07-6.481-1.607l-68.59,13.872
	c-3.636,0.736-6.25,3.931-6.25,7.641v76.584c-3.565-1.698-7.552-2.652-11.757-2.652c-15.132,0-27.441,12.31-27.441,27.441
	c0,15.132,12.31,27.442,27.441,27.442s27.441-12.31,27.441-27.442c0-0.724-0.037-1.441-0.093-2.152v-53.341l52.998-8.27v25.08
	c-3.594-1.733-7.622-2.704-11.873-2.704c-15.132,0-27.441,12.31-27.441,27.441c0,15.132,12.31,27.442,27.441,27.442
	s27.441-12.31,27.441-27.442c0-0.176-0.01-0.349-0.014-0.524c0.022-0.239,0.036-0.481,0.036-0.727V183.035H144.85z M48.91,310.13
	c-6.534,0-11.849-5.316-11.849-11.85c0-6.534,5.316-11.849,11.849-11.849c6.055,0,11.055,4.567,11.757,10.436v2.718
	c0,0.027,0.004,0.054,0.004,0.081C59.981,305.548,54.974,310.13,48.91,310.13z M76.259,227.006v-23.723l52.998-10.719v26.172
	L76.259,227.006z M117.385,296.184c-6.534,0-11.849-5.316-11.849-11.85c0-6.534,5.316-11.849,11.849-11.849
	c6.533,0,11.849,5.316,11.849,11.849C129.235,290.868,123.919,296.184,117.385,296.184z"/>
<path style="fill:#1D1D1F;" d="M512,119.845v269.004c0,4.937-4.044,8.981-8.981,8.981H343.565c-4.937,0-8.981-4.044-8.981-8.981
	V119.845c0-4.937,4.044-8.981,8.981-8.981h159.454C507.957,110.864,512,114.908,512,119.845z"/>
<path style="fill:#2D2D30;" d="M512,119.845v259.971H366.433c-4.937,0-8.981-4.044-8.981-8.991v-259.96h145.567
	C507.957,110.864,512,114.908,512,119.845z"/>
<circle style="fill:#E0E0E2;" cx="423.292" cy="179.599" r="45.274"/>
<path style="fill:#ACABB1;" d="M423.291,212.405c-18.086,0-32.8-14.715-32.8-32.8s14.714-32.8,32.8-32.8
	c18.087,0,32.8,14.714,32.8,32.8S441.377,212.405,423.291,212.405z"/>
<path style="fill:#787680;" d="M444.549,179.604c0,7.526-3.919,14.147-9.823,17.91c-3.306,2.121-7.235,3.347-11.434,3.347
	c-11.736,0-21.257-9.522-21.257-21.257s9.522-21.257,21.257-21.257c4.199,0,8.129,1.227,11.434,3.347
	C440.63,165.457,444.549,172.079,444.549,179.604z"/>
<circle style="fill:#E0E0E2;" cx="423.292" cy="312.318" r="62.042"/>
<path style="fill:#ACABB1;" d="M423.291,361.891c-27.332,0-49.568-22.236-49.568-49.568c0-27.332,22.236-49.568,49.568-49.568
	s49.568,22.236,49.568,49.568C472.859,339.654,450.623,361.891,423.291,361.891z"/>
<path style="fill:#787680;" d="M458.156,312.324c0,15.249-9.792,28.211-23.43,32.941c-3.576,1.247-7.432,1.923-11.434,1.923
	c-19.261,0-34.864-15.613-34.864-34.864c0-19.261,15.602-34.864,34.864-34.864c4.002,0,7.858,0.676,11.434,1.923
	C448.364,284.112,458.156,297.075,458.156,312.324z"/>
<g>
	<path style="fill:#898890;" d="M444.549,179.604c0,7.526-3.919,14.147-9.823,17.91c-5.904-3.763-9.823-10.384-9.823-17.91
		s3.919-14.147,9.823-17.91C440.63,165.457,444.549,172.079,444.549,179.604z"/>
	<path style="fill:#898890;" d="M458.156,312.324c0,15.249-9.792,28.211-23.43,32.941c-13.638-4.73-23.43-17.692-23.43-32.941
		c0-15.259,9.792-28.211,23.43-32.941C448.364,284.112,458.156,297.075,458.156,312.324z"/>
</g>
<path id="SVGCleanerId_0" style="fill:#96C8EF;" d="M306.019,158.472l-34.604,34.604c-2.505,2.505-6.798,0.738-6.798-2.807v-13.908
	c0-2.204-1.777-3.981-3.981-3.981h-61.37c-2.193,0-3.981-1.788-3.981-3.981v-25.114c0-2.193,1.788-3.981,3.981-3.981h61.37
	c2.204,0,3.981-1.777,3.981-3.981v-13.96c0-3.545,4.272-5.322,6.788-2.827l34.604,34.292
	C307.578,154.387,307.578,156.913,306.019,158.472z"/>
<g>
	<path id="SVGCleanerId_0_1_" style="fill:#96C8EF;" d="M306.019,158.472l-34.604,34.604c-2.505,2.505-6.798,0.738-6.798-2.807
		v-13.908c0-2.204-1.777-3.981-3.981-3.981h-61.37c-2.193,0-3.981-1.788-3.981-3.981v-25.114c0-2.193,1.788-3.981,3.981-3.981h61.37
		c2.204,0,3.981-1.777,3.981-3.981v-13.96c0-3.545,4.272-5.322,6.788-2.827l34.604,34.292
		C307.578,154.387,307.578,156.913,306.019,158.472z"/>
</g>
<path style="fill:#1E81CE;" d="M308.847,328.976v25.103c0,2.204-1.777,3.981-3.981,3.981h-61.37c-2.193,0-3.981,1.788-3.981,3.981
	v13.97c0,3.534-4.262,5.312-6.777,2.827l-34.604-34.302c-1.57-1.549-1.58-4.075-0.021-5.634l34.614-34.614
	c2.505-2.505,6.788-0.728,6.788,2.817v13.908c0,2.193,1.788,3.981,3.981,3.981h61.37
	C307.069,324.995,308.847,326.772,308.847,328.976z"/>
<path style="fill:#78B9EB;" d="M218.808,140.157v32.223h-19.542c-2.193,0-3.981-1.788-3.981-3.981v-25.114
	c0-2.193,1.788-3.981,3.981-3.981h19.521C218.797,139.585,218.808,139.876,218.808,140.157z"/>
<path style="fill:#1A6FB0;" d="M308.847,328.976v25.103c0,2.204-1.777,3.981-3.981,3.981h-20.228v-33.065h20.228
	C307.069,324.995,308.847,326.772,308.847,328.976z"/>
<g>
</g>
<g>
</g>
<g>
</g>
<g>
</g>
<g>
</g>
<g>
</g>
<g>
</g>
<g>
</g>
<g>
</g>
<g>
</g>
<g>
</g>
<g>
</g>
<g>
</g>
<g>
</g>
<g>
</g>
</svg>
