<?xml version="1.0" encoding="iso-8859-1"?>
<!-- Generator: Adobe Illustrator 19.0.0, SVG Export Plug-In . SVG Version: 6.00 Build 0)  -->
<svg version="1.1" id="Capa_1" xmlns="http://www.w3.org/2000/svg" xmlns:xlink="http://www.w3.org/1999/xlink" x="0px" y="0px"
	 viewBox="0 0 512 512" style="enable-background:new 0 0 512 512;" xml:space="preserve">
<path style="fill:#787680;" d="M208.734,362.943l-0.305,2.399c-1.007,7.879-8.266,13.502-16.145,12.505L52.031,360.015
	l-34.395-4.372c-7.879-0.996-13.502-8.266-12.495-16.135l0.305-2.399c0.996-7.879,8.266-13.502,16.135-12.505l34.883,4.433
	l139.765,17.762C204.108,347.804,209.73,355.063,208.734,362.943z"/>
<path style="fill:#ACABB1;" d="M208.734,362.943l-0.305,2.399c-1.007,7.879-8.266,13.502-16.145,12.505L52.031,360.015
	c-2.582-4.046-3.823-8.977-3.172-14.091l0.458-3.538c0.681-5.378,3.335-10.035,7.147-13.349l139.765,17.762
	C204.108,347.804,209.73,355.063,208.734,362.943z"/>
<path style="fill:#787680;" d="M494.363,355.643l-131.082,16.664l-43.565,5.541c-7.879,0.996-15.139-4.626-16.145-12.505
	l-0.305-2.399c-0.996-7.879,4.626-15.139,12.505-16.145l45.954-5.836l128.693-16.359c7.869-0.996,15.139,4.626,16.135,12.505
	l0.305,2.399C507.865,347.377,502.243,354.647,494.363,355.643z"/>
<path style="fill:#ACABB1;" d="M494.363,355.643l-131.082,16.664c-3.894-2.847-6.659-7.208-7.31-12.343l-0.386-3.009
	c-0.793-6.222,1.708-12.149,6.141-15.993l128.693-16.359c7.869-0.996,15.139,4.626,16.135,12.505l0.305,2.399
	C507.865,347.377,502.243,354.647,494.363,355.643z"/>
<path style="fill:#1D1D1F;" d="M300.897,400.408v69.206c0,9.516-3.182,18.331-8.53,25.417C284.62,505.32,272.308,512,258.521,512
	h-7.107c-23.303,0-42.376-19.073-42.376-42.386v-69.206c0-22.865,18.361-41.654,41.064-42.355c0.437-0.01,0.874-0.02,1.312-0.02
	h7.107C281.824,358.032,300.897,377.105,300.897,400.408z"/>
<path style="fill:#2D2D30;" d="M300.897,400.408v69.206c0,9.516-3.182,18.331-8.53,25.417c-0.437,0.01-0.874,0.02-1.312,0.02h-7.107
	c-23.303,0-42.376-19.073-42.376-42.386V383.47c0-9.516,3.182-18.331,8.53-25.417c0.437-0.01,0.874-0.02,1.312-0.02h7.107
	C281.824,358.032,300.897,377.105,300.897,400.408z"/>
<g>
	<path style="fill:#FF0C38;" d="M367.773,186.154c-5.711-2.423-10.222-4.337-10.222-8.56c0-4.076,3.518-6.414,9.65-6.414
		c4.575,0,7.021,1.256,8.988,2.265c1.204,0.617,2.242,1.151,3.418,1.151c3.618,0,5.184-4.444,5.184-6.711
		c0-6.079-11.057-7.7-17.59-7.7c-10.806,0-22.354,4.857-22.354,18.489c0,12.197,9.13,16.251,17.185,19.828
		c6.263,2.782,11.673,5.184,11.673,10.828c0,5.392-4.939,7.313-9.561,7.313c-5.427,0-8.388-2.487-10.767-4.486
		c-1.557-1.307-2.902-2.437-4.516-2.437c-3.214,0-5.632,4.126-5.632,6.801c0,5.502,9.098,11.656,21.275,11.656
		c13.512,0,21.906-7.67,21.906-20.017C386.41,194.062,376.076,189.677,367.773,186.154z"/>
	<path style="fill:#FF0C38;" d="M414.22,160.634c-13.893,0-21.545,7.492-21.545,21.096v25.082c0,13.603,7.652,21.096,21.545,21.096
		c13.952,0,21.635-7.492,21.635-21.096v-25.082C435.855,168.126,428.172,160.634,414.22,160.634z M405.38,181.73
		c0-6.523,2.975-9.83,8.84-9.83c5.843,0,8.932,3.399,8.932,9.83v25.082c0,6.432-3.089,9.83-8.932,9.83
		c-5.866,0-8.84-3.307-8.84-9.83V181.73z"/>
	<path style="fill:#FF0C38;" d="M466.126,186.154c-5.711-2.423-10.222-4.337-10.222-8.56c0-4.076,3.518-6.414,9.65-6.414
		c4.575,0,7.021,1.256,8.988,2.265c1.204,0.617,2.242,1.151,3.418,1.151c3.618,0,5.184-4.444,5.184-6.711
		c0-6.079-11.057-7.7-17.59-7.7c-10.806,0-22.354,4.857-22.354,18.489c0,12.197,9.13,16.251,17.185,19.828
		c6.263,2.782,11.673,5.184,11.673,10.828c0,5.392-4.939,7.313-9.561,7.313c-5.427,0-8.388-2.487-10.767-4.486
		c-1.557-1.307-2.902-2.437-4.516-2.437c-3.214,0-5.632,4.126-5.632,6.801c0,5.502,9.098,11.656,21.275,11.656
		c13.512,0,21.906-7.67,21.906-20.017C484.763,194.062,474.429,189.677,466.126,186.154z"/>
</g>
<path style="fill:#B3D8F4;" d="M399.206,141.112c-4.492,0-8.134-3.642-8.134-8.134c0-21.656-17.618-39.274-39.275-39.274
	c-4.492,0-8.134-3.642-8.134-8.134s3.642-8.134,8.134-8.134c30.626,0,55.542,24.916,55.542,55.541
	C407.34,137.471,403.698,141.112,399.206,141.112z"/>
<path style="fill:#3D9AE2;" d="M476.644,141.112c-4.492,0-8.134-3.642-8.134-8.134c0-64.355-52.357-116.711-116.712-116.711
	c-4.492,0-8.134-3.642-8.134-8.134S347.306,0,351.798,0c73.325,0,132.979,59.654,132.979,132.978
	C484.777,137.471,481.135,141.112,476.644,141.112z"/>
<path style="fill:#78B9EB;" d="M439.381,141.112c-4.492,0-8.134-3.642-8.134-8.134c0-43.808-35.641-79.45-79.45-79.45
	c-4.492,0-8.134-3.642-8.134-8.134s3.642-8.134,8.134-8.134c52.779,0,95.717,42.938,95.717,95.717
	C447.514,137.471,443.872,141.112,439.381,141.112z"/>
<path style="fill:#3E3D42;" d="M316.554,209.981v186.075c0,12.566-3.924,24.248-10.594,33.917
	c-5.612,8.103-17.304,8.662-24.014,1.434c-3.375-3.63-7.463-6.568-12.038-8.622c-4.575-2.033-9.628-3.172-14.935-3.172
	c-9.974,0-19.063,4.016-25.712,10.523c-0.417,0.407-0.834,0.834-1.24,1.271c-6.72,7.229-18.412,6.669-24.024-1.434
	c-6.68-9.669-10.594-21.351-10.594-33.917V209.981c0-32.402,26.058-58.999,58.246-59.883c0.549-0.01,1.098-0.02,1.647-0.02h3.355
	C289.602,150.078,316.554,177.03,316.554,209.981z"/>
<path style="fill:#57565C;" d="M316.554,209.981v186.075c0,12.566-3.924,24.248-10.594,33.917
	c-5.612,8.103-17.304,8.662-24.014,1.434c-3.375-3.63-7.463-6.568-12.038-8.622c-4.575-2.033-9.628-3.172-14.935-3.172
	c-9.974,0-19.063,4.016-25.712,10.523c-0.183-2.054-0.275-4.138-0.275-6.243V202.143c0-20.466,8.733-39,22.662-52.044
	c0.549-0.01,1.098-0.02,1.647-0.02h3.355C289.602,150.078,316.554,177.03,316.554,209.981z"/>
<path style="fill:#830018;" d="M316.556,209.977v80.185c-17.435,13.109-39.104,20.889-62.576,20.931h-0.174
	c-22.498,0-43.347-7.114-60.403-19.208v-81.908c0-32.943,26.947-59.9,59.89-59.9h3.362
	C289.599,150.077,316.556,177.035,316.556,209.977z"/>
<path style="fill:#FF0C38;" d="M253.804,150.078v161.014c-8.55,0-16.857-1.027-24.817-2.969
	c-12.973-3.152-25.011-8.733-35.584-16.237v-81.905c0-32.402,26.058-58.999,58.246-59.883c0.549-0.01,1.098-0.02,1.647-0.02H253.804
	z"/>
<path style="fill:#C70024;" d="M251.649,150.098c-13.929,13.044-22.662,31.578-22.662,52.044v105.98
	c-12.973-3.152-25.011-8.733-35.584-16.237v-81.905C193.402,177.579,219.46,150.983,251.649,150.098z"/>
<g>
</g>
<g>
</g>
<g>
</g>
<g>
</g>
<g>
</g>
<g>
</g>
<g>
</g>
<g>
</g>
<g>
</g>
<g>
</g>
<g>
</g>
<g>
</g>
<g>
</g>
<g>
</g>
<g>
</g>
</svg>
