<?xml version="1.0" encoding="iso-8859-1"?>
<!-- Generator: Adobe Illustrator 19.0.0, SVG Export Plug-In . SVG Version: 6.00 Build 0)  -->
<svg version="1.1" id="Capa_1" xmlns="http://www.w3.org/2000/svg" xmlns:xlink="http://www.w3.org/1999/xlink" x="0px" y="0px"
	 viewBox="0 0 512 512" style="enable-background:new 0 0 512 512;" xml:space="preserve">
<g>
	<path style="fill:#57565C;" d="M175.203,340.037l-79.55,95.879c-7.51,8.175-16.33,13.359-25.523,15.935
		c-33.553,9.432-72.06-15.779-70.055-56.375l27.652-189.099l25.679,23.279L175.203,340.037z"/>
	<path style="fill:#57565C;" d="M480.968,448.081c-3.21,1.569-6.565,2.836-10.014,3.771c-18.334,5.007-39.214,0.831-54.609-15.935
		l-79.55-95.879l20.921-18.958l126.555-114.702l3.407,23.279l24.245,165.82C513.149,420.117,499.437,439.085,480.968,448.081z"/>
</g>
<g>
	<path style="fill:#787680;" d="M175.203,340.037l-79.55,95.879c-7.51,8.175-16.33,13.359-25.523,15.935
		c-23.258-6.337-42.403-27.445-40.969-56.375l24.245-165.82L175.203,340.037z"/>
	<path style="fill:#787680;" d="M480.968,448.081c-0.727,0.239-1.475,0.457-2.213,0.654c-11.302-3.168-22.147-9.536-31.371-19.581
		L357.717,321.08l126.555-114.702l3.407,23.279l24.245,165.82C513.149,420.117,499.437,439.085,480.968,448.081z"/>
</g>
<g>
	<path style="fill:#1D1D1F;" d="M169.085,74.671v22.001c0,9.079-7.427,16.506-16.506,16.506H87.665
		c-9.079,0-16.506-7.427-16.506-16.506V74.671c0-9.079,7.427-16.506,16.506-16.506h64.913
		C161.657,58.165,169.085,65.592,169.085,74.671z"/>
	<path style="fill:#1D1D1F;" d="M440.84,74.671v22.001c0,9.079-7.427,16.506-16.506,16.506H359.42
		c-9.079,0-16.506-7.427-16.506-16.506V74.671c0-9.079,7.427-16.506,16.506-16.506h64.913
		C433.412,58.165,440.84,65.592,440.84,74.671z"/>
</g>
<path style="fill:#3E3D42;" d="M505.203,140.135v103.421c0,55.367-45.301,100.668-100.668,100.668h-297.07
	c-55.367,0-100.668-45.301-100.668-100.668V140.135c0-18.843,12.798-34.841,30.135-39.733c3.542-0.997,7.271-1.527,11.125-1.527
	h415.886C486.64,98.874,505.203,117.437,505.203,140.135z"/>
<g>
	<path style="fill:#2D2D30;" d="M169.085,74.671v22.001c0,9.079-7.427,16.506-16.506,16.506h-35.828
		c-9.079,0-16.506-7.427-16.506-16.506V74.671c0-9.079,7.427-16.506,16.506-16.506h35.828
		C161.657,58.165,169.085,65.592,169.085,74.671z"/>
	<path style="fill:#2D2D30;" d="M440.84,74.671v22.001c0,9.079-7.427,16.506-16.506,16.506h-35.827
		c-9.079,0-16.506-7.427-16.506-16.506V74.671c0-9.079,7.427-16.506,16.506-16.506h35.827
		C433.412,58.165,440.84,65.592,440.84,74.671z"/>
</g>
<path style="fill:#57565C;" d="M505.203,140.135v72.954c0,55.367-45.301,100.668-100.668,100.668H136.55
	c-55.367,0-100.668-45.301-100.668-100.668V109.667c0-3.189,0.364-6.285,1.049-9.266c3.542-0.997,7.271-1.527,11.125-1.527h415.886
	C486.64,98.874,505.203,117.437,505.203,140.135z"/>
<path style="fill:#1D1D1F;" d="M216.183,257.943v5.952c0,9.806-8.019,17.836-17.836,17.836h-7.313c-1.163,0-2.098,0.935-2.098,2.098
	v7.313c0,7.666-4.903,14.242-11.717,16.745c0,0,0,0.01-0.01,0c-1.911,0.706-3.968,1.091-6.108,1.091h-5.952
	c-9.806,0-17.836-8.019-17.836-17.836v-7.313c0-1.163-0.935-2.098-2.098-2.098H137.9c-9.806,0-17.836-8.03-17.836-17.836v-5.952
	c0-9.806,8.03-17.836,17.836-17.836h7.313c1.163,0,2.098-0.935,2.098-2.098v-7.313c0-9.806,8.03-17.836,17.836-17.836h5.952
	c2.14,0,4.197,0.384,6.108,1.091c0.01,0,0.01,0,0.01,0c6.814,2.503,11.717,9.079,11.717,16.745v7.313
	c0,1.163,0.935,2.098,2.098,2.098h7.313C208.163,240.107,216.183,248.137,216.183,257.943z"/>
<path style="fill:#2D2D30;" d="M216.183,257.943v5.952c0,9.806-8.019,17.836-17.836,17.836h-7.313c-1.163,0-2.098,0.935-2.098,2.098
	v7.313c0,7.666-4.903,14.242-11.717,16.745c0,0,0,0.01-0.01,0c-6.814-2.503-11.717-9.079-11.717-16.745v-7.313
	c0-1.163-0.935-2.098-2.098-2.098h-7.313c-9.806,0-17.836-8.03-17.836-17.836v-5.952c0-9.806,8.03-17.836,17.836-17.836h7.313
	c1.163,0,2.098-0.935,2.098-2.098v-7.313c0-7.666,4.903-14.242,11.717-16.745c0.01,0,0.01,0,0.01,0
	c6.814,2.503,11.717,9.079,11.717,16.745v7.313c0,1.163,0.935,2.098,2.098,2.098h7.313
	C208.163,240.107,216.183,248.137,216.183,257.943z"/>
<path style="fill:#C70024;" d="M417.8,151.717c0,7.23-4.01,13.515-9.931,16.766c-2.722,1.496-5.859,2.348-9.183,2.348
	c-10.554,0-19.114-8.56-19.114-19.114c0-10.564,8.56-19.114,19.114-19.114c3.324,0,6.461,0.852,9.183,2.348
	C413.79,138.192,417.8,144.487,417.8,151.717z"/>
<g>
	<path style="fill:#5EAC24;" d="M457.034,194.972c0,7.23-4.01,13.515-9.931,16.766c-2.722,1.496-5.859,2.348-9.183,2.348
		c-10.554,0-19.114-8.56-19.114-19.114c0-10.554,8.56-19.114,19.114-19.114c3.324,0,6.461,0.852,9.183,2.348
		C453.025,181.457,457.034,187.742,457.034,194.972z"/>
	<path style="fill:#5EAC24;" d="M417.8,238.227c0,7.23-4.01,13.515-9.931,16.766c-2.722,1.496-5.859,2.348-9.183,2.348
		c-10.554,0-19.114-8.56-19.114-19.114s8.56-19.114,19.114-19.114c3.324,0,6.461,0.852,9.183,2.348
		C413.79,224.712,417.8,230.997,417.8,238.227z"/>
</g>
<path style="fill:#C70024;" d="M378.575,194.972c0,7.23-4.02,13.525-9.941,16.776c-2.722,1.485-5.848,2.337-9.172,2.337
	c-10.564,0-19.114-8.56-19.114-19.114c0-10.554,8.549-19.114,19.114-19.114c3.324,0,6.451,0.852,9.172,2.337
	C374.555,181.447,378.575,187.742,378.575,194.972z"/>
<path style="fill:#FF0C38;" d="M417.8,151.717c0,7.23-4.01,13.515-9.931,16.766c-5.921-3.241-9.941-9.536-9.941-16.766
	c0-7.24,4.02-13.525,9.941-16.766C413.79,138.192,417.8,144.487,417.8,151.717z"/>
<g>
	<path style="fill:#6DC82A;" d="M457.034,194.972c0,7.23-4.01,13.515-9.931,16.766c-5.921-3.241-9.941-9.536-9.941-16.766
		c0-7.23,4.02-13.525,9.941-16.766C453.025,181.457,457.034,187.742,457.034,194.972z"/>
	<path style="fill:#6DC82A;" d="M417.8,238.227c0,7.23-4.01,13.515-9.931,16.766c-5.921-3.241-9.941-9.536-9.941-16.766
		c0-7.23,4.02-13.525,9.941-16.766C413.79,224.712,417.8,230.997,417.8,238.227z"/>
</g>
<path style="fill:#FF0C38;" d="M378.575,194.972c0,7.23-4.02,13.525-9.941,16.776c-5.921-3.251-9.941-9.546-9.941-16.776
	c0-7.23,4.02-13.525,9.941-16.776C374.555,181.447,378.575,187.742,378.575,194.972z"/>
<g>
	<path style="fill:#1D1D1F;" d="M116.824,163.528c0,12.237-7.105,22.812-17.42,27.829c-4.082,1.984-8.674,3.096-13.515,3.096
		c-17.078,0-30.924-13.847-30.924-30.924s13.847-30.924,30.924-30.924c4.841,0,9.432,1.111,13.515,3.096
		C109.718,140.716,116.824,151.291,116.824,163.528z"/>
	<path style="fill:#1D1D1F;" d="M338.271,265.775c0,16.631-10.492,30.821-25.222,36.295c-4.197,1.569-8.757,2.42-13.504,2.42
		c-21.378,0-38.715-17.337-38.715-38.715c0-21.388,17.337-38.726,38.715-38.726c4.747,0,9.307,0.852,13.504,2.42
		C327.779,234.944,338.271,249.134,338.271,265.775z"/>
</g>
<g>
	<path style="fill:#2D2D30;" d="M116.824,163.528c0,12.237-7.105,22.812-17.42,27.829c-10.315-5.007-17.431-15.592-17.431-27.829
		c0-12.237,7.116-22.822,17.431-27.829C109.718,140.716,116.824,151.291,116.824,163.528z"/>
	<path style="fill:#2D2D30;" d="M338.271,265.775c0,16.631-10.492,30.821-25.222,36.295c-14.72-5.485-25.211-19.664-25.211-36.295
		s10.492-30.821,25.211-36.305C327.779,234.944,338.271,249.134,338.271,265.775z"/>
</g>
<g>
</g>
<g>
</g>
<g>
</g>
<g>
</g>
<g>
</g>
<g>
</g>
<g>
</g>
<g>
</g>
<g>
</g>
<g>
</g>
<g>
</g>
<g>
</g>
<g>
</g>
<g>
</g>
<g>
</g>
</svg>
