<?xml version="1.0" encoding="iso-8859-1"?>
<!-- Generator: Adobe Illustrator 19.0.0, SVG Export Plug-In . SVG Version: 6.00 Build 0)  -->
<svg version="1.1" id="Capa_1" xmlns="http://www.w3.org/2000/svg" xmlns:xlink="http://www.w3.org/1999/xlink" x="0px" y="0px"
	 viewBox="0 0 512 512" style="enable-background:new 0 0 512 512;" xml:space="preserve">
<path style="fill:#FF9811;" d="M104,150.304v44.368c0,3.888-3.186,7.074-7.074,7.074H39.437c-3.888,0-7.074-3.186-7.074-7.074
	v-44.368c0-3.888,3.186-7.074,7.074-7.074h57.489C100.814,143.23,104,146.416,104,150.304z"/>
<path style="fill:#FFB655;" d="M104,160.534v34.139c0,3.888-3.186,7.074-7.074,7.074H57.809v-34.139
	c0-3.888,3.186-7.074,7.074-7.074H104z"/>
<path style="fill:#FFCD00;" d="M501.962,207.783v279.453c0,13.619-11.146,24.764-24.764,24.764H25.289
	c-13.619,0-24.764-11.146-24.764-24.764V207.783c0-13.619,11.146-24.754,24.764-24.754h451.909
	C490.816,183.028,501.962,194.164,501.962,207.783z"/>
<path style="fill:#FFDE55;" d="M501.962,207.783v279.453c0,13.619-11.146,24.764-24.764,24.764H56.527
	c-13.619,0-24.764-11.146-24.764-24.764V207.783c0-13.619,11.146-24.754,24.764-24.754h420.671
	C490.816,183.028,501.962,194.164,501.962,207.783z"/>
<path style="fill:#B3D8F4;" d="M424.005,144.178c-4.497,0-8.143-3.646-8.143-8.143c0-22.288-18.133-40.421-40.422-40.421
	c-4.497,0-8.143-3.646-8.143-8.143s3.646-8.143,8.143-8.143c31.269,0,56.708,25.439,56.708,56.707
	C432.148,140.533,428.502,144.178,424.005,144.178z"/>
<path style="fill:#3D9AE2;" d="M503.333,144.178c-4.497,0-8.143-3.646-8.143-8.143c0-66.029-53.72-119.749-119.75-119.749
	c-4.497,0-8.143-3.646-8.143-8.143S370.943,0,375.44,0c75.01,0,136.036,61.026,136.036,136.035
	C511.476,140.533,507.83,144.178,503.333,144.178z"/>
<path style="fill:#78B9EB;" d="M465.161,144.178c-4.497,0-8.143-3.646-8.143-8.143c0-44.982-36.596-81.578-81.578-81.578
	c-4.497,0-8.143-3.646-8.143-8.143s3.646-8.143,8.143-8.143c53.963,0,97.864,43.901,97.864,97.864
	C473.304,140.533,469.658,144.178,465.161,144.178z"/>
<path style="fill:#CC7400;" d="M371.554,239.937c0,3.542-4.071,6.453-9.039,6.453H139.971c-4.967,0-9.039-2.911-9.039-6.453
	l26.128-105.552c0-3.888,3.186-7.074,7.074-7.074h174.217c3.888,0,7.074,3.186,7.074,7.074L371.554,239.937z"/>
<path style="fill:#EE8700;" d="M371.554,239.937c0,3.542-4.071,6.453-9.039,6.453H174.578c-4.967,0-9.039-2.911-9.039-6.453
	l26.128-105.552c0-3.888,3.186-7.074,7.074-7.074h139.609c3.888,0,7.074,3.186,7.074,7.074L371.554,239.937z"/>
<path style="fill:#FFA733;" d="M477.194,183.024H25.293c-13.62,0-24.763,11.144-24.763,24.763v94.624h501.428v-94.624
	C501.957,194.168,490.813,183.024,477.194,183.024z"/>
<circle style="fill:#FF0C38;" cx="432.091" cy="241.385" r="26.536"/>
<circle style="fill:#EE8700;" cx="256.551" cy="343.537" r="139.762"/>
<path style="fill:#CC7400;" d="M256.394,457.87c-54.703,0-101.861-39.078-112.131-92.917
	c-11.81-61.915,28.953-121.895,90.867-133.705c7.132-1.36,14.39-2.05,21.574-2.05c54.704,0,101.861,39.078,112.13,92.917
	c5.721,29.993-0.579,60.418-17.742,85.671c-17.162,25.254-43.132,42.312-73.125,48.033
	C270.837,457.18,263.577,457.87,256.394,457.87z"/>
<path style="fill:#C70024;" d="M107.236,442.379v31.218c0,2.209-1.812,4.021-4.031,4.021H35.752c-2.219,0-4.031-1.812-4.031-4.021
	v-31.218c0-2.209,1.812-4.031,4.031-4.031h67.453C105.425,438.348,107.236,440.17,107.236,442.379z"/>
<path style="fill:#FF0C38;" d="M107.236,442.379v31.218c0,2.209-1.812,4.021-4.031,4.021H68.324c-2.219,0-4.031-1.812-4.031-4.021
	v-31.218c0-2.209,1.812-4.031,4.031-4.031h34.882C105.425,438.348,107.236,440.17,107.236,442.379z"/>
<path style="fill:#663A00;" d="M289.301,424.943c-4.255,1.71-8.57,3.074-12.896,4.082c-41.447,9.68-84.889-12.031-101.267-52.735
	c-18.087-44.969,3.695-96.076,48.654-114.163c17.375-6.993,35.656-8.031,52.603-4.082c26.922,6.27,50.465,25.141,61.57,52.735
	C356.052,355.749,334.27,406.855,289.301,424.943z"/>
<path style="fill:#884D00;" d="M289.301,424.943c-4.255,1.71-8.57,3.074-12.896,4.082c-26.922-6.27-50.465-25.141-61.57-52.735
	c-18.098-44.969,3.695-96.076,48.654-114.163c4.255-1.71,8.57-3.074,12.906-4.082c26.922,6.27,50.465,25.141,61.57,52.735
	C356.052,355.749,334.27,406.855,289.301,424.943z"/>
<path style="fill:#EE8700;" d="M56.527,183.028c-13.619,0-24.764,11.135-24.764,24.754v94.63H0.524v-94.63
	c0-13.619,11.146-24.754,24.764-24.754L56.527,183.028L56.527,183.028z"/>
<g>
</g>
<g>
</g>
<g>
</g>
<g>
</g>
<g>
</g>
<g>
</g>
<g>
</g>
<g>
</g>
<g>
</g>
<g>
</g>
<g>
</g>
<g>
</g>
<g>
</g>
<g>
</g>
<g>
</g>
</svg>
