<?xml version="1.0" encoding="iso-8859-1"?>
<!-- Generator: Adobe Illustrator 19.0.0, SVG Export Plug-In . SVG Version: 6.00 Build 0)  -->
<svg version="1.1" id="Capa_1" xmlns="http://www.w3.org/2000/svg" xmlns:xlink="http://www.w3.org/1999/xlink" x="0px" y="0px"
	 viewBox="0 0 512.002 512.002" style="enable-background:new 0 0 512.002 512.002;" xml:space="preserve">
<path style="fill:#165C92;" d="M415.232,133.911c0,26.52-21.771,47.355-46.816,47.355H153.389c-8.969,0-56.619-11.928-56.619-61.236
	c0-33.821,27.425-61.246,61.246-61.246c1.631,0,3.246,0.068,4.842,0.197c3.713,0.302,7.171-1.81,8.688-5.212
	C185.674,22.081,217.437,0,254.364,0c5.542,0,10.982,0.498,16.26,1.454c38.952,7.067,69.428,39.053,73.809,79.185
	c0.591,5.408,5.807,8.974,11.057,7.553c3.945-1.068,8.094-1.637,12.376-1.637C394.03,86.556,415.232,107.757,415.232,133.911z"/>
<path style="fill:#1E81CE;" d="M415.232,133.911c0,26.52-21.771,47.355-46.816,47.355H185.929c-8.969,0-56.619-11.928-56.619-61.236
	c0-33.821,27.425-61.246,61.246-61.246c0.45,0,0.9,0.005,1.347,0.015c5.794,0.132,11.156-3.122,13.727-8.316
	c12.492-25.243,36.389-43.828,64.957-49.024c0.024-0.004,0.049-0.004,0.073,0c38.948,7.082,69.414,39.081,73.778,79.222
	c0.586,5.385,5.783,8.94,11.011,7.521c3.959-1.075,8.122-1.648,12.418-1.648C394.03,86.556,415.232,107.757,415.232,133.911z"/>
<path style="fill:#78B9EB;" d="M299.366,126.862V44.108c0-0.057-0.007-0.113-0.008-0.17c0.002-0.401-0.019-0.805-0.082-1.213
	c-0.65-4.162-4.548-7.016-8.71-6.359l-68.173,10.637c-0.052,0.008-0.101,0.022-0.153,0.032c-0.149,0.026-0.298,0.058-0.444,0.093
	c-0.104,0.024-0.205,0.05-0.307,0.079c-0.138,0.04-0.275,0.082-0.41,0.129c-0.108,0.038-0.216,0.075-0.321,0.118
	c-0.12,0.048-0.239,0.1-0.356,0.154c-0.114,0.052-0.227,0.106-0.338,0.163c-0.104,0.054-0.204,0.111-0.305,0.169
	c-0.116,0.067-0.231,0.135-0.344,0.208c-0.092,0.059-0.18,0.122-0.267,0.185c-0.112,0.08-0.223,0.161-0.329,0.246
	c-0.084,0.068-0.167,0.138-0.248,0.209c-0.102,0.088-0.201,0.177-0.298,0.27c-0.082,0.079-0.161,0.162-0.24,0.245
	c-0.086,0.092-0.173,0.184-0.254,0.28c-0.08,0.094-0.157,0.19-0.232,0.288c-0.072,0.093-0.143,0.185-0.21,0.282
	c-0.076,0.108-0.146,0.218-0.218,0.329c-0.059,0.094-0.117,0.187-0.172,0.283c-0.067,0.117-0.129,0.238-0.19,0.359
	c-0.05,0.099-0.099,0.197-0.143,0.298c-0.054,0.121-0.104,0.243-0.152,0.367c-0.043,0.11-0.083,0.219-0.121,0.33
	c-0.04,0.118-0.074,0.237-0.109,0.358c-0.035,0.124-0.068,0.249-0.097,0.375c-0.025,0.112-0.047,0.224-0.067,0.338
	c-0.025,0.139-0.047,0.279-0.064,0.42c-0.013,0.108-0.023,0.216-0.032,0.324c-0.011,0.146-0.019,0.294-0.022,0.442
	c-0.001,0.054-0.008,0.107-0.008,0.162v56.565c-3.809-1.951-8.119-3.06-12.684-3.06c-15.399,0-27.927,12.528-27.927,27.927
	s12.528,27.927,27.927,27.927s27.927-12.528,27.927-27.927c0-0.101-0.006-0.199-0.007-0.299c0.005-0.119,0.018-0.237,0.018-0.357
	V87.316l52.92-8.257v24.188c-3.804-1.944-8.105-3.049-12.662-3.049c-15.399,0-27.927,12.528-27.927,27.927
	s12.528,27.927,27.927,27.927s27.927-12.528,27.927-27.927c0-0.335-0.013-0.666-0.025-0.999
	C299.356,127.039,299.366,126.952,299.366,126.862z M203.256,148.644c-6.989,0-12.674-5.685-12.674-12.674
	s5.685-12.674,12.674-12.674s12.674,5.685,12.674,12.674S210.245,148.644,203.256,148.644z M231.194,71.879V61.066l52.92-8.257
	v10.813L231.194,71.879z M271.451,140.8c-6.989,0-12.674-5.685-12.674-12.674c0-6.989,5.685-12.674,12.674-12.674
	s12.674,5.685,12.674,12.674C284.126,135.115,278.439,140.8,271.451,140.8z"/>
<path style="fill:#1E81CE;" d="M273.926,267.365c-1.986-1.917-4.851-2.612-7.492-1.817c-2.642,0.794-4.649,2.953-5.25,5.646
	l-6.942,31.163c-2.873-1.463-5.969-2.18-9.096-2.18c-10.874,0-20.159,8.903-20.159,20.184c0,10.872,8.903,20.159,20.184,20.159
	c9.089,0,17.6-6.296,19.799-16.167l8.145-36.566l6.044,5.837c3.03,2.927,7.858,2.84,10.784-0.189
	c2.926-3.03,2.841-7.858-0.189-10.784L273.926,267.365z M244.103,325.148c-2.55-0.561-4.345-3.119-3.744-5.859
	c0.563-2.558,3.128-4.343,5.857-3.743c2.564,0.564,4.344,3.133,3.744,5.858l0,0C249.396,323.968,246.826,325.748,244.103,325.148z"
	/>
<g>
	<path style="fill:#3D9AE2;" d="M203.946,414.635c-0.172-2.384,0.496-0.529-19.463-36.861c1.893-0.412,3.734-1.072,5.454-1.982
		c7.001-3.706,11.35-10.931,11.35-18.858c0-3.453-0.857-6.898-2.479-9.963c-3.706-7.001-10.931-11.35-18.857-11.35
		c-3.453,0-6.898,0.857-9.963,2.479c-7.001,3.705-11.351,10.931-11.351,18.858c0,3.453,0.857,6.897,2.479,9.962l0,0
		c0.059,0.111,6.721,12.239,15.312,27.865l-24.557,18.498l-3.333-6.271c1.98-0.407,3.906-1.086,5.7-2.035
		c7.001-3.706,11.35-10.931,11.35-18.858c0-11.561-9.347-21.314-21.337-21.314c-3.453,0-6.898,0.857-9.963,2.479
		c-10.482,5.549-14.344,18.479-8.871,28.82l0,0c0.055,0.104,26.5,49.778,26.899,50.5c1.384,2.616,4.01,4.07,6.743,4.07
		c1.587,0,3.189-0.494,4.559-1.517c39.928-29.855,37.723-28.068,38.564-29.067C203.45,418.579,204.089,416.622,203.946,414.635z
		 M179.95,350.874c3.4,0,6.083,2.763,6.083,6.061c0,3.386-2.749,6.084-6.061,6.084c-3.401,0-6.084-2.764-6.084-6.06
		C173.889,354.697,176.638,350.874,179.95,350.874z M183.85,408.29l2.616,4.759l-24.854,18.567l-2.495-4.696L183.85,408.29z
		 M141.421,380.766c0.888-0.469,1.84-0.708,2.829-0.708c2.262,0,4.322,1.239,5.376,3.232c0.469,0.888,0.708,1.84,0.708,2.829
		c0,2.262-1.239,4.322-3.232,5.376c-4.09,2.163-8.913-0.86-8.913-5.353C138.189,383.881,139.428,381.821,141.421,380.766z"/>
	<path style="fill:#3D9AE2;" d="M380.83,466.296c-1.184-1.649-32.728-32.536-40.172-39.866c4.082-1.349,7.825-3.636,10.954-6.764
		c5.276-5.275,8.181-12.287,8.181-19.748c0-7.46-2.905-14.473-8.18-19.748c-5.275-5.275-12.288-8.181-19.748-8.181
		c-7.459,0-14.471,2.905-19.747,8.18c-5.276,5.275-8.18,12.287-8.18,19.748s2.904,14.473,8.179,19.748c0,0,0,0,0.001,0.001
		c0.16,0.16,0.325,0.31,0.488,0.466c0.071,0.076,0.136,0.157,0.21,0.231l32.373,31.994c-2.656,3.681-5.464,7.365-8.395,11.195
		c-4.087,5.339-8.312,10.859-12.211,16.57c-1.342,1.965-2.052,4.259-2.052,6.633c0,3.129,1.217,6.069,3.427,8.276l13.544,13.544
		c2.211,2.211,5.148,3.429,8.27,3.429c3.838,0,7.436-1.883,9.625-5.036c3.447-4.965,7.246-9.93,10.92-14.729
		c1.731-2.262,12.058-15.717,13.254-18.352C382.661,471.49,382.473,468.589,380.83,466.296z M322.903,390.955
		c2.395-2.394,5.578-3.713,8.962-3.713c3.385,0,6.568,1.318,8.962,3.713c2.394,2.395,3.713,5.577,3.713,8.963
		c0,3.385-1.318,6.568-3.713,8.962c-2.394,2.394-5.576,3.713-8.962,3.713s-6.568-1.318-8.961-3.712l-0.001-0.001
		c-2.394-2.394-3.712-5.575-3.712-8.962C319.191,396.531,320.51,393.348,322.903,390.955z M356.207,482.963
		c-2.947,3.851-5.973,7.802-8.892,11.85l-8.478-8.478c3.221-4.568,6.695-9.105,10.071-13.515c2.412-3.151,4.87-6.363,7.26-9.618
		l8.539,8.438C362.024,475.363,359.171,479.09,356.207,482.963z"/>
</g>
<g>
	<path style="fill:#78B9EB;" d="M268.35,240.447v-35.081c0-4.212-3.415-7.626-7.626-7.626c-4.212,0-7.626,3.415-7.626,7.626v35.081
		c0,4.212,3.415,7.626,7.626,7.626C264.935,248.074,268.35,244.659,268.35,240.447z"/>
	<path style="fill:#78B9EB;" d="M172.26,223.156c4.212,0,7.626-3.415,7.626-7.626v-10.164c0-4.212-3.415-7.626-7.626-7.626
		s-7.626,3.415-7.626,7.626v10.164C164.634,219.742,168.048,223.156,172.26,223.156z"/>
	<path style="fill:#78B9EB;" d="M172.26,310.607c4.212,0,7.626-3.415,7.626-7.626v-56.944c0-4.212-3.415-7.626-7.626-7.626
		s-7.626,3.415-7.626,7.626v56.944C164.634,307.192,168.048,310.607,172.26,310.607z"/>
	<path style="fill:#78B9EB;" d="M346.135,296.376c4.212,0,7.626-3.415,7.626-7.626v-83.383c0-4.212-3.415-7.626-7.626-7.626
		s-7.626,3.415-7.626,7.626v83.383C338.509,292.961,341.923,296.376,346.135,296.376z"/>
	<path style="fill:#78B9EB;" d="M346.135,347.213c4.212,0,7.626-3.415,7.626-7.626v-20.331c0-4.212-3.415-7.626-7.626-7.626
		s-7.626,3.415-7.626,7.626v20.331C338.509,343.798,341.923,347.213,346.135,347.213z"/>
</g>
<g>
</g>
<g>
</g>
<g>
</g>
<g>
</g>
<g>
</g>
<g>
</g>
<g>
</g>
<g>
</g>
<g>
</g>
<g>
</g>
<g>
</g>
<g>
</g>
<g>
</g>
<g>
</g>
<g>
</g>
</svg>
