<?xml version="1.0" encoding="iso-8859-1"?>
<!-- Generator: Adobe Illustrator 19.0.0, SVG Export Plug-In . SVG Version: 6.00 Build 0)  -->
<svg version="1.1" id="Capa_1" xmlns="http://www.w3.org/2000/svg" xmlns:xlink="http://www.w3.org/1999/xlink" x="0px" y="0px"
	 viewBox="0 0 512 512" style="enable-background:new 0 0 512 512;" xml:space="preserve">
<path style="fill:#3E3D42;" d="M512,187.773v252.631c0,14.497-11.637,26.237-25.998,26.237H25.998C11.637,466.641,0,454.9,0,440.404
	V187.773c0-14.133,11.075-25.666,24.958-26.217c0.343-0.01,0.697-0.021,1.04-0.021h460.003C500.363,161.536,512,173.287,512,187.773
	z"/>
<path style="fill:#57565C;" d="M512,187.773v248.689c-0.343,0.01-0.697,0.021-1.04,0.021H50.957
	c-14.361,0-25.998-11.741-25.998-26.237V161.557c0.343-0.01,0.697-0.021,1.04-0.021h460.003
	C500.363,161.536,512,173.287,512,187.773z"/>
<path style="fill:#ACABB1;" d="M341.316,214.999v198.18c0,4.721-4.461,8.548-9.983,8.548H44.644c-5.522,0-9.983-3.827-9.983-8.548
	v-198.18c0-4.721,4.461-8.548,9.983-8.548h286.688C336.855,206.45,341.316,210.277,341.316,214.999z"/>
<path style="fill:#E0E0E2;" d="M341.316,214.999v198.18c0,4.721-4.461,8.548-9.983,8.548H82.082c-5.522,0-9.983-3.827-9.983-8.548
	v-198.18c0-4.721,4.461-8.548,9.983-8.548h249.251C336.855,206.45,341.316,210.277,341.316,214.999z"/>
<path style="fill:#B3D8F4;" d="M280.283,135.319c-1.996,0-3.992-0.761-5.515-2.285c-10.349-10.348-27.189-10.349-37.54,0
	c-3.046,3.046-7.985,3.046-11.03-0.001c-3.046-3.046-3.045-7.985,0.001-11.03c16.433-16.431,43.17-16.429,59.6,0
	c3.046,3.046,3.046,7.985,0,11.03C284.276,134.558,282.279,135.319,280.283,135.319z"/>
<path style="fill:#78B9EB;" d="M207.947,111.551c-1.996,0-3.992-0.761-5.515-2.285c-3.046-3.046-3.046-7.985,0-11.03
	C216.741,83.929,235.764,76.049,256,76.048c20.235,0,39.259,7.88,53.568,22.188c3.046,3.046,3.046,7.985,0,11.03
	c-3.046,3.046-7.985,3.046-11.03,0c-11.362-11.361-26.468-17.619-42.537-17.619s-31.176,6.258-42.537,17.62
	C211.939,110.79,209.944,111.551,207.947,111.551z"/>
<path style="fill:#3D9AE2;" d="M325.753,89.85c-1.996,0-3.992-0.761-5.515-2.285C303.08,70.407,280.266,60.958,256,60.958
	c-24.267,0-47.08,9.449-64.239,26.608c-3.046,3.046-7.985,3.046-11.03,0c-3.046-3.046-3.046-7.984,0-11.03
	c20.103-20.104,46.836-31.177,75.267-31.177c0.002,0,0,0,0.001,0c28.433,0,55.163,11.072,75.268,31.177
	c3.046,3.046,3.046,7.985,0,11.03C329.746,89.088,327.75,89.85,325.753,89.85z"/>
<g>
	<path style="fill:#898890;" d="M479.606,375.626c0,7.144-5.792,12.947-12.947,12.947c-7.155,0-12.947-5.803-12.947-12.947
		c0-2.267,0.582-4.399,1.602-6.24c2.205-4.004,6.458-6.708,11.346-6.708s9.141,2.704,11.346,6.708
		C479.024,371.228,479.606,373.359,479.606,375.626z"/>
	<path style="fill:#898890;" d="M440.151,375.626c0,7.144-5.792,12.947-12.947,12.947c-7.155,0-12.947-5.803-12.947-12.947
		c0-2.267,0.582-4.399,1.602-6.24c2.205-4.004,6.458-6.708,11.346-6.708s9.141,2.704,11.346,6.708
		C439.569,371.228,440.151,373.359,440.151,375.626z"/>
	<path style="fill:#898890;" d="M401.008,375.626c0,7.144-5.792,12.947-12.937,12.947c-7.155,0-12.947-5.803-12.947-12.947
		c0-2.267,0.582-4.399,1.602-6.24c2.205-4.004,6.458-6.708,11.346-6.708c4.877,0,9.131,2.704,11.335,6.708
		C400.426,371.228,401.008,373.359,401.008,375.626z"/>
	<path style="fill:#898890;" d="M479.606,408.78c0,7.155-5.792,12.947-12.947,12.947c-7.155,0-12.947-5.792-12.947-12.947
		c0-2.267,0.582-4.399,1.602-6.24c2.205-3.993,6.458-6.708,11.346-6.708s9.141,2.714,11.346,6.708
		C479.024,404.381,479.606,406.512,479.606,408.78z"/>
	<path style="fill:#898890;" d="M440.151,408.78c0,7.155-5.792,12.947-12.947,12.947c-7.155,0-12.947-5.792-12.947-12.947
		c0-2.267,0.582-4.399,1.602-6.24c2.205-3.993,6.458-6.708,11.346-6.708s9.141,2.714,11.346,6.708
		C439.569,404.381,440.151,406.512,440.151,408.78z"/>
	<path style="fill:#898890;" d="M401.008,408.78c0,7.155-5.792,12.947-12.937,12.947c-7.155,0-12.947-5.792-12.947-12.947
		c0-2.267,0.582-4.399,1.602-6.24c2.205-3.993,6.458-6.708,11.346-6.708c4.877,0,9.131,2.714,11.335,6.708
		C400.426,404.381,401.008,406.512,401.008,408.78z"/>
</g>
<g>
	<path style="fill:#ACABB1;" d="M478.005,369.387c-2.205,3.993-6.458,6.708-11.346,6.708s-9.141-2.714-11.346-6.708
		c2.205-4.004,6.458-6.708,11.346-6.708S475.8,365.383,478.005,369.387z"/>
	<path style="fill:#ACABB1;" d="M438.55,369.387c-2.205,3.993-6.458,6.708-11.346,6.708s-9.141-2.714-11.346-6.708
		c2.205-4.004,6.458-6.708,11.346-6.708S436.345,365.383,438.55,369.387z"/>
	<path style="fill:#ACABB1;" d="M399.407,369.387c-2.205,3.993-6.458,6.708-11.335,6.708c-4.888,0-9.141-2.714-11.346-6.708
		c2.205-4.004,6.458-6.708,11.346-6.708C392.949,362.679,397.202,365.383,399.407,369.387z"/>
	<path style="fill:#ACABB1;" d="M478.005,402.54c-2.205,4.004-6.458,6.708-11.346,6.708s-9.141-2.704-11.346-6.708
		c2.205-3.993,6.458-6.708,11.346-6.708S475.8,398.547,478.005,402.54z"/>
	<path style="fill:#ACABB1;" d="M438.55,402.54c-2.205,4.004-6.458,6.708-11.346,6.708s-9.141-2.704-11.346-6.708
		c2.205-3.993,6.458-6.708,11.346-6.708S436.345,398.547,438.55,402.54z"/>
	<path style="fill:#ACABB1;" d="M399.407,402.54c-2.205,4.004-6.458,6.708-11.335,6.708c-4.888,0-9.141-2.704-11.346-6.708
		c2.205-3.993,6.458-6.708,11.346-6.708C392.949,395.832,397.202,398.547,399.407,402.54z"/>
</g>
<g>
	<path style="fill:#1D1D1F;" d="M303.485,364.914c-4.307,0-7.799-3.492-7.799-7.799v-84.866c0-4.307,3.492-7.799,7.799-7.799
		c4.307,0,7.799,3.492,7.799,7.799v84.866C311.285,361.422,307.793,364.914,303.485,364.914z"/>
	<path style="fill:#1D1D1F;" d="M427.514,275.847c-21.413,0-38.834,17.421-38.834,38.834s17.421,38.834,38.834,38.834
		s38.834-17.421,38.834-38.834S448.927,275.847,427.514,275.847z M427.514,291.446c3.562,0,6.938,0.808,9.958,2.246l-30.946,30.947
		c-1.439-3.02-2.247-6.397-2.247-9.958C404.279,301.869,414.702,291.446,427.514,291.446z M427.514,337.918
		c-3.562,0-6.938-0.808-9.958-2.246l30.946-30.947c1.439,3.02,2.247,6.397,2.247,9.958
		C450.748,327.494,440.326,337.918,427.514,337.918z"/>
</g>
<path style="fill:#78B9EB;" d="M479.606,210.61v41.878c0,2.298-1.861,4.16-4.16,4.16h-96.163c-2.298,0-4.16-1.861-4.16-4.16V210.61
	c0-2.298,1.862-4.16,4.16-4.16h96.163C477.745,206.45,479.606,208.312,479.606,210.61z"/>
<path style="fill:#B3D8F4;" d="M479.606,210.61v41.878c0,2.298-1.861,4.16-4.16,4.16h-58.725c-2.298,0-4.16-1.861-4.16-4.16V210.61
	c0-2.298,1.861-4.16,4.16-4.16h58.725C477.745,206.45,479.606,208.312,479.606,210.61z"/>
<g>
</g>
<g>
</g>
<g>
</g>
<g>
</g>
<g>
</g>
<g>
</g>
<g>
</g>
<g>
</g>
<g>
</g>
<g>
</g>
<g>
</g>
<g>
</g>
<g>
</g>
<g>
</g>
<g>
</g>
</svg>
