<?xml version="1.0" encoding="iso-8859-1"?>
<!-- Generator: Adobe Illustrator 19.0.0, SVG Export Plug-In . SVG Version: 6.00 Build 0)  -->
<svg version="1.1" id="Capa_1" xmlns="http://www.w3.org/2000/svg" xmlns:xlink="http://www.w3.org/1999/xlink" x="0px" y="0px"
	 viewBox="0 0 512 512" style="enable-background:new 0 0 512 512;" xml:space="preserve">
<path style="fill:#3E3D42;" d="M483.031,13.117v306.338c0,7.211-5.906,13.117-13.117,13.117H42.075
	c-7.211,0-13.106-5.906-13.106-13.117V13.117C28.969,5.906,34.864,0,42.075,0h427.839C477.126,0,483.031,5.906,483.031,13.117z"/>
<path style="fill:#57565C;" d="M483.031,13.117v306.338c0,7.211-5.906,13.117-13.117,13.117H71.086
	c-7.211,0-13.106-5.906-13.106-13.117V13.117C57.979,5.906,63.874,0,71.086,0h398.829C477.126,0,483.031,5.906,483.031,13.117z"/>
<g>
	<path style="fill:#FFCD00;" d="M91.009,232.32v11.221c0,3.875-3.139,7.014-7.014,7.014H72.774c-3.865,0-7.004-3.139-7.004-7.014
		V232.32c0-3.865,3.139-7.004,7.004-7.004h11.221C87.87,225.316,91.009,228.456,91.009,232.32z"/>
	<path style="fill:#FFCD00;" d="M147.683,232.32v11.221c0,3.875-3.129,7.014-7.004,7.014h-11.221c-3.865,0-7.004-3.139-7.004-7.014
		V232.32c0-3.865,3.139-7.004,7.004-7.004h11.221C144.554,225.316,147.683,228.456,147.683,232.32z"/>
	<path style="fill:#FFCD00;" d="M204.367,232.32v11.221c0,3.875-3.139,7.014-7.004,7.014h-11.221c-3.875,0-7.014-3.139-7.014-7.014
		V232.32c0-3.865,3.139-7.004,7.014-7.004h11.221C201.228,225.316,204.367,228.456,204.367,232.32z"/>
	<path style="fill:#FFCD00;" d="M261.051,232.32v11.221c0,3.875-3.139,7.014-7.004,7.014h-11.221c-3.875,0-7.014-3.139-7.014-7.014
		V232.32c0-3.865,3.139-7.004,7.014-7.004h11.221C257.912,225.316,261.051,228.456,261.051,232.32z"/>
	<path style="fill:#FFCD00;" d="M91.009,282.311v11.221c0,3.865-3.139,7.004-7.014,7.004H72.774c-3.865,0-7.004-3.139-7.004-7.004
		v-11.221c0-3.875,3.139-7.004,7.004-7.004h11.221C87.87,275.307,91.009,278.436,91.009,282.311z"/>
	<path style="fill:#FFCD00;" d="M147.683,282.311v11.221c0,3.865-3.129,7.004-7.004,7.004h-11.221c-3.865,0-7.004-3.139-7.004-7.004
		v-11.221c0-3.875,3.139-7.004,7.004-7.004h11.221C144.554,275.307,147.683,278.436,147.683,282.311z"/>
	<path style="fill:#FFCD00;" d="M204.367,282.311v11.221c0,3.865-3.139,7.004-7.004,7.004h-11.221c-3.875,0-7.014-3.139-7.014-7.004
		v-11.221c0-3.875,3.139-7.004,7.014-7.004h11.221C201.228,275.307,204.367,278.436,204.367,282.311z"/>
	<path style="fill:#FFCD00;" d="M261.051,282.311v11.221c0,3.865-3.139,7.004-7.004,7.004h-11.221c-3.875,0-7.014-3.139-7.014-7.004
		v-11.221c0-3.875,3.139-7.004,7.014-7.004h11.221C257.912,275.307,261.051,278.436,261.051,282.311z"/>
</g>
<g>
	<path style="fill:#FFDE55;" d="M91.009,232.32v2.414c0,3.875-3.139,7.014-7.014,7.014H72.774c-3.865,0-7.004-3.139-7.004-7.014
		v-2.414c0-3.865,3.139-7.004,7.004-7.004h11.221C87.87,225.316,91.009,228.456,91.009,232.32z"/>
	<path style="fill:#FFDE55;" d="M147.683,232.32v2.414c0,3.875-3.129,7.014-7.004,7.014h-11.221c-3.865,0-7.004-3.139-7.004-7.014
		v-2.414c0-3.865,3.139-7.004,7.004-7.004h11.221C144.554,225.316,147.683,228.456,147.683,232.32z"/>
	<path style="fill:#FFDE55;" d="M204.367,232.32v2.414c0,3.875-3.139,7.014-7.004,7.014h-11.221c-3.875,0-7.014-3.139-7.014-7.014
		v-2.414c0-3.865,3.139-7.004,7.014-7.004h11.221C201.228,225.316,204.367,228.456,204.367,232.32z"/>
	<path style="fill:#FFDE55;" d="M261.051,232.32v2.414c0,3.875-3.139,7.014-7.004,7.014h-11.221c-3.875,0-7.014-3.139-7.014-7.014
		v-2.414c0-3.865,3.139-7.004,7.014-7.004h11.221C257.912,225.316,261.051,228.456,261.051,232.32z"/>
	<path style="fill:#FFDE55;" d="M91.009,282.311v2.414c0,3.865-3.139,7.004-7.014,7.004H72.774c-3.865,0-7.004-3.139-7.004-7.004
		v-2.414c0-3.875,3.139-7.004,7.004-7.004h11.221C87.87,275.307,91.009,278.436,91.009,282.311z"/>
	<path style="fill:#FFDE55;" d="M147.683,282.311v2.414c0,3.865-3.129,7.004-7.004,7.004h-11.221c-3.865,0-7.004-3.139-7.004-7.004
		v-2.414c0-3.875,3.139-7.004,7.004-7.004h11.221C144.554,275.307,147.683,278.436,147.683,282.311z"/>
	<path style="fill:#FFDE55;" d="M204.367,282.311v2.414c0,3.865-3.139,7.004-7.004,7.004h-11.221c-3.875,0-7.014-3.139-7.014-7.004
		v-2.414c0-3.875,3.139-7.004,7.014-7.004h11.221C201.228,275.307,204.367,278.436,204.367,282.311z"/>
	<path style="fill:#FFDE55;" d="M261.051,282.311v2.414c0,3.865-3.139,7.004-7.004,7.004h-11.221c-3.875,0-7.014-3.139-7.014-7.004
		v-2.414c0-3.875,3.139-7.004,7.014-7.004h11.221C257.912,275.307,261.051,278.436,261.051,282.311z"/>
</g>
<g>
	<path style="fill:#1D1D1F;" d="M434.834,78.737H313.027c-4.292,0-7.771-3.479-7.771-7.771c0-4.291,3.478-7.771,7.771-7.771h121.807
		c4.292,0,7.771,3.479,7.771,7.771C442.604,75.258,439.126,78.737,434.834,78.737z"/>
	<path style="fill:#1D1D1F;" d="M450.973,111.882H296.889c-4.292,0-7.771-3.479-7.771-7.771c0-4.291,3.478-7.771,7.771-7.771
		h154.084c4.292,0,7.771,3.479,7.771,7.771C458.743,108.403,455.264,111.882,450.973,111.882z"/>
	<path style="fill:#1D1D1F;" d="M417.747,45.592h-87.633c-4.292,0-7.771-3.479-7.771-7.771s3.478-7.771,7.771-7.771h87.633
		c4.292,0,7.771,3.479,7.771,7.771S422.039,45.592,417.747,45.592z"/>
	<path style="fill:#1D1D1F;" d="M417.747,178.174h-87.633c-4.292,0-7.771-3.479-7.771-7.771s3.478-7.771,7.771-7.771h87.633
		c4.292,0,7.771,3.479,7.771,7.771S422.039,178.174,417.747,178.174z"/>
	<path style="fill:#1D1D1F;" d="M434.834,145.029H313.027c-4.292,0-7.771-3.479-7.771-7.771c0-4.291,3.478-7.771,7.771-7.771
		h121.807c4.292,0,7.771,3.479,7.771,7.771C442.604,141.549,439.126,145.029,434.834,145.029z"/>
	<path style="fill:#1D1D1F;" d="M403.371,305.422h-58.88c-6.797,0-12.306-5.51-12.306-12.306v-58.88
		c0-6.797,5.51-12.306,12.306-12.306h58.88c6.797,0,12.306,5.51,12.306,12.306v58.88
		C415.677,299.913,410.168,305.422,403.371,305.422z"/>
</g>
<g>
	<circle style="fill:#C70024;" cx="189.24" cy="38.656" r="11.511"/>
	<circle style="fill:#C70024;" cx="137.581" cy="38.656" r="11.511"/>
</g>
<path style="fill:#78B9EB;" d="M265.796,93.693v85.777c0,7.615-6.227,13.842-13.832,13.842H74.857
	c-7.605,0-13.832-6.227-13.832-13.842V93.693c0-7.615,6.227-13.842,13.832-13.842h177.108
	C259.569,79.851,265.796,86.078,265.796,93.693z"/>
<path style="fill:#B3D8F4;" d="M265.796,93.693v85.777c0,7.615-6.227,13.842-13.832,13.842H103.867
	c-7.605,0-13.832-6.227-13.832-13.842V93.693c0-7.615,6.227-13.842,13.832-13.842h148.097
	C259.569,79.851,265.796,86.078,265.796,93.693z"/>
<path style="fill:#FFB655;" d="M470.391,376.874v68.972c0,9.646-7.885,17.531-17.53,17.531H372.15
	c-9.646,0-17.53-7.885-17.53-17.531V429.87c0-1.544-0.694-3.015-1.886-3.989l-40.77-33.559c-8.32-6.848-9.781-19.468-2.818-27.705
	c6.797-8.03,18.908-9.138,27.052-2.435l10.019,8.019c0.984,0.787,2.103,1.14,3.202,1.14c2.673,0,5.201-2.103,5.201-5.18
	c0-0.404,0.01-0.798,0.041-1.191c-0.031-0.404-0.041-0.798-0.041-1.202v-90.439c0-10.091,7.75-18.453,17.593-19.427
	c1.15-0.114,2.331-0.124,3.523-0.031c10.205,0.818,17.924,9.615,17.924,19.851v85.622h59.202
	C462.506,359.344,470.391,367.228,470.391,376.874z"/>
<path style="fill:#2D2D30;" d="M466.392,474.525v26.234c0,6.206-5.035,11.241-11.241,11.241h-87.715
	c-6.206,0-11.241-5.035-11.241-11.241v-26.234c0-7.315,5.989-13.303,13.303-13.303h83.591
	C460.403,461.222,466.392,467.21,466.392,474.525z"/>
<path style="fill:#3E3D42;" d="M466.392,474.525v15.717h-80.307c-6.206,0-11.241-5.035-11.241-11.241v-17.779h78.245
	C460.403,461.222,466.392,467.21,466.392,474.525z"/>
<path style="fill:#FFC477;" d="M470.391,376.874v63.802h-83.674c-8.009,0-14.505-6.496-14.505-14.505V253.902
	c1.15-0.114,2.331-0.124,3.523-0.031c10.205,0.818,17.924,9.615,17.924,19.851v85.622h59.202
	C462.506,359.344,470.391,367.228,470.391,376.874z"/>
<g>
</g>
<g>
</g>
<g>
</g>
<g>
</g>
<g>
</g>
<g>
</g>
<g>
</g>
<g>
</g>
<g>
</g>
<g>
</g>
<g>
</g>
<g>
</g>
<g>
</g>
<g>
</g>
<g>
</g>
</svg>
