<?xml version="1.0" encoding="iso-8859-1"?>
<!-- Generator: Adobe Illustrator 19.0.0, SVG Export Plug-In . SVG Version: 6.00 Build 0)  -->
<svg version="1.1" id="Capa_1" xmlns="http://www.w3.org/2000/svg" xmlns:xlink="http://www.w3.org/1999/xlink" x="0px" y="0px"
	 viewBox="0 0 512 512" style="enable-background:new 0 0 512 512;" xml:space="preserve">
<path style="fill:#787680;" d="M436.972,364.214c-0.052,0-1.657-1.564-1.76-1.46c-31.191,17.812-52.875,32.009-69.579,40.221
	c-21.684,10.646-34.96,11.205-49.717-3.552L175.92,259.395c-15.212-15.212-15.212-39.869,0-55.081l3.303-3.303l47.511-47.635
	l171.498,170.452C430.614,357.545,436.796,363.903,436.972,364.214z"/>
<path style="fill:#898890;" d="M436.972,364.214c-0.052,0-1.657-1.564-1.76-1.46c-31.191,17.812-52.875,32.009-69.579,40.221
	l-172.098-172.13c-8.347-8.347-13.131-18.94-14.311-29.834l47.511-47.635l171.498,170.452
	C430.614,357.545,436.796,363.903,436.972,364.214z"/>
<g>
	
		<rect x="200.275" y="325.036" transform="matrix(-0.7071 -0.7071 0.7071 -0.7071 111.6202 796.5359)" style="fill:#57565C;" width="41.005" height="100.23"/>
	<rect x="37.57" y="401.526" style="fill:#57565C;" width="118.623" height="40.334"/>
</g>
<path style="fill:#1D1D1F;" d="M196.32,448.052c-3.935,3.935-8.523,6.804-13.41,8.616c-13.234,4.877-28.685,2.009-39.31-8.616
	c-14.56-14.56-14.56-38.16,0-52.72c10.625-10.625,26.075-13.493,39.31-8.605c4.888,1.802,9.475,4.67,13.41,8.605
	C210.88,409.892,210.88,433.492,196.32,448.052z"/>
<g>
	<path style="fill:#2D2D30;" d="M196.32,448.052c-3.935,3.935-8.523,6.804-13.41,8.616c-4.898-1.812-9.486-4.681-13.421-8.616
		c-14.56-14.56-14.56-38.16,0-52.72c3.935-3.935,8.523-6.804,13.421-8.605c4.888,1.802,9.475,4.67,13.41,8.605
		C210.88,409.892,210.88,433.492,196.32,448.052z"/>
	<path style="fill:#2D2D30;" d="M54.864,353.216v122.019c0,18.516-15.005,33.531-33.531,33.531h-9.32
		C5.375,508.766,0,503.381,0,496.744V331.708c0-6.638,5.375-12.023,12.012-12.023h9.32c3.2,0,6.286,0.445,9.216,1.284
		C44.591,324.966,54.864,337.89,54.864,353.216z"/>
</g>
<path style="fill:#3E3D42;" d="M54.864,353.216V471.87c-0.984,0.093-1.978,0.135-2.982,0.135h-9.32
	c-6.638,0-12.012-5.385-12.012-12.023V320.969C44.591,324.966,54.864,337.89,54.864,353.216z"/>
<path style="fill:#B3D8F4;" d="M306.314,90.396c-1.988,0-3.975-0.758-5.493-2.275c-4.78-4.781-11.137-7.415-17.898-7.415
	c-6.762,0-13.119,2.633-17.901,7.415c-3.034,3.033-7.951,3.033-10.984,0c-3.033-3.033-3.033-7.951,0-10.983
	c7.716-7.716,17.973-11.965,28.886-11.965c10.911,0,21.168,4.249,28.884,11.965c3.033,3.033,3.033,7.951-0.001,10.984
	C310.29,89.638,308.302,90.396,306.314,90.396z"/>
<path style="fill:#78B9EB;" d="M236.637,67.502c-1.987,0-3.975-0.758-5.492-2.274c-3.034-3.033-3.034-7.951-0.001-10.984
	c13.829-13.83,32.218-21.446,51.78-21.446s37.949,7.616,51.778,21.446c3.033,3.033,3.033,7.951-0.001,10.984
	c-3.033,3.033-7.951,3.032-10.983-0.001c-10.895-10.895-25.381-16.896-40.794-16.896c-15.412,0-29.901,6.001-40.796,16.897
	C240.613,66.743,238.624,67.502,236.637,67.502z"/>
<path style="fill:#3D9AE2;" d="M350.113,46.598c-1.988,0-3.975-0.758-5.493-2.275c-16.478-16.481-38.389-25.556-61.696-25.556
	c-23.308,0-45.219,9.076-61.698,25.556c-3.034,3.033-7.952,3.033-10.983,0c-3.034-3.033-3.034-7.951-0.001-10.984
	c19.412-19.415,45.226-30.106,72.683-30.106c27.457,0,53.268,10.692,72.681,30.106c3.033,3.033,3.033,7.951-0.001,10.984
	C354.089,45.839,352.1,46.598,350.113,46.598z"/>
<path style="fill:#1D1D1F;" d="M439.83,367.155l-39.9-41.546c-6.224-6.483-15.15-9.62-24.066-8.45l-61.802,8.088
	c-8.709,1.139-17.449-1.833-23.662-8.036l-82.751-82.751c-17.118-17.118-17.118-44.881,0-61.999l43.524-43.524
	c17.118-17.118,44.881-17.118,61.999,0c0,0,189.496,189.506,189.889,189.941c3.904,4.266,6.4,8.481,7.736,12.561
	C521.349,363.613,459.547,387.689,439.83,367.155z"/>
<path style="fill:#2D2D30;" d="M510.797,331.438c-17.387,12.209-44.798,16.155-56.748,3.707l-39.9-41.546
	c-6.224-6.483-15.15-9.62-24.066-8.45l-61.802,8.088c-8.709,1.139-17.449-1.833-23.662-8.036l-82.751-82.751
	c-8.647-8.647-12.934-20.017-12.841-31.367l42.147-42.147c17.118-17.118,44.881-17.118,61.999,0
	c0,0,189.496,189.506,189.889,189.941C506.965,323.144,509.461,327.358,510.797,331.438z"/>
<g>
	<circle style="fill:#FF0C38;" cx="284.601" cy="158.989" r="13.308"/>
	<circle style="fill:#FF0C38;" cx="320.514" cy="194.902" r="13.308"/>
	<circle style="fill:#FF0C38;" cx="284.601" cy="158.989" r="13.308"/>
	<circle style="fill:#FF0C38;" cx="320.514" cy="194.902" r="13.308"/>
</g>
<g>
	<path style="fill:#C70024;" d="M284.606,165.051c-3.342,0-6.06-2.718-6.06-6.059c0-3.341,2.718-6.059,6.06-6.059
		c3.342,0,6.06,2.718,6.06,6.059C290.666,162.333,287.948,165.051,284.606,165.051z"/>
	<path style="fill:#C70024;" d="M320.515,200.96c-3.342,0-6.06-2.718-6.06-6.059c0-3.341,2.718-6.059,6.06-6.059
		c3.342,0,6.06,2.718,6.06,6.059C326.575,198.241,323.856,200.96,320.515,200.96z"/>
</g>
<g>
</g>
<g>
</g>
<g>
</g>
<g>
</g>
<g>
</g>
<g>
</g>
<g>
</g>
<g>
</g>
<g>
</g>
<g>
</g>
<g>
</g>
<g>
</g>
<g>
</g>
<g>
</g>
<g>
</g>
</svg>
