<?xml version="1.0" encoding="iso-8859-1"?>
<!-- Generator: Adobe Illustrator 19.0.0, SVG Export Plug-In . SVG Version: 6.00 Build 0)  -->
<svg version="1.1" id="Capa_1" xmlns="http://www.w3.org/2000/svg" xmlns:xlink="http://www.w3.org/1999/xlink" x="0px" y="0px"
	 viewBox="0 0 512 512" style="enable-background:new 0 0 512 512;" xml:space="preserve">
<path style="fill:#2D2D30;" d="M391.603,40.298v431.404c0,22.162-18.136,40.298-40.298,40.298h-190.61
	c-22.162,0-40.298-18.136-40.298-40.298V40.298C120.397,18.136,138.533,0,160.695,0h190.61C373.467,0,391.603,18.136,391.603,40.298
	z"/>
<path style="fill:#57565C;" d="M391.603,40.298v431.404c0,22.162-18.136,40.298-40.298,40.298h-160.25
	c-22.162,0-40.298-18.136-40.298-40.298V40.298C150.758,18.136,168.893,0,191.055,0h160.25C373.467,0,391.603,18.136,391.603,40.298
	z"/>
<rect x="120.397" y="79.002" style="fill:#D8D7DA;" width="271.206" height="353.997"/>
<path style="fill:#4E901E;" d="M285.143,201.418c-4.573,0-8.281-3.708-8.281-8.281v-26.349c0-9.303-7.569-16.871-16.871-16.871
	h-7.984c-9.303,0-16.871,7.568-16.871,16.871v26.349c0,4.573-3.708,8.281-8.281,8.281s-8.281-3.708-8.281-8.281v-26.349
	c0-18.435,14.998-33.433,33.433-33.433h7.984c18.436,0,33.433,14.998,33.433,33.433v26.349
	C293.424,197.71,289.717,201.418,285.143,201.418z"/>
<g>
	<path style="fill:#1D1D1F;" d="M254.965,45.867H212.18c-4.573,0-8.281-3.708-8.281-8.281s3.708-8.281,8.281-8.281h42.785
		c4.573,0,8.281,3.708,8.281,8.281S259.538,45.867,254.965,45.867z"/>
	<circle style="fill:#1D1D1F;" cx="291.195" cy="37.586" r="8.626"/>
	<path style="fill:#1D1D1F;" d="M287.572,480.111h-63.143c-4.288,0-7.764-3.476-7.764-7.764s3.476-7.764,7.764-7.764h63.143
		c4.289,0,7.764,3.476,7.764,7.764S291.86,480.111,287.572,480.111z"/>
</g>
<path style="fill:#5EAC24;" d="M343.583,361.584c0,2.546-2.495,4.637-5.548,4.637H173.965c-3.054,0-5.548-2.091-5.548-4.637
	l12.463-175.642c0-1.335,2.143-2.433,4.751-2.433h140.737c2.609,0,4.751,1.097,4.751,2.433L343.583,361.584z"/>
<path style="fill:#6DC82A;" d="M343.583,361.584c0,2.546-2.495,4.637-5.548,4.637H204.326c-3.043,0-5.538-2.091-5.538-4.637
	l12.453-175.642c0-1.335,2.143-2.433,4.762-2.433h110.366c2.609,0,4.751,1.097,4.751,2.433L343.583,361.584z"/>
<g>
	<path style="fill:#4E901E;" d="M228.41,307.048c-1.986,0-3.974-0.758-5.489-2.274c-3.032-3.032-3.032-7.948,0-10.979l53.582-53.583
		c3.033-3.032,7.948-3.032,10.98,0c3.032,3.032,3.032,7.948,0,10.979L233.9,304.774C232.384,306.29,230.397,307.048,228.41,307.048z
		"/>
	<circle style="fill:#4E901E;" cx="231.467" cy="249.52" r="13.608"/>
	<circle style="fill:#4E901E;" cx="280.533" cy="295.656" r="13.608"/>
</g>
<rect x="120.397" y="79.002" style="fill:#ACABB1;" width="30.361" height="353.997"/>
<g>
</g>
<g>
</g>
<g>
</g>
<g>
</g>
<g>
</g>
<g>
</g>
<g>
</g>
<g>
</g>
<g>
</g>
<g>
</g>
<g>
</g>
<g>
</g>
<g>
</g>
<g>
</g>
<g>
</g>
</svg>
