<?xml version="1.0" encoding="iso-8859-1"?>
<!-- Generator: Adobe Illustrator 19.0.0, SVG Export Plug-In . SVG Version: 6.00 Build 0)  -->
<svg version="1.1" id="Capa_1" xmlns="http://www.w3.org/2000/svg" xmlns:xlink="http://www.w3.org/1999/xlink" x="0px" y="0px"
	 viewBox="0 0 512 512" style="enable-background:new 0 0 512 512;" xml:space="preserve">
<path style="fill:#165C92;" d="M251.241,511.98H109.141l29.199-106.425l5.834-21.265l23.274-91.045
	c9.583,8.045,19.907,14.699,30.964,19.949c0.629,2.512-3.864-15.436,17.797,71.096L251.241,511.98z"/>
<path style="fill:#1E81CE;" d="M251.241,511.98h-116.95c0.041-0.149,34.631-126.189,35.043-127.69l19.449-76.124
	c3.172,1.815,6.384,3.488,9.628,5.028C232.077,447.683,228.981,428.285,251.241,511.98z"/>
<path style="fill:#165C92;" d="M303.786,497.711c0,3.927-1.611,7.496-4.192,10.087c-2.591,2.591-6.17,4.202-10.097,4.202H72.772
	c-7.863,0-14.289-6.435-14.289-14.289c0-19.327,7.904-36.91,20.642-49.648c6.364-6.364,13.942-11.525,22.335-15.094
	c8.404-3.58,17.634-5.558,27.313-5.558h104.722c35.676,0,65.354,26.935,69.73,61.469
	C303.592,491.776,303.786,494.723,303.786,497.711z"/>
<path style="fill:#1A6FB0;" d="M303.225,488.879H102.012c-7.863,0-14.289-6.425-14.289-14.289c0-15.553,5.11-29.954,13.738-41.622
	c8.404-3.58,17.634-5.558,27.313-5.558h104.722C269.171,427.411,298.85,454.346,303.225,488.879z"/>
<g>
	<path style="fill:#5AAAE7;" d="M185.132,142.036c-1.52-1.04-3.019-2.04-4.487-2.998
		C182.113,139.976,183.603,140.976,185.132,142.036z"/>
	<path style="fill:#5AAAE7;" d="M226.703,175.254c-2.142-1.928-4.284-3.814-6.395-5.65
		C222.419,171.43,224.561,173.327,226.703,175.254z"/>
</g>
<path style="fill:#B3D8F4;" d="M356.982,133.951c-4.224,0-7.649-3.425-7.649-7.649c0-20.626-16.781-37.406-37.407-37.406
	c-4.224,0-7.649-3.425-7.649-7.649s3.425-7.649,7.649-7.649c29.062,0,52.706,23.643,52.706,52.705
	C364.631,130.526,361.206,133.951,356.982,133.951z"/>
<path style="fill:#3D9AE2;" d="M430.578,133.951c-4.224,0-7.649-3.425-7.649-7.649c0-61.207-49.796-111.003-111.003-111.003
	c-4.224,0-7.649-3.425-7.649-7.649S307.701,0,311.926,0c69.643,0,126.302,56.659,126.302,126.302
	C438.227,130.526,434.802,133.951,430.578,133.951z"/>
<path style="fill:#78B9EB;" d="M395.165,133.951c-4.224,0-7.649-3.425-7.649-7.649c0-41.681-33.91-75.59-75.59-75.59
	c-4.224,0-7.649-3.425-7.649-7.649s3.425-7.649,7.649-7.649c50.116,0,90.888,40.773,90.888,90.888
	C402.814,130.526,399.39,133.951,395.165,133.951z"/>
<path style="fill:#3D9AE2;" d="M509.203,153.852c-2.269-3.563-6.996-4.613-10.56-2.344l-83.591,53.23v-12.53
	c0-4.224-3.425-7.649-7.649-7.649s-7.649,3.425-7.649,7.649v13.063l-11.094-6.894c-3.59-2.232-8.305-1.128-10.534,2.46
	c-2.23,3.588-1.128,8.305,2.46,10.534l12.174,7.566l-12.246,7.798c-3.563,2.269-4.613,6.997-2.344,10.56
	c1.458,2.291,3.932,3.542,6.459,3.542c1.405,0,2.827-0.388,4.101-1.198l11.024-7.02v13.233c0,4.224,3.425,7.649,7.649,7.649
	s7.649-3.425,7.649-7.649v-13.063l11.094,6.894c1.257,0.781,2.652,1.153,4.03,1.153c2.557,0,5.056-1.282,6.504-3.612
	c2.23-3.588,1.128-8.305-2.46-10.534l-12.732-7.911l85.372-54.364C510.423,162.142,511.472,157.414,509.203,153.852z"/>
<g>
	<circle style="fill:#78B9EB;" cx="64.548" cy="306.078" r="14.35"/>
	<circle style="fill:#78B9EB;" cx="15.949" cy="63.003" r="14.35"/>
</g>
<path style="fill:#3D9AE2;" d="M250.242,197.651c-32.483-32.616-64.528-57.562-85.599-67.884
	c-10.209-4.997-17.848-6.568-21.713-3.927l-0.357,0.265c-0.425,0.346-0.689,0.617-1.061,1.132
	c-39.082,42.407-32.198,114.696,16.226,163.325c39.714,39.888,95.298,51.708,137.287,32.993c9.199-4.09,17.746-9.658,25.334-16.706
	c0.255-0.184,0.5-0.377,0.714-0.602c0.153-0.143,0.286-0.296,0.408-0.459l0.265-0.367
	C329.824,293.54,298.462,246.085,250.242,197.651z"/>
<path style="fill:#5AAAE7;" d="M250.242,197.651c-32.483-32.616-64.528-57.562-85.599-67.884
	c-29.23,43.1-19.847,107.873,24.712,152.616c30.342,30.474,69.944,44.569,105.67,41.173c9.199-4.09,17.746-9.658,25.334-16.706
	c0.255-0.184,0.5-0.377,0.714-0.602c0.153-0.143,0.286-0.296,0.408-0.459l0.265-0.367
	C329.824,293.54,298.462,246.085,250.242,197.651z"/>
<path style="fill:#78B9EB;" d="M321.073,306.248c-10.301,10.352-58.715-21.499-108.128-71.137
	c-49.424-49.628-81.132-98.246-70.831-108.597c2.876-2.886,8.71-2.489,16.716,0.673c20.673,8.139,55.778,34.686,91.412,70.464
	c33.228,33.371,58.45,66.282,68.271,87.414C323.317,295.366,324.449,302.862,321.073,306.248z"/>
<path style="fill:#96C8EF;" d="M318.513,285.065c-20.673-8.139-55.778-34.686-91.412-70.464
	c-33.218-33.381-58.439-66.282-68.271-87.414c20.673,8.139,55.778,34.686,91.412,70.464
	C283.47,231.021,308.692,263.933,318.513,285.065z"/>
<path style="fill:#B3D8F4;" d="M310.436,137.947l-50.28,69.893l-14.023,19.49l-16.92,23.519
	c-5.375-4.997-10.811-10.26-16.267-15.737c-5.426-5.446-10.627-10.882-15.594-16.247l24.834-17.766l18.256-13.065L310.436,137.947z"
	/>
<path style="fill:#78B9EB;" d="M330.303,148.543c-1.367,1.377-2.876,2.56-4.487,3.539c-3.631,2.203-7.812,3.386-12.167,3.386
	c-6.293,0-12.208-2.458-16.665-6.925c-9.159-9.199-9.159-24.171,0-33.371c4.457-4.467,10.372-6.925,16.665-6.925
	c5.548,0,10.811,1.917,15.023,5.426c0.561,0.479,1.112,0.969,1.632,1.499C339.472,124.372,339.472,139.344,330.303,148.543z"/>
<g>
	<path style="fill:#96C8EF;" d="M330.303,148.543c-1.367,1.377-2.876,2.56-4.487,3.539c-0.561-0.479-1.112-0.969-1.632-1.499
		c-9.159-9.199-9.159-24.171,0-33.371c1.367-1.377,2.876-2.56,4.487-3.539c0.561,0.479,1.112,0.969,1.632,1.499
		C339.472,124.372,339.472,139.344,330.303,148.543z"/>
	<path style="fill:#96C8EF;" d="M227.101,214.601c-3.335-3.355-6.599-6.701-9.76-10.036l-19.99,14.299
		c4.967,5.365,10.168,10.801,15.594,16.247c5.456,5.477,10.892,10.739,16.267,15.737l14.513-20.173
		C238.228,225.565,232.669,220.19,227.101,214.601z"/>
</g>
<g>
</g>
<g>
</g>
<g>
</g>
<g>
</g>
<g>
</g>
<g>
</g>
<g>
</g>
<g>
</g>
<g>
</g>
<g>
</g>
<g>
</g>
<g>
</g>
<g>
</g>
<g>
</g>
<g>
</g>
</svg>
