<?xml version="1.0" encoding="iso-8859-1"?>
<!-- Generator: Adobe Illustrator 19.0.0, SVG Export Plug-In . SVG Version: 6.00 Build 0)  -->
<svg version="1.1" id="Capa_1" xmlns="http://www.w3.org/2000/svg" xmlns:xlink="http://www.w3.org/1999/xlink" x="0px" y="0px"
	 viewBox="0 0 512 512" style="enable-background:new 0 0 512 512;" xml:space="preserve">
<path style="fill:#3E3D42;" d="M295.001,31.497v449.005c0,17.391-14.106,31.497-31.508,31.497h-45.562
	c-17.402,0-31.508-14.106-31.508-31.497V31.497C186.423,14.106,200.529,0,217.931,0h45.562C280.895,0,295.001,14.106,295.001,31.497
	z"/>
<path style="fill:#57565C;" d="M295.001,31.497v449.005c0,17.391-14.106,31.497-31.508,31.497h-11.359
	c-17.402,0-31.508-14.106-31.508-31.497V31.497C220.626,14.106,234.732,0,252.134,0h11.359C280.895,0,295.001,14.106,295.001,31.497
	z"/>
<g>
	<circle style="fill:#1D1D1F;" cx="240.712" cy="41.8" r="10.364"/>
	<circle style="fill:#1D1D1F;" cx="240.712" cy="80.148" r="10.364"/>
	<path style="fill:#1D1D1F;" d="M386.505,229.571c-4.481,0-8.578,1.641-11.746,4.343v-57.719c0-29.642-24.253-53.895-53.895-53.895
		H161.253c-29.642,0-53.895,24.253-53.895,53.895v159.611c0,29.642,24.253,53.895,53.895,53.895h159.611
		c29.642,0,53.895-24.253,53.895-53.895v-63.938c3.168,2.702,7.265,4.343,11.746,4.343c10.001,0,18.138-8.137,18.138-18.138v-10.364
		C404.642,237.708,396.505,229.571,386.505,229.571z"/>
</g>
<path style="fill:#1E81CE;" d="M349.821,192.269v127.461c0,23.952-19.589,43.541-43.541,43.541H175.834
	c-23.952,0-43.541-19.589-43.541-43.541V192.269c0-23.952,19.589-43.541,43.541-43.541H306.28
	C330.233,148.729,349.821,168.317,349.821,192.269z"/>
<path style="fill:#78B9EB;" d="M349.821,192.269v127.461c0,23.952-19.589,43.541-43.541,43.541H202.782
	c-23.952,0-43.541-19.589-43.541-43.541V192.269c0-23.952,19.589-43.541,43.541-43.541H306.28
	C330.233,148.729,349.821,168.317,349.821,192.269z"/>
<path style="fill:#B6E892;" d="M349.541,238.215h-27.777c-4.394-17.754-10.209-41.603-10.789-44.867
	c-0.187-1.762-0.974-3.431-2.239-4.695c-1.451-1.451-3.431-2.28-5.493-2.28c-1.969,0-6.685,0.736-7.887,7.597
	c-0.135,0.777-0.332,1.917-0.57,3.379c-0.477,2.85-1.14,6.934-1.928,11.836c-1.565,9.774-3.628,22.812-5.69,35.892
	c-0.995,6.333-1.876,11.919-2.643,16.852c-2.073-7.742-4.166-15.567-5.897-22.086c-0.912-3.41-3.99-5.773-7.514-5.773h-51.801
	l-15.298-37.001c-1.244-3.026-4.239-4.944-7.535-4.799c-3.275,0.155-6.105,2.342-7.068,5.472l-16.842,54.527l-3.462-8.26
	c-1.213-2.881-4.032-4.757-7.162-4.757h-29.373c-0.093,0-0.187,0-0.28,0.01v15.526c0.093,0.01,0.187,0.01,0.28,0.01h24.201
	l9.743,23.216c1.275,3.016,4.28,4.913,7.556,4.757c3.265-0.166,6.084-2.353,7.048-5.472l16.78-54.34l9.027,21.848
	c1.202,2.912,4.032,4.809,7.183,4.809h51.034c1.461,5.503,3.793,14.22,6.136,22.936c1.928,7.182,3.866,14.365,5.338,19.754
	c0.746,2.715,1.368,4.975,1.814,6.55c0.238,0.84,0.435,1.503,0.57,1.949c1.658,5.514,5.918,6.156,7.804,6.156
	c0.425,0,0.736-0.031,0.86-0.052c3.628-0.477,6.405-3.42,6.737-7.006c0.01-0.052,0.01-0.114,0.021-0.187
	c-0.01,0.041-0.01,0.083-0.021,0.135c0.021-0.218,0.031-0.435,0.031-0.663c0,0.073,0.01,0.238-0.01,0.497
	c0.611-4.477,5.856-38.017,10.261-65.793c1.026,4.187,2.177,8.82,3.451,13.961c0.86,3.472,3.97,5.908,7.545,5.908h33.86
	c0.093,0,0.187,0,0.28-0.01v-15.526C349.729,238.215,349.635,238.215,349.541,238.215z"/>
<path style="fill:#C70024;" d="M274.11,256.539c-3.752,9.338-15.712,20.397-24.947,27.942c-2.042,1.669-3.949,3.161-5.607,4.426
	c-3.545,2.715-8.478,2.653-11.96-0.145c-9.411-7.556-27.196-22.657-31.114-31.829c-6.737-15.775-2.259-32.803,10.002-38.037
	c6.167-2.633,13.287-1.783,19.63,1.731c1.928,1.057,3.783,2.363,5.514,3.887c1.068,0.943,2.643,0.943,3.69,0
	c7.162-6.457,16.023-8.986,23.973-5.794C275.665,223.694,280.505,240.619,274.11,256.539z"/>
<path style="fill:#FF0C38;" d="M274.11,256.539c-3.752,9.338-15.712,20.397-24.947,27.942c-9.66-8.095-22.605-19.889-25.88-27.549
	c-6.115-14.334-2.985-29.694,6.83-36.306c1.928,1.057,3.783,2.363,5.514,3.887c1.068,0.943,2.643,0.943,3.69,0
	c7.162-6.457,16.023-8.986,23.973-5.794C275.665,223.694,280.505,240.619,274.11,256.539z"/>
<g>
</g>
<g>
</g>
<g>
</g>
<g>
</g>
<g>
</g>
<g>
</g>
<g>
</g>
<g>
</g>
<g>
</g>
<g>
</g>
<g>
</g>
<g>
</g>
<g>
</g>
<g>
</g>
<g>
</g>
</svg>
