<?xml version="1.0" encoding="iso-8859-1"?>
<!-- Generator: Adobe Illustrator 19.0.0, SVG Export Plug-In . SVG Version: 6.00 Build 0)  -->
<svg version="1.1" id="Capa_1" xmlns="http://www.w3.org/2000/svg" xmlns:xlink="http://www.w3.org/1999/xlink" x="0px" y="0px"
	 viewBox="0 0 512 512" style="enable-background:new 0 0 512 512;" xml:space="preserve">
<g>
	<circle style="fill:#6DC82A;" cx="94.108" cy="93.33" r="93.33"/>
	<circle style="fill:#6DC82A;" cx="94.108" cy="417.778" r="93.33"/>
	<circle style="fill:#6DC82A;" cx="417.892" cy="93.33" r="93.33"/>
	<circle style="fill:#6DC82A;" cx="417.892" cy="418.67" r="93.33"/>
</g>
<g>
	<path style="fill:#4E901E;" d="M137.006,136.238c-6.268,6.268-13.574,10.876-21.358,13.824
		c-21.638,8.209-47.023,3.601-64.448-13.824c-23.693-23.693-23.693-62.113,0-85.806c17.425-17.435,42.809-22.043,64.448-13.834
		c7.784,2.947,15.09,7.566,21.358,13.834C160.709,74.125,160.709,112.545,137.006,136.238z"/>
	<path style="fill:#4E901E;" d="M137.006,460.675c-6.268,6.268-13.574,10.887-21.358,13.834
		c-21.638,8.209-47.023,3.601-64.448-13.834c-23.693-23.693-23.693-62.113,0-85.806c17.425-17.425,42.809-22.033,64.448-13.824
		c7.784,2.947,15.09,7.555,21.358,13.824C160.709,398.563,160.709,436.982,137.006,460.675z"/>
	<path style="fill:#4E901E;" d="M460.8,136.238c-6.268,6.268-13.574,10.876-21.358,13.824c-21.638,8.209-47.023,3.601-64.448-13.824
		c-23.703-23.693-23.703-62.113,0-85.806c17.425-17.435,42.809-22.043,64.448-13.834c7.784,2.947,15.09,7.566,21.358,13.834
		C484.493,74.125,484.493,112.545,460.8,136.238z"/>
	<path style="fill:#4E901E;" d="M453.1,468.096c-4.317,3.072-8.904,5.5-13.637,7.306c-25.187,9.589-54.62,1.443-70.986-21.534
		c-19.448-27.294-13.076-65.184,14.218-84.622c17.124-12.194,38.43-14.239,56.726-7.306c10.855,4.099,20.663,11.364,27.896,21.534
		C486.755,410.768,480.394,448.647,453.1,468.096z"/>
</g>
<g>
	<path style="fill:#5EAC24;" d="M137.006,136.238c-6.268,6.268-13.574,10.876-21.358,13.824
		c-7.784-2.947-15.079-7.555-21.348-13.824c-23.693-23.693-23.693-62.113,0-85.806c6.268-6.268,13.564-10.887,21.348-13.834
		c7.784,2.947,15.09,7.566,21.358,13.834C160.709,74.125,160.709,112.545,137.006,136.238z"/>
	<path style="fill:#5EAC24;" d="M137.006,460.675c-6.268,6.268-13.574,10.887-21.358,13.834
		c-7.784-2.947-15.079-7.566-21.348-13.834c-23.693-23.693-23.693-62.113,0-85.806c6.268-6.268,13.564-10.876,21.348-13.824
		c7.784,2.947,15.09,7.555,21.358,13.824C160.709,398.563,160.709,436.982,137.006,460.675z"/>
	<path style="fill:#5EAC24;" d="M460.8,136.238c-6.268,6.268-13.574,10.876-21.358,13.824c-7.784-2.947-15.079-7.555-21.348-13.824
		c-23.703-23.693-23.703-62.113,0-85.806c6.268-6.268,13.564-10.887,21.348-13.834c7.784,2.947,15.09,7.566,21.358,13.834
		C484.493,74.125,484.493,112.545,460.8,136.238z"/>
	<path style="fill:#5EAC24;" d="M453.1,468.096c-4.317,3.072-8.904,5.5-13.637,7.306c-10.855-4.11-20.642-11.374-27.886-21.534
		c-19.448-27.294-13.076-65.184,14.218-84.622c4.317-3.072,8.894-5.5,13.626-7.306c10.855,4.099,20.663,11.364,27.896,21.534
		C486.755,410.768,480.394,448.647,453.1,468.096z"/>
</g>
<path style="fill:#57565C;" d="M435.322,429.946c-0.706,0.83-1.443,1.64-2.231,2.428c-15.899,15.899-41.917,15.899-57.816,0
	L79.107,136.206c-15.899-15.899-15.899-41.906,0-57.806c7.95-7.95,18.431-11.924,28.903-11.924c6.04,0,12.09,1.318,17.643,3.975
	c4.079,1.93,7.908,4.587,11.271,7.95l296.168,296.158C448.201,389.669,448.948,413.933,435.322,429.946z"/>
<path style="fill:#787680;" d="M435.322,429.946c-4.079-1.93-7.908-4.587-11.271-7.95L127.883,125.828
	c-15.11-15.11-15.858-39.364-2.231-55.377c4.079,1.93,7.908,4.587,11.271,7.95l296.168,296.158
	C448.201,389.669,448.948,413.933,435.322,429.946z"/>
<path style="fill:#2D2D30;" d="M445.015,107.304c0,10.482-3.975,20.953-11.924,28.903L136.923,432.375
	c-5.884,5.884-13.159,9.6-20.798,11.115c-12.983,2.605-27.004-1.1-37.018-11.115c-15.899-15.899-15.899-41.917,0-57.816
	L375.275,78.401c15.899-15.899,41.917-15.899,57.816,0c2.626,2.626,4.815,5.521,6.569,8.603
	C443.23,93.262,445.015,100.278,445.015,107.304z"/>
<path style="fill:#3E3D42;" d="M445.015,107.304c0,10.482-3.975,20.953-11.924,28.903L136.923,432.375
	c-5.884,5.884-13.159,9.6-20.798,11.115c-8.894-15.609-6.704-35.939,6.569-49.213L418.862,98.119
	c5.884-5.884,13.159-9.6,20.798-11.115C443.23,93.262,445.015,100.278,445.015,107.304z"/>
<circle style="fill:#1D1D1F;" cx="256.099" cy="255.383" r="86.221"/>
<path style="fill:#2D2D30;" d="M301.497,255.388c0,18.815-11.447,34.953-27.751,41.844c-5.428,2.283-11.385,3.549-17.643,3.549
	c-25.073,0-45.394-20.32-45.394-45.394c0-25.073,20.32-45.393,45.394-45.393c6.258,0,12.215,1.266,17.643,3.549
	C290.05,220.435,301.497,236.572,301.497,255.388z"/>
<path style="fill:#3E3D42;" d="M301.497,255.388c0,18.815-11.447,34.953-27.751,41.844c-16.304-6.891-27.751-23.029-27.751-41.844
	s11.447-34.953,27.751-41.844C290.05,220.435,301.497,236.572,301.497,255.388z"/>
<g>
</g>
<g>
</g>
<g>
</g>
<g>
</g>
<g>
</g>
<g>
</g>
<g>
</g>
<g>
</g>
<g>
</g>
<g>
</g>
<g>
</g>
<g>
</g>
<g>
</g>
<g>
</g>
<g>
</g>
</svg>
