<?xml version="1.0" encoding="iso-8859-1"?>
<!-- Generator: Adobe Illustrator 19.0.0, SVG Export Plug-In . SVG Version: 6.00 Build 0)  -->
<svg version="1.1" id="Capa_1" xmlns="http://www.w3.org/2000/svg" xmlns:xlink="http://www.w3.org/1999/xlink" x="0px" y="0px"
	 viewBox="0 0 512 512" style="enable-background:new 0 0 512 512;" xml:space="preserve">
<path style="fill:#5AAAE7;" d="M387.969,265.89H264.633c-4.293,0-7.773-3.48-7.773-7.773c0-4.293,3.48-7.773,7.773-7.773h123.336
	c4.293,0,7.773,3.48,7.773,7.773C395.742,262.409,392.261,265.89,387.969,265.89z"/>
<path style="fill:#5EAC24;" d="M321.291,367.763H197.955c-4.293,0-7.773-3.48-7.773-7.773c0-4.293,3.48-7.773,7.773-7.773h123.336
	c4.293,0,7.773,3.48,7.773,7.773C329.065,364.283,325.584,367.763,321.291,367.763z"/>
<path style="fill:#FF0C38;" d="M321.291,159.438H197.955c-4.293,0-7.773-3.48-7.773-7.773s3.48-7.773,7.773-7.773h123.336
	c4.293,0,7.773,3.48,7.773,7.773S325.584,159.438,321.291,159.438z"/>
<path style="fill:#78B9EB;" d="M475.033,256c0,18.563-11.618,34.41-27.984,40.67c-4.83,1.845-10.074,2.861-15.547,2.861
	c-24.045,0-43.53-19.485-43.53-43.53s19.485-43.53,43.53-43.53c5.472,0,10.717,1.016,15.547,2.861
	C463.415,221.59,475.033,237.437,475.033,256z"/>
<path style="fill:#6DC82A;" d="M408.349,357.871c0,18.563-11.618,34.41-27.984,40.67c-4.83,1.845-10.064,2.861-15.547,2.861
	c-24.035,0-43.53-19.485-43.53-43.53c0-24.035,19.495-43.53,43.53-43.53c5.483,0,10.717,1.016,15.547,2.861
	C396.731,323.462,408.349,339.309,408.349,357.871z"/>
<path style="fill:#FF3F62;" d="M408.349,149.548c0,18.563-11.618,34.41-27.984,40.67c-4.83,1.845-10.064,2.861-15.547,2.861
	c-24.035,0-43.53-19.485-43.53-43.53c0-24.035,19.495-43.53,43.53-43.53c5.483,0,10.717,1.016,15.547,2.861
	C396.731,115.138,408.349,130.985,408.349,149.548z"/>
<path style="fill:#96C8EF;" d="M475.033,256c0,18.563-11.618,34.41-27.984,40.67c-16.365-6.26-27.984-22.107-27.984-40.67
	s11.618-34.41,27.984-40.67C463.415,221.59,475.033,237.437,475.033,256z"/>
<path style="fill:#91DC5A;" d="M408.349,357.871c0,18.563-11.618,34.41-27.984,40.67c-16.365-6.26-27.984-22.107-27.984-40.67
	c0-18.552,11.618-34.41,27.984-40.67C396.731,323.462,408.349,339.309,408.349,357.871z"/>
<path style="fill:#FF728B;" d="M408.349,149.548c0,18.563-11.618,34.41-27.984,40.67c-16.365-6.26-27.984-22.107-27.984-40.67
	c0-18.552,11.618-34.41,27.984-40.67C396.731,115.138,408.349,130.985,408.349,149.548z"/>
<g>
	<path style="fill:#165C92;" d="M431.499,287.352c-4.293,0-7.773-3.48-7.773-7.773v-20.384c0-4.293,3.48-7.773,7.773-7.773
		c4.293,0,7.773,3.48,7.773,7.773v20.384C439.272,283.872,435.792,287.352,431.499,287.352z"/>
	<circle style="fill:#165C92;" cx="431.497" cy="240.018" r="7.6"/>
</g>
<g>
	<path style="fill:#47821C;" d="M349.277,353.598h30.402c4.293,0,7.773-3.48,7.773-7.773c0-4.293-3.48-7.773-7.773-7.773h-30.402
		c-4.293,0-7.773,3.48-7.773,7.773C341.504,350.118,344.984,353.598,349.277,353.598z"/>
	<path style="fill:#47821C;" d="M379.679,361.546h-30.402c-4.293,0-7.773,3.48-7.773,7.773c0,4.293,3.48,7.773,7.773,7.773h30.402
		c4.293,0,7.773-3.48,7.773-7.773C387.452,365.026,383.972,361.546,379.679,361.546z"/>
</g>
<path style="fill:#C70024;" d="M364.824,174.813c-0.192,0-0.382-0.007-0.575-0.022c-2.959-0.219-5.536-2.104-6.64-4.859
	c-3.6-8.973-6.248-15.593-8.201-20.49c-1.277,1.921-2.586,3.904-3.818,5.787c-2.351,3.592-7.169,4.599-10.76,2.249
	c-3.592-2.351-4.6-7.168-2.249-10.76c0,0,2.953-4.513,5.973-9.014c1.771-2.641,3.213-4.751,4.286-6.273
	c2.348-3.332,4.772-6.779,9.786-5.934c2.854,0.481,5.204,2.52,6.105,5.24c0.472,1.279,3.808,9.66,7.406,18.662l2.689-4.597
	c1.394-2.384,3.949-3.848,6.71-3.848h15.201c4.293,0,7.773,3.48,7.773,7.773s-3.48,7.773-7.773,7.773h-10.743l-8.458,14.461
	C370.131,173.359,367.569,174.813,364.824,174.813z M358.742,130.782c0.055,0.168,0.104,0.339,0.147,0.512
	C358.87,131.217,358.83,131.041,358.742,130.782z"/>
<path style="fill:#3E3D42;" d="M228.061,31.497v449.005c0,17.391-14.106,31.497-31.508,31.497h-45.562
	c-17.402,0-31.508-14.106-31.508-31.497V31.497C119.484,14.106,133.59,0,150.991,0h45.562C213.955,0,228.061,14.106,228.061,31.497z
	"/>
<path style="fill:#57565C;" d="M228.061,31.497v449.005c0,17.391-14.106,31.497-31.508,31.497h-11.359
	c-17.402,0-31.508-14.106-31.508-31.497V31.497C153.686,14.106,167.792,0,185.194,0h11.359C213.955,0,228.061,14.106,228.061,31.497
	z"/>
<g>
	<circle style="fill:#1D1D1F;" cx="173.776" cy="41.8" r="10.364"/>
	<circle style="fill:#1D1D1F;" cx="173.776" cy="80.148" r="10.364"/>
</g>
<circle style="fill:#2D2D30;" cx="173.776" cy="256" r="136.81"/>
<path style="fill:#1D1D1F;" d="M260.934,179.336c-22.034-25.051-53.822-39.418-87.215-39.418c-28.2,0-55.408,10.27-76.611,28.92
	c-23.283,20.478-37.197,48.797-39.179,79.739s8.203,60.806,28.681,84.087c22.034,25.051,53.822,39.418,87.215,39.418
	c28.2,0,55.408-10.27,76.611-28.92c23.283-20.478,37.197-48.796,39.179-79.739C291.599,232.48,281.412,202.617,260.934,179.336z"/>
<path style="fill:#2D2D30;" d="M270.13,266.292c-4.685,43.831-37.892,77.702-79.194,85.102c-8.851,1.596-18.065,1.969-27.455,0.964
	c-53.221-5.69-91.756-53.439-86.066-106.649c5.69-53.221,53.439-91.756,106.649-86.066c2.28,0.249,4.529,0.56,6.747,0.964
	C240.498,169.426,275.581,215.361,270.13,266.292z"/>
<path style="fill:#3E3D42;" d="M270.13,266.292c-4.685,43.831-37.892,77.702-79.194,85.102
	c-49.687-8.82-84.77-54.755-79.319-105.686c4.685-43.831,37.892-77.702,79.194-85.102
	C240.498,169.426,275.581,215.361,270.13,266.292z"/>
<path style="fill:#5AAAE7;" d="M216.421,292.598c-0.055,8.486-7.08,15.286-15.566,15.286H146.69c-4.301,0-8.198-1.741-11.007-4.56
	c-2.819-2.819-4.56-6.706-4.56-11.007c0-13.294,6.16-25.214,15.767-33.052c3.903-3.184,4.834-8.773,2.354-13.158
	c-2.311-4.086-3.632-8.809-3.632-13.842c0-15.826,13.069-28.606,29-28.139c5.172,0.145,10.022,1.72,14.158,4.353
	c7.483,4.737,12.624,12.914,13.121,22.263c0.487,9.235-3.472,17.547-9.929,23.019c7.214,3.431,13.329,8.83,17.64,15.484
	C213.961,275.984,216.477,284.014,216.421,292.598z"/>
<path style="fill:#78B9EB;" d="M216.421,292.598c-0.055,8.486-7.08,15.286-15.566,15.286h-24.108c-4.301,0-8.198-1.741-11.007-4.56
	c-2.819-2.819-4.56-6.706-4.56-11.007c0-13.294,6.16-25.214,15.767-33.052c3.903-3.184,4.834-8.773,2.354-13.158
	c-2.311-4.086-3.632-8.809-3.632-13.842c0-10.012,5.224-18.801,13.101-23.786c7.483,4.737,12.624,12.914,13.121,22.263
	c0.292,5.541-1.016,10.75-3.504,15.212c-2.485,4.458-1.681,10.089,2.273,13.315c3.475,2.836,6.498,6.205,8.942,9.977
	C213.961,275.984,216.477,284.014,216.421,292.598z"/>
<g>
</g>
<g>
</g>
<g>
</g>
<g>
</g>
<g>
</g>
<g>
</g>
<g>
</g>
<g>
</g>
<g>
</g>
<g>
</g>
<g>
</g>
<g>
</g>
<g>
</g>
<g>
</g>
<g>
</g>
</svg>
