<?xml version="1.0" encoding="iso-8859-1"?>
<!-- Generator: Adobe Illustrator 19.0.0, SVG Export Plug-In . SVG Version: 6.00 Build 0)  -->
<svg version="1.1" id="Capa_1" xmlns="http://www.w3.org/2000/svg" xmlns:xlink="http://www.w3.org/1999/xlink" x="0px" y="0px"
	 viewBox="0 0 512 512" style="enable-background:new 0 0 512 512;" xml:space="preserve">
<g>
	<path style="fill:#787680;" d="M161.625,454.452v50.61c0,3.815-3.123,6.938-6.928,6.938h-17.335c-3.815,0-6.938-3.123-6.938-6.938
		v-50.61c0-3.815,3.123-6.938,6.938-6.938h17.335C158.502,447.514,161.625,450.637,161.625,454.452z"/>
	<path style="fill:#787680;" d="M291.278,454.452v50.61c0,3.815-3.113,6.938-6.928,6.938h-17.335c-3.815,0-6.938-3.123-6.938-6.938
		v-50.61c0-3.815,3.123-6.938,6.938-6.938h17.335C288.165,447.514,291.278,450.637,291.278,454.452z"/>
</g>
<g>
	<path style="fill:#898890;" d="M161.625,454.452v45.341h-2.391c-3.815,0-6.938-3.123-6.938-6.938v-45.341h2.401
		C158.502,447.514,161.625,450.637,161.625,454.452z"/>
	<path style="fill:#898890;" d="M291.278,454.452v45.341h-2.391c-3.815,0-6.938-3.123-6.938-6.938v-45.341h2.401
		C288.165,447.514,291.278,450.637,291.278,454.452z"/>
</g>
<path style="fill:#B3D8F4;" d="M341.619,111.201c-4.214,0-7.63-3.416-7.63-7.63c0-15.882-12.921-28.802-28.802-28.802
	c-4.214,0-7.63-3.416-7.63-7.63c0-4.214,3.416-7.63,7.63-7.63c24.296,0,44.062,19.766,44.062,44.062
	C349.248,107.785,345.832,111.201,341.619,111.201z"/>
<path style="fill:#3D9AE2;" d="M401.128,111.201c-4.214,0-7.63-3.416-7.63-7.63c0-48.696-39.616-88.312-88.312-88.312
	c-4.214,0-7.63-3.416-7.63-7.63S300.973,0,305.186,0c57.11,0,103.571,46.462,103.571,103.571
	C408.757,107.785,405.341,111.201,401.128,111.201z"/>
<path style="fill:#78B9EB;" d="M372.493,111.201c-4.214,0-7.63-3.416-7.63-7.63c0-32.906-26.771-59.677-59.677-59.677
	c-4.214,0-7.63-3.416-7.63-7.63s3.416-7.63,7.63-7.63c41.32,0,74.936,33.616,74.936,74.936
	C380.123,107.785,376.707,111.201,372.493,111.201z"/>
<path style="fill:#C6C5CA;" d="M318.47,117.659v329.673c0,13.621-11.149,24.771-24.771,24.771H128.013
	c-13.621,0-24.771-11.149-24.771-24.771V117.659c0-13.632,11.149-24.771,24.771-24.771h165.686
	C307.321,92.888,318.47,104.027,318.47,117.659z"/>
<path style="fill:#E0E0E2;" d="M318.47,117.659v329.673c0,13.621-11.149,24.771-24.771,24.771H161.37
	c-13.621,0-24.771-11.149-24.771-24.771V117.659c0-13.632,11.149-24.771,24.771-24.771h132.329
	C307.321,92.888,318.47,104.027,318.47,117.659z"/>
<g>
	<path style="fill:#898890;" d="M144.236,122.77h-15.373c-4.214,0-7.63,3.416-7.63,7.63c0,4.214,3.416,7.63,7.63,7.63h7.744v48.797
		h-9.025c-4.214,0-7.63,3.416-7.63,7.63s3.416,7.63,7.63,7.63h16.655c4.214,0,7.63-3.416,7.63-7.63V130.4
		C151.866,126.186,148.45,122.77,144.236,122.77z"/>
	<path style="fill:#898890;" d="M144.236,288.03h-15.373c-4.214,0-7.63,3.416-7.63,7.63c0,4.214,3.416,7.63,7.63,7.63h7.744v48.797
		h-9.025c-4.214,0-7.63,3.416-7.63,7.63c0,4.214,3.416,7.63,7.63,7.63h16.655c4.214,0,7.63-3.416,7.63-7.63v-64.057
		C151.866,291.446,148.45,288.03,144.236,288.03z"/>
</g>
<rect x="103.243" y="232.593" style="fill:#57565C;" width="215.228" height="23.56"/>
<g>
	<path style="fill:#C6C5CA;" d="M204.964,126.889h-25.771c-2.984,0-5.425,2.441-5.425,5.425v25.771c0,2.984,2.441,5.425,5.425,5.425
		h25.771c2.984,0,5.425-2.441,5.425-5.425v-25.771C210.389,129.331,207.948,126.889,204.964,126.889z"/>
	<path style="fill:#C6C5CA;" d="M245.156,207.938l-21.437,8.074c-2.482,0.935-5.278-0.332-6.213-2.814l-8.074-21.437
		c-0.935-2.482,0.332-5.278,2.814-6.213l21.437-8.074c2.482-0.935,5.278,0.332,6.213,2.814l8.074,21.437
		C248.905,204.207,247.638,207.003,245.156,207.938z"/>
	<circle style="fill:#C6C5CA;" cx="263.628" cy="144.18" r="14.581"/>
</g>
<rect x="103.243" y="232.593" style="fill:#2D2D30;" width="33.357" height="23.571"/>
<path style="fill:#5AAAE7;" d="M209.796,121.803h-25.771c-2.984,0-5.425,2.441-5.425,5.425v25.771c0,2.984,2.441,5.425,5.425,5.425
	h25.771c2.984,0,5.425-2.441,5.425-5.425v-25.771C215.221,124.244,212.78,121.803,209.796,121.803z"/>
<path style="fill:#5EAC24;" d="M249.988,202.851l-21.437,8.074c-2.482,0.935-5.278-0.332-6.213-2.814l-8.074-21.437
	c-0.935-2.482,0.332-5.278,2.814-6.213l21.437-8.074c2.482-0.935,5.278,0.332,6.213,2.814l8.074,21.437
	C253.737,199.121,252.471,201.916,249.988,202.851z"/>
<circle style="fill:#FF0C38;" cx="268.46" cy="139.094" r="14.581"/>
<g>
</g>
<g>
</g>
<g>
</g>
<g>
</g>
<g>
</g>
<g>
</g>
<g>
</g>
<g>
</g>
<g>
</g>
<g>
</g>
<g>
</g>
<g>
</g>
<g>
</g>
<g>
</g>
<g>
</g>
</svg>
