<?xml version="1.0" encoding="iso-8859-1"?>
<!-- Generator: Adobe Illustrator 19.0.0, SVG Export Plug-In . SVG Version: 6.00 Build 0)  -->
<svg version="1.1" id="Capa_1" xmlns="http://www.w3.org/2000/svg" xmlns:xlink="http://www.w3.org/1999/xlink" x="0px" y="0px"
	 viewBox="0 0 512 512" style="enable-background:new 0 0 512 512;" xml:space="preserve">
<g>
	<path style="fill:#1D1D1F;" d="M137.53,443.255v49.997c0,5.819-2.686,11.037-6.887,14.485c-3.235,2.665-7.375,4.262-11.871,4.262
		c-10.305,0-18.748-8.433-18.748-18.748v-49.997c0-10.315,8.443-18.758,18.748-18.758c4.496,0,8.636,1.597,11.871,4.272
		c0.478,0.387,0.936,0.804,1.373,1.241C135.425,433.408,137.53,438.098,137.53,443.255z"/>
	<path style="fill:#1D1D1F;" d="M321.568,443.255v49.997c0,5.819-2.686,11.037-6.887,14.485c-3.235,2.665-7.375,4.262-11.871,4.262
		c-10.315,0-18.748-8.433-18.748-18.748v-49.997c0-10.315,8.433-18.758,18.748-18.758c4.496,0,8.636,1.597,11.871,4.272
		c0.478,0.387,0.936,0.804,1.373,1.241C319.463,433.408,321.568,438.098,321.568,443.255z"/>
</g>
<g>
	<path style="fill:#2D2D30;" d="M137.53,443.255v49.997c0,5.819-2.686,11.037-6.887,14.485c-4.201-3.448-6.887-8.667-6.887-14.485
		v-49.997c0-5.819,2.686-11.047,6.887-14.485c0.478,0.387,0.936,0.804,1.373,1.241C135.425,433.408,137.53,438.098,137.53,443.255z"
		/>
	<path style="fill:#2D2D30;" d="M321.568,443.255v49.997c0,5.819-2.686,11.037-6.887,14.485c-4.201-3.448-6.887-8.667-6.887-14.485
		v-49.997c0-5.819,2.686-11.047,6.887-14.485c0.478,0.387,0.936,0.804,1.373,1.241C319.463,433.408,321.568,438.098,321.568,443.255
		z"/>
</g>
<path style="fill:#3E3D42;" d="M368.86,115.939v315.16c0,20.701-16.937,37.638-37.648,37.638H90.371
	c-20.701,0-37.638-16.937-37.638-37.638v-315.16c0-17.68,12.359-32.623,28.869-36.6c2.818-0.682,5.758-1.038,8.769-1.038h240.841
	C351.923,78.302,368.86,95.239,368.86,115.939z"/>
<path style="fill:#57565C;" d="M368.86,115.939v288.712c0,20.701-16.937,37.638-37.648,37.638H117.837
	c-20.701,0-37.638-16.937-37.638-37.638V89.491c0-3.52,0.488-6.917,1.404-10.152c2.818-0.682,5.758-1.038,8.769-1.038h240.841
	C351.923,78.302,368.86,95.239,368.86,115.939z"/>
<path style="fill:#ACABB1;" d="M368.86,115.939v84.939H52.733v-84.939c0-20.701,16.937-37.638,37.638-37.638h240.841
	C351.923,78.302,368.86,95.239,368.86,115.939z"/>
<path style="fill:#B3D8F4;" d="M397.817,102.028c-4.214,0-7.629-3.416-7.629-7.629c0-13.962-11.358-25.32-25.32-25.32
	c-4.214,0-7.629-3.416-7.629-7.629s3.415-7.629,7.629-7.629c22.375,0,40.579,18.203,40.579,40.579
	C405.447,98.612,402.032,102.028,397.817,102.028z"/>
<path style="fill:#3D9AE2;" d="M451.637,102.028c-4.214,0-7.629-3.416-7.629-7.629c0-43.637-35.501-79.14-79.14-79.14
	c-4.214,0-7.629-3.416-7.629-7.629S360.654,0,364.868,0c52.052,0,94.398,42.346,94.398,94.398
	C459.267,98.612,455.852,102.028,451.637,102.028z"/>
<path style="fill:#78B9EB;" d="M425.739,102.028c-4.214,0-7.629-3.416-7.629-7.629c0-29.357-23.884-53.242-53.242-53.242
	c-4.214,0-7.629-3.416-7.629-7.629s3.415-7.629,7.629-7.629c37.771,0,68.501,30.73,68.501,68.501
	C433.369,98.612,429.954,102.028,425.739,102.028z"/>
<path style="fill:#C6C5CA;" d="M368.86,115.939v84.939H80.199v-84.939c0-20.701,16.937-37.638,37.638-37.638h213.375
	C351.923,78.302,368.86,95.239,368.86,115.939z"/>
<path style="fill:#FF0C38;" d="M230.536,135.603c0,5.218-2.482,9.867-6.327,12.807c-2.726,2.106-6.134,3.347-9.837,3.347
	c-8.921,0-16.154-7.233-16.154-16.154c0-8.931,7.233-16.164,16.154-16.164c3.703,0,7.11,1.241,9.837,3.347
	C228.054,125.725,230.536,130.374,230.536,135.603z"/>
<path style="fill:#1E81CE;" d="M286.86,135.603c0,5.218-2.482,9.867-6.327,12.807c-2.726,2.096-6.144,3.347-9.837,3.347
	c-8.921,0-16.154-7.233-16.154-16.154c0-8.931,7.233-16.164,16.154-16.164c3.693,0,7.11,1.251,9.837,3.347
	C284.378,125.735,286.86,130.374,286.86,135.603z"/>
<path style="fill:#5EAC24;" d="M343.175,135.603c0,5.218-2.472,9.857-6.317,12.807c-2.726,2.096-6.134,3.347-9.837,3.347
	c-8.921,0-16.154-7.233-16.154-16.154c0-8.931,7.233-16.164,16.154-16.164c3.703,0,7.11,1.251,9.837,3.347
	C340.703,125.735,343.175,130.374,343.175,135.603z"/>
<path style="fill:#FF3F62;" d="M230.536,135.603c0,5.218-2.482,9.867-6.327,12.807c-3.845-2.94-6.327-7.589-6.327-12.807
	c0-5.229,2.482-9.877,6.327-12.817C228.054,125.725,230.536,130.374,230.536,135.603z"/>
<path style="fill:#3D9AE2;" d="M286.86,135.603c0,5.218-2.482,9.867-6.327,12.807c-3.845-2.94-6.327-7.589-6.327-12.807
	c0-5.229,2.482-9.877,6.327-12.817C284.378,125.735,286.86,130.374,286.86,135.603z"/>
<path style="fill:#6DC82A;" d="M343.175,135.603c0,5.218-2.472,9.857-6.317,12.807c-3.845-2.94-6.327-7.578-6.327-12.807
	s2.482-9.877,6.327-12.817C340.703,125.735,343.175,130.374,343.175,135.603z"/>
<path style="fill:#3D9AE2;" d="M345.585,221.366v15.279c0,2.482-2.034,4.517-4.517,4.517h-31.249c-2.482,0-4.517-2.034-4.517-4.517
	v-15.279c0-2.482,2.034-4.517,4.517-4.517h31.249C343.551,216.849,345.585,218.884,345.585,221.366z"/>
<path style="fill:#78B9EB;" d="M345.585,221.366v15.279c0,2.482-2.034,4.517-4.517,4.517h-17.517c-2.482,0-4.517-2.034-4.517-4.517
	v-15.279c0-2.482,2.034-4.517,4.517-4.517h17.517C343.551,216.849,345.585,218.884,345.585,221.366z"/>
<path style="fill:#3D9AE2;" d="M172.666,129.306v17.446c0,8.382-6.856,15.238-15.238,15.238H94.145
	c-8.382,0-15.238-6.856-15.238-15.238v-17.446c0-8.382,6.856-15.238,15.238-15.238h63.282
	C165.809,114.068,172.666,120.924,172.666,129.306z"/>
<path style="fill:#C6C5CA;" d="M237.038,228.281c-56.13-14.225-113.164,19.746-127.389,75.877c-0.758,2.991-1.37,5.983-1.858,8.972
	H89.406c-4.476,0-8.138,3.662-8.138,8.138v17.293c0,4.476,3.662,8.138,8.138,8.138h18.363c6.503,39.978,35.992,74.264,77.756,84.849
	c56.13,14.225,113.164-19.746,127.389-75.877C327.14,299.54,293.168,242.506,237.038,228.281z"/>
<path style="fill:#E0E0E2;" d="M286.501,285.111c-11.968-20.092-31.043-34.322-53.713-40.067c-7.09-1.797-14.351-2.708-21.585-2.708
	c-40.067,0-74.935,27.168-84.793,66.069c-5.744,22.67-2.317,46.22,9.65,66.312c11.968,20.092,31.043,34.322,53.713,40.067
	c7.09,1.797,14.352,2.708,21.585,2.708c40.067,0,74.935-27.168,84.792-66.069C301.896,328.753,298.469,305.203,286.501,285.111z"/>
<path style="fill:#5AAAE7;" d="M281.856,329.915c0,35.43-26.112,64.757-60.139,69.793c-3.408,0.509-6.887,0.773-10.437,0.773
	c-38.97,0-70.566-31.595-70.566-70.566s31.595-70.566,70.566-70.566c3.55,0,7.029,0.264,10.437,0.773
	C255.743,265.158,281.856,294.485,281.856,329.915z"/>
<path style="fill:#78B9EB;" d="M281.856,329.915c0,35.43-26.112,64.757-60.139,69.793c-34.037-5.025-60.149-34.362-60.149-69.793
	s26.112-64.767,60.149-69.793C255.743,265.158,281.856,294.485,281.856,329.915z"/>
<path style="fill:#3D9AE2;" d="M278.978,349.867c-8.569,29.167-35.491,50.488-67.407,50.617
	c-38.399,0.155-70.227-31.004-70.846-69.398c-0.213-13.194,3.188-25.571,9.288-36.211c18.696,2.127,39.723,14.961,48.079,37.374
	c3.87,10.381,14.678,16.468,25.532,14.244c6.918-1.417,14.082-2.161,21.42-2.161C256.914,344.333,268.317,346.276,278.978,349.867z"
	/>
<path style="fill:#78B9EB;" d="M172.666,129.306v16.917h-58.684c-8.382,0-15.238-6.856-15.238-15.238v-16.917h58.684
	C165.809,114.068,172.666,120.924,172.666,129.306z"/>
<path style="fill:#1E81CE;" d="M161.568,329.915c0-10.63,2.36-20.721,6.571-29.764c-5.951-2.838-12.156-4.608-18.127-5.279
	c-6.103,10.64-9.501,23.02-9.287,36.214c0.621,38.39,32.45,69.548,70.85,69.396c3.438-0.02,6.836-0.275,10.142-0.773
	C187.68,394.682,161.568,365.345,161.568,329.915z"/>
<g>
</g>
<g>
</g>
<g>
</g>
<g>
</g>
<g>
</g>
<g>
</g>
<g>
</g>
<g>
</g>
<g>
</g>
<g>
</g>
<g>
</g>
<g>
</g>
<g>
</g>
<g>
</g>
<g>
</g>
</svg>
