<?xml version="1.0" encoding="iso-8859-1"?>
<!-- Generator: Adobe Illustrator 19.0.0, SVG Export Plug-In . SVG Version: 6.00 Build 0)  -->
<svg version="1.1" id="Capa_1" xmlns="http://www.w3.org/2000/svg" xmlns:xlink="http://www.w3.org/1999/xlink" x="0px" y="0px"
	 viewBox="0 0 512 512" style="enable-background:new 0 0 512 512;" xml:space="preserve">
<path style="fill:#FFD422;" d="M512,386.748c0,4.381-1.79,8.356-4.683,11.239c-2.883,2.893-6.868,4.683-11.239,4.683H15.922
	c-8.825,0-15.931-7.221-15.922-16.046c0.004-3.787,0.191-7.524,0.562-11.209c0.572-5.828,1.582-11.52,3.007-17.046
	c3.34-12.977,8.918-25.059,16.297-35.809c2.456-3.58,5.13-6.983,7.971-10.25h-0.167l54.083-69.058
	c23.227-30.98,55.404-53.333,91.515-64.562c17.285-5.37,35.476-8.2,54.01-8.2h46.881c6.795,0,13.528,0.437,20.168,1.28
	c49.597,6.306,93.856,35.663,118.811,79.891c4.504,7.982,7.592,13.454,9.706,17.202c2.825,5.009,7.428,8.716,12.86,10.602
	c23.111,8.02,42.826,23.292,56.419,43.095c7.389,10.75,12.966,22.832,16.307,35.809c1.426,5.536,2.435,11.229,3.007,17.046
	C511.813,379.141,512,382.918,512,386.748z"/>
<path style="fill:#DDB200;" d="M511.438,375.415H38.903c-7.831,0-13.547-7.327-11.741-14.947c0.167-0.702,0.339-1.402,0.519-2.099
	c3.34-12.977,8.918-25.059,16.297-35.809c2.456-3.58,5.13-6.983,7.971-10.25h-0.167l54.083-69.058
	c23.227-30.98,55.404-53.333,91.515-64.562c17.285-5.37,35.476-8.2,54.01-8.2h-24.112c-18.534,0-36.725,2.831-54.01,8.2
	c-36.111,11.229-68.287,33.582-91.515,64.562L27.671,312.31h0.167c-2.841,3.268-5.515,6.671-7.971,10.25
	c-7.378,10.75-12.956,22.832-16.297,35.809c-1.426,5.526-2.435,11.218-3.007,17.046c-0.37,3.686-0.558,7.422-0.562,11.209
	c-0.009,8.825,7.097,16.046,15.922,16.046h24.112h456.044c4.371,0,8.356-1.79,11.239-4.683c2.893-2.883,4.683-6.858,4.683-11.239
	C512,382.918,511.813,379.141,511.438,375.415z"/>
<path style="fill:#5AAAE7;" d="M385.457,267.188H104.284c-5.484,0-8.565-6.327-5.182-10.646l0.135-0.177
	c18.607-24.799,43.499-43.374,72.408-54.031c0.541-0.208,1.082-0.406,1.623-0.604c2.144-0.77,4.308-1.499,6.494-2.175
	c0.458-0.146,0.916-0.281,1.374-0.416c14.975-4.516,30.501-6.795,46.142-6.795h46.881c5.776,0,11.634,0.375,17.41,1.103
	c0.926,0.114,1.842,0.239,2.758,0.385c51.804,7.67,81.139,40.419,94.2,59.484c0.156,0.229,0.312,0.458,0.468,0.687
	c0.728,1.072,1.394,2.092,2.008,3.06C393.803,261.443,390.66,267.188,385.457,267.188z"/>
<path style="fill:#78B9EB;" d="M388.995,254.002H131.684c-5.484,0-8.565-6.327-5.182-10.646l0.135-0.177
	c12.425-16.557,27.65-30.345,45.008-40.846c0.541-0.208,1.082-0.406,1.623-0.604c2.144-0.77,4.308-1.499,6.494-2.175
	c0.458-0.146,0.916-0.281,1.374-0.416c14.975-4.516,30.501-6.795,46.142-6.795h46.881c5.776,0,11.634,0.375,17.41,1.103
	c0.926,0.114,1.842,0.239,2.758,0.385c51.804,7.67,81.139,40.419,94.2,59.484C388.683,253.545,388.839,253.774,388.995,254.002z"/>
<g>
	<path style="fill:#B3D8F4;" d="M294.327,193.832v73.355H173.268v-65.457c2.144-0.77,4.308-1.499,6.494-2.175
		c15.402-4.787,31.396-7.212,47.516-7.212h46.881c5.776,0,11.634,0.375,17.41,1.103
		C292.496,193.561,293.411,193.686,294.327,193.832z"/>
	<path style="fill:#B3D8F4;" d="M355.453,135.956c-4.311,0-7.805,3.495-7.805,7.805c0,4.31,3.493,7.805,7.805,7.805
		c21.087,0,38.241,17.155,38.241,38.242c0,4.31,3.493,7.805,7.805,7.805s7.805-3.495,7.805-7.805
		C409.303,160.114,385.147,135.956,355.453,135.956z"/>
</g>
<path style="fill:#3D9AE2;" d="M355.453,60.742c-4.311,0-7.805,3.495-7.805,7.805c0,4.31,3.493,7.805,7.805,7.805
	c62.559,0,113.455,50.896,113.455,113.456c0,4.31,3.493,7.805,7.805,7.805c4.311,0,7.805-3.495,7.805-7.805
	C484.518,118.64,426.62,60.742,355.453,60.742z"/>
<path style="fill:#78B9EB;" d="M355.453,96.933c-4.311,0-7.805,3.495-7.805,7.805s3.493,7.805,7.805,7.805
	c42.602,0,77.263,34.661,77.263,77.264c0,4.31,3.493,7.805,7.805,7.805c4.311,0,7.805-3.495,7.805-7.805
	C448.326,138.596,406.663,96.933,355.453,96.933z"/>
<path style="fill:#5EAC24;" d="M300.176,338.42c0,19.294-12.363,35.705-29.607,41.72c-4.568,1.603-9.47,2.466-14.569,2.466
	c-24.403,0-44.176-19.783-44.176-44.186c0-24.393,19.772-44.176,44.176-44.176c5.099,0,10.001,0.864,14.569,2.466
	C287.813,302.726,300.176,319.126,300.176,338.42z"/>
<path style="fill:#6DC82A;" d="M300.176,338.42c0,19.294-12.363,35.705-29.607,41.72c-17.244-6.015-29.606-22.426-29.606-41.72
	s12.363-35.694,29.606-41.709C287.813,302.726,300.176,319.126,300.176,338.42z"/>
<path style="fill:#47821C;" d="M256,286.44c-28.665,0-51.985,23.32-51.985,51.985s23.32,51.985,51.985,51.985
	s51.985-23.32,51.985-51.985C307.985,309.761,284.665,286.44,256,286.44z M219.625,338.424c0-20.056,16.318-36.375,36.375-36.375
	c3.754,0,7.375,0.572,10.784,1.633c-0.103,0.093-0.209,0.179-0.308,0.278l-29.327,29.327c-2.232,2.232-2.899,5.589-1.691,8.505
	c1.207,2.917,4.054,4.818,7.211,4.818h11.246l-16.955,16.954c-1.23,1.23-1.954,2.769-2.192,4.368
	C225.606,361.321,219.625,350.561,219.625,338.424z M256,374.799c-2.546,0-5.032-0.265-7.432-0.766l29.71-29.71
	c2.232-2.232,2.899-5.589,1.691-8.505c-1.207-2.917-4.054-4.818-7.211-4.818h-11.246l16.003-16.002
	c1.175-1.175,1.892-2.633,2.161-4.153c7.765,6.676,12.699,16.56,12.699,27.579C292.375,358.482,276.056,374.799,256,374.799z"/>
<g>
	<path style="fill:#D1E7F8;" d="M200.654,244.33c-2.359,0-4.688-1.064-6.223-3.088c-2.606-3.434-1.934-8.329,1.5-10.935l31.59-23.97
		c3.435-2.607,8.33-1.934,10.935,1.5c2.606,3.434,1.934,8.329-1.5,10.935l-31.59,23.97
		C203.955,243.812,202.297,244.33,200.654,244.33z"/>
	<path style="fill:#D1E7F8;" d="M240.893,241.034c-2.359,0-4.688-1.064-6.223-3.088c-2.606-3.434-1.934-8.329,1.5-10.935
		l31.59-23.97c3.435-2.607,8.33-1.934,10.935,1.5c2.606,3.434,1.934,8.329-1.5,10.935l-31.59,23.97
		C244.194,240.517,242.536,241.034,240.893,241.034z"/>
</g>
<path style="fill:#96C8EF;" d="M320.503,253.698c-2.359,0-4.688-1.064-6.223-3.088c-2.606-3.434-1.934-8.329,1.5-10.935
	l18.027-13.538c3.435-2.607,8.33-1.934,10.935,1.5c2.606,3.434,1.934,8.329-1.5,10.935l-18.027,13.538
	C323.804,253.18,322.146,253.698,320.503,253.698z"/>
<circle style="fill:#1D1D1F;" cx="118.218" cy="403.148" r="48.109"/>
<path style="fill:#3E3D42;" d="M143.162,403.148c0,9.782-5.63,18.253-13.841,22.343c-3.34,1.665-7.108,2.602-11.104,2.602
	c-13.778,0-24.944-11.166-24.944-24.944s11.166-24.955,24.944-24.955c3.996,0,7.763,0.937,11.104,2.612
	C137.532,384.885,143.162,393.366,143.162,403.148z"/>
<circle style="fill:#1D1D1F;" cx="393.782" cy="403.148" r="48.109"/>
<path style="fill:#3E3D42;" d="M418.727,403.148c0,9.782-5.63,18.253-13.841,22.343c-3.34,1.665-7.108,2.602-11.104,2.602
	c-13.778,0-24.944-11.166-24.944-24.944s11.166-24.955,24.944-24.955c3.996,0,7.763,0.937,11.104,2.612
	C413.097,384.885,418.727,393.366,418.727,403.148z"/>
<g>
	<path style="fill:#57565C;" d="M143.162,403.148c0,9.782-5.63,18.253-13.841,22.343c-8.211-4.079-13.851-12.55-13.851-22.343
		s5.64-18.274,13.851-22.343C137.532,384.885,143.162,393.366,143.162,403.148z"/>
	<path style="fill:#57565C;" d="M418.727,403.148c0,9.782-5.63,18.253-13.841,22.343c-8.211-4.079-13.851-12.55-13.851-22.343
		s5.64-18.274,13.851-22.343C413.097,384.885,418.727,393.366,418.727,403.148z"/>
</g>
<path style="fill:#C70024;" d="M55.227,338.17v4.683c0,8.585-7.024,15.61-15.61,15.61H5.203c-0.552,0-1.093-0.031-1.634-0.094
	c3.34-12.977,8.918-25.059,16.297-35.809h19.752c1.436,0,2.831,0.198,4.152,0.562C50.357,324.954,55.227,331.021,55.227,338.17z"/>
<path style="fill:#FF0C38;" d="M55.227,338.17v4.683c0,8.585-7.024,15.61-15.61,15.61H29.482c-0.552,0-1.093-0.031-1.634-0.094
	c3.278-12.748,8.731-24.643,15.922-35.247C50.357,324.954,55.227,331.021,55.227,338.17z"/>
<path style="fill:#EE8700;" d="M508.431,358.369c-0.541,0.062-1.082,0.094-1.634,0.094h-34.414c-8.585,0-15.61-7.024-15.61-15.61
	v-4.683c0-8.585,7.024-15.61,15.61-15.61h19.741c0.042,0.062,0.083,0.114,0.114,0.177
	C499.575,333.446,505.111,345.465,508.431,358.369z"/>
<path style="fill:#FF9811;" d="M508.431,358.369c-0.541,0.062-1.082,0.094-1.634,0.094h-12.217c-8.585,0-15.61-7.024-15.61-15.61
	v-4.683c0-7.784,5.776-14.288,13.268-15.433C499.575,333.446,505.111,345.465,508.431,358.369z"/>
<path style="fill:#CCA400;" d="M340.813,293.204c0,4.308-3.497,7.805-7.805,7.805h-32.26c-4.308,0-7.805-3.497-7.805-7.805
	s3.497-7.805,7.805-7.805h32.26C337.316,285.399,340.813,288.895,340.813,293.204z"/>
<path style="fill:#DDB200;" d="M340.813,293.204c0,4.308-3.497,7.805-7.805,7.805h-10.063c-4.308,0-7.805-3.497-7.805-7.805
	s3.497-7.805,7.805-7.805h10.063C337.316,285.399,340.813,288.895,340.813,293.204z"/>
<rect x="173.268" y="254.002" style="fill:#78B9EB;" width="121.059" height="13.185"/>
<g>
</g>
<g>
</g>
<g>
</g>
<g>
</g>
<g>
</g>
<g>
</g>
<g>
</g>
<g>
</g>
<g>
</g>
<g>
</g>
<g>
</g>
<g>
</g>
<g>
</g>
<g>
</g>
<g>
</g>
</svg>
