<?xml version="1.0" encoding="iso-8859-1"?>
<!-- Generator: Adobe Illustrator 19.0.0, SVG Export Plug-In . SVG Version: 6.00 Build 0)  -->
<svg version="1.1" id="Capa_1" xmlns="http://www.w3.org/2000/svg" xmlns:xlink="http://www.w3.org/1999/xlink" x="0px" y="0px"
	 viewBox="0 0 512 512" style="enable-background:new 0 0 512 512;" xml:space="preserve">
<path style="fill:#D9CCBC;" d="M512,73.957v258.191c0,23.164-18.949,42.113-42.113,42.113H42.113
	C18.949,374.261,0,355.312,0,332.148V73.957c0-23.164,18.949-42.113,42.113-42.113h427.774C493.051,31.844,512,50.793,512,73.957z"
	/>
<path style="fill:#EBE5DD;" d="M512,73.957v258.191c0,23.164-18.949,42.113-42.113,42.113H75.722
	c-23.164,0-42.113-18.949-42.113-42.113V73.957c0-23.164,18.949-42.113,42.113-42.113h394.165C493.051,31.844,512,50.793,512,73.957
	z"/>
<path style="fill:#5AAAE7;" d="M479.626,291.032c0,4.195-0.114,8.358-0.353,12.491H33.942c-0.239-4.132-0.353-8.296-0.353-12.491
	c0-29.145,5.596-56.992,15.761-82.513c23.361-58.642,70.905-105.033,130.315-126.879c23.974-8.815,49.9-13.633,76.937-13.633h0.135
	C379.857,68.091,479.626,167.912,479.626,291.032z"/>
<path style="fill:#78B9EB;" d="M479.626,291.032c0,4.195-0.114,8.358-0.353,12.491H71.683c-1.287-9.687-1.952-19.572-1.952-29.612
	c0-29.145,5.596-56.992,15.761-82.513c18.398-46.183,51.8-84.766,94.173-109.757c23.974-8.815,49.9-13.633,76.937-13.633h0.135
	C379.857,68.091,479.626,167.912,479.626,291.032z"/>
<g>
	<path style="fill:#3D9AE2;" d="M330.923,256.841c-6.116,7.444-6.967,18.575-6.385,35.302c0.135,3.852,0.208,7.642,0.228,11.38
		H169.988c-9.428-21.503-18.99-38.541-28.605-51.011c-17.163-22.23-30.681-25.23-41.646-25.23c-6.126,0-12.387,1.007-19.021,2.077
		c-2.212,0.353-4.454,0.706-6.728,1.038c-4.838,0.685-9.801,1.225-14.868,1.225c-5.669,0-10.809-0.665-15.678-2.035l-1.184-0.332
		c2.035-7.06,4.402-13.975,7.091-20.735c23.361-58.642,70.905-105.033,130.315-126.879c37.425-13.761,77.448-16.882,115.104-10.372
		c-13.269,7.434-31.803,17.827-31.803,17.827c-28.065,11.006-45.695,25.739-55.538,36.164c-0.706,0.748-1.381,1.485-2.035,2.201
		c-1.942,2.18,0.021,5.534,2.876,4.932c11.047-2.367,21.929-3.561,32.561-3.561c22.323,0,43.369,5.389,60.875,15.564
		c16.82,9.791,29.726,23.445,37.316,39.507C350.868,209.007,347.847,236.283,330.923,256.841z"/>
	<path style="fill:#3D9AE2;" d="M479.623,291.03c0,3.843-0.096,7.657-0.286,11.443c-2.34,0.713-4.68,1.312-7.02,1.808
		c-5.175,1.084-10.368,1.636-15.523,1.636c-26.424,0-50.851-14.22-68.8-40.017c-29.449-42.357-35.993-106.467-16.284-159.544
		l1.931-5.203C437.238,140.437,479.623,210.787,479.623,291.03z"/>
</g>
<path style="fill:#5EAC24;" d="M479.31,279.235v0.009c-68.514,28.85-119.318-78.474-87.091-165.28
	c6.82,5.232,13.326,10.844,19.49,16.826c37.258,36.06,61.97,84.998,66.964,139.635C478.948,273.347,479.157,276.286,479.31,279.235z
	"/>
<g>
	<path style="fill:#6DC82A;" d="M478.672,270.427c-46.247-5.013-77.541-73.07-66.964-139.635
		C448.967,166.852,473.678,215.79,478.672,270.427z"/>
	<path style="fill:#6DC82A;" d="M314.03,242.949c-11.515,13.986-11.992,31.844-11.359,49.962c0.125,3.624,0.197,7.154,0.218,10.611
		H193.796C135.008,162.004,84.091,218.269,49.35,208.519c20.374-50.933,58.921-94.28,114.596-120.41c0.01,0,0.01-0.01,0.01-0.01
		c4.543-2.019,8.105-3.621,15.335-6.323c0.125-0.042,0.249-0.093,0.374-0.135c23.984-8.825,49.9-13.633,76.937-13.633h0.135
		c-0.644,0.28-1.246,0.519-1.775,0.727c-84.662,33.204-107.452,107.234-64.208,91.463
		C289.942,123.982,349.259,200.119,314.03,242.949z"/>
</g>
<path style="fill:#5EAC24;" d="M224.145,303.522h-30.349C135.008,162.004,84.091,218.269,49.35,208.519
	c20.8-51.998,60.079-94.824,114.596-120.41c0.01,0,0.01-0.01,0.01-0.01c5.149-2.288,8.716-3.85,15.336-6.323
	c0.125-0.042,0.249-0.093,0.374-0.135c-36.174,21.337-65.807,52.579-85.15,89.999c-2.471,4.776,1.506,10.331,6.822,9.511
	C135.04,175.927,177.319,174.141,224.145,303.522z"/>
<polygon style="fill:#D9CCBC;" points="318.463,441.106 193.775,441.106 203.722,374.23 308.527,374.23 "/>
<g>
	<path style="fill:#A78966;" d="M377.822,464.581c0,4.288-1.755,8.171-4.579,10.995c-2.824,2.824-6.707,4.579-10.995,4.579H149.752
		c-8.566,0-15.574-7.008-15.574-15.574c0-12.283,5.025-23.434,13.114-31.533c8.099-8.088,19.25-13.114,31.533-13.114h154.352
		C357.731,419.935,377.822,440.026,377.822,464.581z"/>
	<path style="fill:#A78966;" d="M512,303.522v28.626c0,23.164-18.949,42.113-42.113,42.113H42.113
		C18.949,374.261,0,355.312,0,332.148v-28.626H512z"/>
</g>
<polygon style="fill:#EBE5DD;" points="318.463,441.106 227.385,441.106 237.332,374.23 308.527,374.23 "/>
<g>
	<path style="fill:#C0AB91;" d="M377.822,464.581c0,4.288-1.755,8.171-4.579,10.995c-2.824,2.824-6.707,4.579-10.995,4.579H183.361
		c-8.566,0-15.574-7.008-15.574-15.574c0-12.283,5.025-23.434,13.114-31.533c8.088-8.088,19.26-13.114,31.533-13.114h120.742
		C357.731,419.935,377.822,440.026,377.822,464.581z"/>
	<path style="fill:#C0AB91;" d="M512,303.522v28.626c0,23.164-18.949,42.113-42.113,42.113H75.722
		c-23.164,0-42.113-18.949-42.113-42.113v-28.626H512z"/>
</g>
<path style="fill:#957856;" d="M273.997,347.545h-35.994c-4.301,0-7.787-3.487-7.787-7.787c0-4.301,3.487-7.787,7.787-7.787h35.994
	c4.302,0,7.787,3.487,7.787,7.787C281.784,344.058,278.298,347.545,273.997,347.545z"/>
<g>
</g>
<g>
</g>
<g>
</g>
<g>
</g>
<g>
</g>
<g>
</g>
<g>
</g>
<g>
</g>
<g>
</g>
<g>
</g>
<g>
</g>
<g>
</g>
<g>
</g>
<g>
</g>
<g>
</g>
</svg>
