<?xml version="1.0" encoding="iso-8859-1"?>
<!-- Generator: Adobe Illustrator 19.0.0, SVG Export Plug-In . SVG Version: 6.00 Build 0)  -->
<svg version="1.1" id="Capa_1" xmlns="http://www.w3.org/2000/svg" xmlns:xlink="http://www.w3.org/1999/xlink" x="0px" y="0px"
	 viewBox="0 0 512 512" style="enable-background:new 0 0 512 512;" xml:space="preserve">
<path style="fill:#5AAAE7;" d="M446.687,256c0,69.767-37.601,130.744-93.652,163.768c-28.235,16.65-61.162,26.194-96.31,26.194
	c-104.914,0-189.961-85.048-189.961-189.961c0-24.825,4.764-48.54,13.425-70.277c19.899-49.957,60.393-89.472,110.999-108.074
	c20.426-7.511,42.504-11.61,65.538-11.61h0.113C361.704,66.102,446.687,151.126,446.687,256z"/>
<path style="fill:#78B9EB;" d="M446.687,256c0,69.767-37.601,130.744-93.652,163.768c-20.426,7.511-42.496,11.611-65.522,11.611
	c-104.914,0-189.961-85.048-189.961-189.961c0-24.825,4.764-48.539,13.425-70.277c15.67-39.344,44.116-72.206,80.21-93.49
	c20.426-7.511,42.504-11.61,65.538-11.61h0.113C361.704,66.102,446.687,151.126,446.687,256z"/>
<g>
	<path style="fill:#3D9AE2;" d="M320.027,226.881c-5.21,6.336-5.938,15.823-5.436,30.067c1.79,51.603-8.516,91.708-29.038,112.952
		c-9.65,9.99-21.487,15.491-33.323,15.491h-0.008c-17.371,0-32.295-11.472-38.947-29.921l-0.243-0.665l-0.187-0.681
		c-17.444-62.84-35.698-106.891-54.26-130.93c-14.625-18.943-26.137-21.495-35.479-21.495c-5.218,0-10.549,0.858-16.196,1.766
		c-1.887,0.308-3.8,0.607-5.737,0.883c-4.124,0.591-8.345,1.045-12.664,1.045c-4.829,0-9.204-0.567-13.353-1.734l-1.013-0.283
		c1.734-6.012,3.751-11.902,6.044-17.655c19.899-49.957,60.393-89.472,110.999-108.074c20.426-7.511,42.504-11.61,65.538-11.61
		h0.113c0.778,0,1.555,0.008,2.333,0.016c0.494,0.008,0.981,0.016,1.475,0.024c9.722,0.195,19.275,1.126,28.584,2.731
		c-11.303,6.336-27.085,15.183-27.085,15.183c-23.909,9.382-38.923,21.924-47.308,30.805c-0.599,0.64-1.175,1.264-1.734,1.879
		c-1.653,1.855,0.016,4.716,2.447,4.197c9.415-2.017,18.684-3.03,27.733-3.03c19.016,0,36.946,4.586,51.854,13.255
		c14.333,8.337,25.319,19.972,31.784,33.648C337.018,186.135,334.44,209.364,320.027,226.881z"/>
	<path style="fill:#3D9AE2;" d="M381.871,398.912c-8.912,7.811-18.562,14.802-28.836,20.855
		c-28.235,16.65-61.162,26.194-96.31,26.194c-2.13,0-4.262-0.032-6.376-0.105l1.636-5.59c7.827-26.728,17.655-47.227,29.216-60.927
		c15.346-18.198,31.517-22.014,42.382-22.014C349.551,357.324,370.341,378.236,381.871,398.912z"/>
	<path style="fill:#3D9AE2;" d="M446.687,256c0,3.273-0.081,6.522-0.243,9.746c-1.993,0.607-3.987,1.118-5.98,1.539
		c-4.407,0.924-8.831,1.393-13.222,1.393c-22.508,0-43.314-12.113-58.602-34.085c-25.084-36.078-30.658-90.687-13.871-135.896
		l1.645-4.431C410.584,127.727,446.687,187.65,446.687,256z"/>
</g>
<path style="fill:#6DC82A;" d="M367.035,410.669c-20.442,14.6-43.905,25.255-69.273,30.829c-9.075,2.001-18.384,3.354-27.895,4.003
	c19.591-66.899,47.381-77.132,69.572-65.295C350.678,386.192,360.473,397.843,367.035,410.669z"/>
<path style="fill:#5EAC24;" d="M446.42,245.953v0.008c-58.359,24.574-101.633-66.843-74.183-140.782
	c5.809,4.457,11.351,9.236,16.602,14.333c31.736,30.715,52.785,72.401,57.039,118.938
	C446.112,240.938,446.29,243.441,446.42,245.953z"/>
<g>
	<path style="fill:#6DC82A;" d="M445.877,238.45c-39.392-4.27-66.049-62.241-57.039-118.938
		C420.574,150.226,441.623,191.912,445.877,238.45z"/>
	<path style="fill:#6DC82A;" d="M305.638,215.043c-9.812,11.918-10.216,27.126-9.674,42.56
		c3.905,112.23-51.943,128.184-65.165,91.537c-61.632-222.061-115.698-153.623-150.61-163.418
		c27.936-70.124,96.448-119.684,176.537-119.684h0.113c-0.551,0.235-1.061,0.438-1.515,0.615
		c-72.117,28.285-91.521,91.343-54.689,77.901C285.123,113.71,335.648,178.568,305.638,215.043z"/>
</g>
<g>
	<path style="fill:#5EAC24;" d="M248.081,326.998c-47.45-170.963-90.414-169.739-123.607-164.593
		c-4.528,0.702-7.918-4.032-5.814-8.102c16.475-31.876,41.714-58.485,72.527-76.655c-29.095,10.695-54.835,28.313-75.253,50.842
		c0.006-0.008,0.011-0.017,0.017-0.026c-15.163,16.712-27.403,36.271-35.763,57.258c34.908,9.797,88.976-58.648,150.61,163.42
		c8.775,24.314,36.305,25.473,52.696-9.269C269.317,349.603,254.173,343.883,248.081,326.998z"/>
	<path style="fill:#5EAC24;" d="M269.867,445.499c28.788-1.962,57.378-10.541,83.152-25.724
		c-12.564,4.616-25.754,7.939-39.404,9.815c-5.622,0.772-9.883-4.962-7.577-10.147c10.3-23.151,21.914-35.037,33.402-39.238
		C303.969,361.285,281.2,406.801,269.867,445.499z"/>
</g>
<path style="fill:#C70024;" d="M182.729,324.118c-0.37,9.36-6.419,17.228-14.693,20.386c-2.785,1.055-5.81,1.588-8.96,1.464
	l-10.313-0.409c-6.26-0.248-11.847-3.032-15.806-7.318c-3.96-4.287-6.292-10.086-6.045-16.335
	c0.496-12.519,11.134-22.356,23.654-21.86l10.313,0.409c3.15,0.124,6.123,0.896,8.816,2.168c2.652,1.261,5.025,3.023,6.99,5.15
	C180.645,312.069,182.977,317.858,182.729,324.118z"/>
<path style="fill:#FF0C38;" d="M182.729,324.118c-0.37,9.36-6.419,17.228-14.693,20.386c-2.652-1.26-5.025-3.022-6.99-5.15
	c-3.96-4.287-6.292-10.086-6.045-16.335c0.371-9.37,6.42-17.238,14.694-20.397c2.652,1.261,5.025,3.023,6.99,5.15
	C180.645,312.069,182.977,317.858,182.729,324.118z"/>
<g>
	<path style="fill:#FFDA44;" d="M110.347,316.282L110.347,316.282c-0.485,4.359-4.589,7.393-8.895,6.556
		C44.892,311.838,0,293.527,0,266.584c0-12.58,9.789-23.975,29.095-33.864c3.695-1.897,8.232-0.432,10.13,3.263
		c1.897,3.705,0.442,8.243-3.263,10.14c-13.483,6.907-20.902,14.176-20.902,20.461c0,7.891,12.981,20.35,49.395,31.675
		c11.763,3.648,25.159,6.942,39.838,9.809C108.142,308.82,110.781,312.385,110.347,316.282z"/>
	<path style="fill:#FFDA44;" d="M512,266.584c0,41.785-107.715,62.768-199.949,68.038c-3.062,0.171-6.295,0.261-9.618,0.261h-0.09
		l-93.7-0.05c-0.311,0-0.622-0.001-0.933-0.002c-4.343-0.023-7.756-3.723-7.448-8.054l0.001-0.019
		c0.28-3.954,3.577-7.005,7.54-6.986c0.282,0.001,0.565,0.002,0.849,0.002l93.7,0.05c3.052-0.01,6.044-0.08,8.835-0.241
		c53.351-3.042,101.661-10.582,136.047-21.234c36.645-11.345,49.706-23.844,49.706-31.765c0-5.843-6.536-12.65-18.413-19.146
		c-3.644-1.998-4.99-6.566-2.992-10.22c1.998-3.644,6.576-4.98,10.22-2.992C503.165,243.764,512,254.647,512,266.584z"/>
</g>
<g>
</g>
<g>
</g>
<g>
</g>
<g>
</g>
<g>
</g>
<g>
</g>
<g>
</g>
<g>
</g>
<g>
</g>
<g>
</g>
<g>
</g>
<g>
</g>
<g>
</g>
<g>
</g>
<g>
</g>
</svg>
