<?xml version="1.0" encoding="iso-8859-1"?>
<!-- Generator: Adobe Illustrator 19.0.0, SVG Export Plug-In . SVG Version: 6.00 Build 0)  -->
<svg version="1.1" id="Capa_1" xmlns="http://www.w3.org/2000/svg" xmlns:xlink="http://www.w3.org/1999/xlink" x="0px" y="0px"
	 viewBox="0 0 512 512" style="enable-background:new 0 0 512 512;" xml:space="preserve">
<path style="fill:#5AAAE7;" d="M491.103,269.79c0,88.956-47.944,166.704-119.411,208.811C335.69,499.83,293.707,512,248.893,512
	c-133.77,0-242.21-108.44-242.21-242.21c0-31.653,6.074-61.89,17.118-89.607c25.372-63.698,77.004-114.08,141.528-137.799
	c26.043-9.576,54.194-14.804,83.564-14.804h0.145C382.746,27.663,491.103,136.071,491.103,269.79z"/>
<path style="fill:#78B9EB;" d="M491.103,269.79c0,88.956-47.944,166.704-119.411,208.811c-26.043,9.576-54.184,14.804-83.543,14.804
	c-133.77,0-242.21-108.44-242.21-242.21c0-31.653,6.074-61.89,17.118-89.607c19.979-50.165,56.25-92.066,102.272-119.204
	c26.043-9.576,54.194-14.804,83.564-14.804h0.145C382.746,27.663,491.103,136.071,491.103,269.79z"/>
<g>
	<path style="fill:#3D9AE2;" d="M329.606,232.662c-6.643,8.078-7.572,20.176-6.932,38.337
		c2.283,65.795-10.857,116.931-37.025,144.018c-12.304,12.738-27.397,19.752-42.49,19.752h-0.01
		c-22.149,0-41.178-14.628-49.659-38.151l-0.31-0.847l-0.238-0.868c-22.242-80.124-45.516-136.291-69.184-166.941
		c-18.647-24.153-33.326-27.407-45.237-27.407c-6.653,0-13.45,1.095-20.651,2.252c-2.407,0.393-4.845,0.775-7.314,1.126
		c-5.258,0.754-10.64,1.333-16.147,1.333c-6.157,0-11.735-0.723-17.025-2.211l-1.291-0.362c2.211-7.665,4.783-15.176,7.707-22.51
		c25.372-63.698,77.004-114.08,141.528-137.799c26.043-9.576,54.194-14.804,83.564-14.804h0.145c0.992,0,1.983,0.01,2.975,0.021
		c0.63,0.01,1.25,0.021,1.88,0.031c12.397,0.248,24.576,1.436,36.446,3.481c-14.411,8.078-34.535,19.359-34.535,19.359
		c-30.485,11.963-49.628,27.954-60.32,39.277c-0.764,0.816-1.498,1.612-2.211,2.397c-2.107,2.366,0.021,6.012,3.12,5.351
		c12.004-2.572,23.822-3.864,35.361-3.864c24.246,0,47.107,5.847,66.115,16.901c18.275,10.63,32.283,25.465,40.527,42.903
		C351.27,180.71,347.985,210.327,329.606,232.662z"/>
	<path style="fill:#3D9AE2;" d="M408.459,452.01c-11.364,9.959-23.667,18.874-36.766,26.591C335.69,499.83,293.707,512,248.893,512
		c-2.717,0-5.434-0.041-8.13-0.134l2.087-7.128c9.979-34.08,22.51-60.217,37.252-77.686c19.566-23.202,40.186-28.068,54.039-28.068
		C367.25,398.984,393.758,425.647,408.459,452.01z"/>
	<path style="fill:#3D9AE2;" d="M491.103,269.79c0,4.174-0.103,8.316-0.31,12.428c-2.541,0.775-5.083,1.426-7.624,1.963
		c-5.62,1.178-11.26,1.777-16.859,1.777c-28.698,0-55.227-15.444-74.721-43.461c-31.983-46.002-39.091-115.63-17.686-173.274
		L376,63.572C445.07,106.237,491.103,182.642,491.103,269.79z"/>
</g>
<path style="fill:#6DC82A;" d="M389.543,467c-26.064,18.616-55.981,32.2-88.326,39.308c-11.57,2.552-23.44,4.277-35.568,5.103
	c24.979-85.299,60.413-98.347,88.708-83.254C368.686,435.791,381.176,450.647,389.543,467z"/>
<path style="fill:#5EAC24;" d="M490.762,256.98v0.01c-74.411,31.333-129.586-85.227-94.586-179.503
	c7.407,5.682,14.473,11.777,21.167,18.275c40.465,39.163,67.303,92.314,72.727,151.652
	C490.369,250.585,490.598,253.778,490.762,256.98z"/>
<path style="fill:#6DC82A;" d="M490.07,247.414c-50.227-5.444-84.215-79.359-72.727-151.652
	C457.807,134.925,484.646,188.075,490.07,247.414z"/>
<path style="fill:#C70024;" d="M502.074,67.663c-3.523,9.328-9.545,16.994-17.014,22.51l0.083,0.031
	c-2.519,2.097-49.529,41.231-55.744,46.405c-4.37,3.663-11.079,1.137-11.963-4.514L406.33,60.421l0.083,0.031
	c-2.118-9.866-1.291-20.496,3.109-30.558c10.279-23.533,37.242-35.485,61.591-27.345c0.382,0.124,0.754,0.258,1.126,0.403
	C498.561,12.425,511.929,41.588,502.074,67.663z"/>
<path style="fill:#FF0C38;" d="M502.074,67.663c-3.523,9.328-9.545,16.994-17.014,22.51l0.083,0.031l-42.861,35.682l-9.824-63.398
	l0.083,0.031c-2.118-9.866-1.291-20.496,3.109-30.558c6.787-15.527,20.826-26.012,36.591-29.008
	C498.561,12.425,511.929,41.588,502.074,67.663z"/>
<path style="fill:#EEBF00;" d="M478.459,56.754c-2.19,5.785-6.374,10.238-11.477,12.862c-5.847,3.017-12.893,3.636-19.525,1.126
	c-12.417-4.69-18.678-18.574-13.988-30.992c4.7-12.417,18.574-18.688,30.992-13.988c0.878,0.331,1.715,0.702,2.531,1.126
	C477.714,32.394,482.818,45.204,478.459,56.754z"/>
<path style="fill:#FFDA44;" d="M478.459,56.754c-2.19,5.785-6.374,10.238-11.477,12.862c-10.733-5.496-15.837-18.316-11.477-29.866
	c2.19-5.795,6.384-10.248,11.488-12.862C477.714,32.394,482.818,45.204,478.459,56.754z"/>
<path style="fill:#6DC82A;" d="M311.259,217.569c-12.51,15.196-13.027,34.587-12.335,54.266
	c4.979,143.099-66.229,163.439-83.088,116.714C137.251,105.41,68.315,192.672,23.801,180.183
	C59.421,90.772,146.776,27.58,248.893,27.58h0.145c-0.702,0.3-1.353,0.558-1.932,0.785
	c-91.952,36.064-116.694,116.466-69.731,99.328C285.103,88.365,349.524,171.061,311.259,217.569z"/>
<g>
	<path style="fill:#5EAC24;" d="M237.871,360.316C177.371,142.332,122.589,143.892,80.268,150.453
		c-5.774,0.895-10.096-5.14-7.413-10.331c21.006-40.642,53.187-74.571,92.476-97.738C128.233,56.02,95.413,78.483,69.379,107.21
		c0.007-0.01,0.014-0.022,0.022-0.033c-19.334,21.309-34.94,46.247-45.599,73.006c44.509,12.491,113.448-74.78,192.034,208.367
		c11.188,31.002,46.291,32.479,67.19-11.818C264.948,389.139,245.64,381.845,237.871,360.316z"/>
	<path style="fill:#5EAC24;" d="M265.65,511.411c36.705-2.502,73.16-13.44,106.022-32.799
		c-16.019,5.886-32.837,10.123-50.243,12.513c-7.168,0.985-12.601-6.326-9.66-12.938c13.132-29.518,27.942-44.674,42.59-50.031
		C309.131,404.033,280.1,462.069,265.65,511.411z"/>
</g>
<g>
</g>
<g>
</g>
<g>
</g>
<g>
</g>
<g>
</g>
<g>
</g>
<g>
</g>
<g>
</g>
<g>
</g>
<g>
</g>
<g>
</g>
<g>
</g>
<g>
</g>
<g>
</g>
<g>
</g>
</svg>
